G04 #@! TF.GenerationSoftware,KiCad,Pcbnew,5.1.8-5.1.8*
G04 #@! TF.CreationDate,2021-03-27T17:25:53-07:00*
G04 #@! TF.ProjectId,1066,31303636-2e6b-4696-9361-645f70636258,rev?*
G04 #@! TF.SameCoordinates,Original*
G04 #@! TF.FileFunction,Soldermask,Bot*
G04 #@! TF.FilePolarity,Negative*
%FSLAX46Y46*%
G04 Gerber Fmt 4.6, Leading zero omitted, Abs format (unit mm)*
G04 Created by KiCad (PCBNEW 5.1.8-5.1.8) date 2021-03-27 17:25:53*
%MOMM*%
%LPD*%
G01*
G04 APERTURE LIST*
%ADD10O,1.802000X1.802000*%
%ADD11O,3.602000X3.602000*%
%ADD12O,2.102000X2.007000*%
%ADD13C,1.702000*%
%ADD14O,1.702000X1.702000*%
%ADD15C,2.102000*%
%ADD16C,3.102000*%
%ADD17O,1.502000X1.502000*%
%ADD18C,1.502000*%
%ADD19O,2.502000X2.502000*%
%ADD20C,2.502000*%
G04 APERTURE END LIST*
G36*
G01*
X128320000Y-31509000D02*
X130020000Y-31509000D01*
G75*
G02*
X130071000Y-31560000I0J-51000D01*
G01*
X130071000Y-33260000D01*
G75*
G02*
X130020000Y-33311000I-51000J0D01*
G01*
X128320000Y-33311000D01*
G75*
G02*
X128269000Y-33260000I0J51000D01*
G01*
X128269000Y-31560000D01*
G75*
G02*
X128320000Y-31509000I51000J0D01*
G01*
G37*
D10*
X129170000Y-34950000D03*
X131710000Y-32410000D03*
X131710000Y-34950000D03*
X134250000Y-32410000D03*
X134250000Y-34950000D03*
X136790000Y-32410000D03*
X136790000Y-34950000D03*
X139330000Y-32410000D03*
X139330000Y-34950000D03*
X141870000Y-32410000D03*
X141870000Y-34950000D03*
X144410000Y-32410000D03*
X144410000Y-34950000D03*
X146950000Y-32410000D03*
X146950000Y-34950000D03*
X149490000Y-32410000D03*
X149490000Y-34950000D03*
X152030000Y-32410000D03*
X152030000Y-34950000D03*
X154570000Y-32410000D03*
X154570000Y-34950000D03*
X157110000Y-32410000D03*
X157110000Y-34950000D03*
X159650000Y-32410000D03*
X159650000Y-34950000D03*
X162190000Y-32410000D03*
X162190000Y-34950000D03*
X164730000Y-32410000D03*
X164730000Y-34950000D03*
X167270000Y-32410000D03*
X167270000Y-34950000D03*
X169810000Y-32410000D03*
X169810000Y-34950000D03*
X172350000Y-32410000D03*
X172350000Y-34950000D03*
X174890000Y-32410000D03*
X174890000Y-34950000D03*
X177430000Y-32410000D03*
X177430000Y-34950000D03*
D11*
X51540000Y-108680000D03*
G36*
G01*
X69200000Y-112223500D02*
X67200000Y-112223500D01*
G75*
G02*
X67149000Y-112172500I0J51000D01*
G01*
X67149000Y-110267500D01*
G75*
G02*
X67200000Y-110216500I51000J0D01*
G01*
X69200000Y-110216500D01*
G75*
G02*
X69251000Y-110267500I0J-51000D01*
G01*
X69251000Y-112172500D01*
G75*
G02*
X69200000Y-112223500I-51000J0D01*
G01*
G37*
D12*
X68200000Y-108680000D03*
X68200000Y-106140000D03*
D13*
X100780000Y-67330000D03*
X108280000Y-67330000D03*
D14*
X91360000Y-62970000D03*
X98980000Y-45190000D03*
X91360000Y-60430000D03*
X98980000Y-47730000D03*
X91360000Y-57890000D03*
X98980000Y-50270000D03*
X91360000Y-55350000D03*
X98980000Y-52810000D03*
X91360000Y-52810000D03*
X98980000Y-55350000D03*
X91360000Y-50270000D03*
X98980000Y-57890000D03*
X91360000Y-47730000D03*
X98980000Y-60430000D03*
X91360000Y-45190000D03*
G36*
G01*
X99831000Y-62170000D02*
X99831000Y-63770000D01*
G75*
G02*
X99780000Y-63821000I-51000J0D01*
G01*
X98180000Y-63821000D01*
G75*
G02*
X98129000Y-63770000I0J51000D01*
G01*
X98129000Y-62170000D01*
G75*
G02*
X98180000Y-62119000I51000J0D01*
G01*
X99780000Y-62119000D01*
G75*
G02*
X99831000Y-62170000I0J-51000D01*
G01*
G37*
D13*
X96390000Y-67360000D03*
X91390000Y-67360000D03*
X129330000Y-66860000D03*
X124330000Y-66860000D03*
X164790000Y-66690000D03*
X159790000Y-66690000D03*
X204420000Y-60990000D03*
X209420000Y-60990000D03*
X217520000Y-61080000D03*
X222520000Y-61080000D03*
X230460000Y-61080000D03*
X235460000Y-61080000D03*
X243620000Y-61160000D03*
X248620000Y-61160000D03*
X204440000Y-88750000D03*
X209440000Y-88750000D03*
X217520000Y-88760000D03*
X222520000Y-88760000D03*
X230520000Y-88760000D03*
X235520000Y-88760000D03*
X243730000Y-88750000D03*
X248730000Y-88750000D03*
X96340000Y-93010000D03*
X91340000Y-93010000D03*
X129310000Y-93910000D03*
X124310000Y-93910000D03*
X164790000Y-94440000D03*
X159790000Y-94440000D03*
X96350000Y-120020000D03*
X91350000Y-120020000D03*
X116420000Y-120030000D03*
X111420000Y-120030000D03*
X137200000Y-120020000D03*
X132200000Y-120020000D03*
X164650000Y-120030000D03*
X159650000Y-120030000D03*
X186620000Y-121220000D03*
X181620000Y-121220000D03*
X209380000Y-121220000D03*
X204380000Y-121220000D03*
X231065000Y-123790000D03*
X226065000Y-123790000D03*
X252710000Y-123790000D03*
X247710000Y-123790000D03*
X96390000Y-146680000D03*
X91390000Y-146680000D03*
X137620000Y-146610000D03*
X132620000Y-146610000D03*
X164800000Y-146680000D03*
X159800000Y-146680000D03*
D14*
X230523332Y-56200000D03*
X238143332Y-38420000D03*
X230523332Y-53660000D03*
X238143332Y-40960000D03*
X230523332Y-51120000D03*
X238143332Y-43500000D03*
X230523332Y-48580000D03*
X238143332Y-46040000D03*
X230523332Y-46040000D03*
X238143332Y-48580000D03*
X230523332Y-43500000D03*
X238143332Y-51120000D03*
X230523332Y-40960000D03*
X238143332Y-53660000D03*
X230523332Y-38420000D03*
G36*
G01*
X238994332Y-55400000D02*
X238994332Y-57000000D01*
G75*
G02*
X238943332Y-57051000I-51000J0D01*
G01*
X237343332Y-57051000D01*
G75*
G02*
X237292332Y-57000000I0J51000D01*
G01*
X237292332Y-55400000D01*
G75*
G02*
X237343332Y-55349000I51000J0D01*
G01*
X238943332Y-55349000D01*
G75*
G02*
X238994332Y-55400000I0J-51000D01*
G01*
G37*
G36*
G01*
X252031000Y-83190000D02*
X252031000Y-84790000D01*
G75*
G02*
X251980000Y-84841000I-51000J0D01*
G01*
X250380000Y-84841000D01*
G75*
G02*
X250329000Y-84790000I0J51000D01*
G01*
X250329000Y-83190000D01*
G75*
G02*
X250380000Y-83139000I51000J0D01*
G01*
X251980000Y-83139000D01*
G75*
G02*
X252031000Y-83190000I0J-51000D01*
G01*
G37*
X243560000Y-66210000D03*
X251180000Y-81450000D03*
X243560000Y-68750000D03*
X251180000Y-78910000D03*
X243560000Y-71290000D03*
X251180000Y-76370000D03*
X243560000Y-73830000D03*
X251180000Y-73830000D03*
X243560000Y-76370000D03*
X251180000Y-71290000D03*
X243560000Y-78910000D03*
X251180000Y-68750000D03*
X243560000Y-81450000D03*
X251180000Y-66210000D03*
X243560000Y-83990000D03*
D15*
X68830000Y-126010000D03*
X78830000Y-126010000D03*
D16*
X76260000Y-48150000D03*
X71180000Y-48150000D03*
X66100000Y-48140000D03*
D17*
X66150000Y-53110000D03*
D18*
X73770000Y-53110000D03*
D17*
X101830000Y-52880000D03*
D18*
X109450000Y-52880000D03*
D17*
X103370000Y-63090000D03*
D18*
X110990000Y-63090000D03*
D17*
X103490000Y-70250000D03*
D18*
X111110000Y-70250000D03*
D17*
X120900000Y-90150000D03*
D18*
X113280000Y-90150000D03*
D17*
X111680000Y-127510000D03*
D18*
X119300000Y-127510000D03*
D17*
X119290000Y-130692500D03*
D18*
X111670000Y-130692500D03*
D17*
X111670000Y-133835000D03*
D18*
X119290000Y-133835000D03*
D17*
X111670000Y-136977500D03*
D18*
X119290000Y-136977500D03*
D17*
X111670000Y-140120000D03*
D18*
X119290000Y-140120000D03*
D17*
X139540000Y-97210000D03*
D18*
X147160000Y-97210000D03*
D17*
X177930000Y-43830000D03*
D18*
X185550000Y-43830000D03*
D17*
X177940000Y-47650000D03*
D18*
X185560000Y-47650000D03*
D17*
X177940000Y-51460000D03*
D18*
X185560000Y-51460000D03*
D17*
X177940000Y-55270000D03*
D18*
X185560000Y-55270000D03*
D17*
X177880000Y-70560000D03*
D18*
X185500000Y-70560000D03*
D17*
X177880000Y-73916666D03*
D18*
X185500000Y-73916666D03*
D17*
X177880000Y-77273332D03*
D18*
X185500000Y-77273332D03*
D17*
X177880000Y-80629998D03*
D18*
X185500000Y-80629998D03*
D17*
X185500000Y-83986664D03*
D18*
X177880000Y-83986664D03*
D17*
X185500000Y-87343330D03*
D18*
X177880000Y-87343330D03*
D17*
X185460000Y-90700000D03*
D18*
X177840000Y-90700000D03*
D17*
X185520000Y-93480000D03*
D18*
X193140000Y-93480000D03*
D17*
X185530000Y-95940000D03*
D18*
X193150000Y-95940000D03*
G36*
G01*
X231854000Y-165130000D02*
X231854000Y-154970000D01*
G75*
G02*
X231905000Y-154919000I51000J0D01*
G01*
X233175000Y-154919000D01*
G75*
G02*
X233226000Y-154970000I0J-51000D01*
G01*
X233226000Y-165130000D01*
G75*
G02*
X233175000Y-165181000I-51000J0D01*
G01*
X231905000Y-165181000D01*
G75*
G02*
X231854000Y-165130000I0J51000D01*
G01*
G37*
G36*
G01*
X229314000Y-165130000D02*
X229314000Y-154970000D01*
G75*
G02*
X229365000Y-154919000I51000J0D01*
G01*
X230635000Y-154919000D01*
G75*
G02*
X230686000Y-154970000I0J-51000D01*
G01*
X230686000Y-165130000D01*
G75*
G02*
X230635000Y-165181000I-51000J0D01*
G01*
X229365000Y-165181000D01*
G75*
G02*
X229314000Y-165130000I0J51000D01*
G01*
G37*
G36*
G01*
X226774000Y-165130000D02*
X226774000Y-154970000D01*
G75*
G02*
X226825000Y-154919000I51000J0D01*
G01*
X228095000Y-154919000D01*
G75*
G02*
X228146000Y-154970000I0J-51000D01*
G01*
X228146000Y-165130000D01*
G75*
G02*
X228095000Y-165181000I-51000J0D01*
G01*
X226825000Y-165181000D01*
G75*
G02*
X226774000Y-165130000I0J51000D01*
G01*
G37*
G36*
G01*
X224234000Y-165130000D02*
X224234000Y-154970000D01*
G75*
G02*
X224285000Y-154919000I51000J0D01*
G01*
X225555000Y-154919000D01*
G75*
G02*
X225606000Y-154970000I0J-51000D01*
G01*
X225606000Y-165130000D01*
G75*
G02*
X225555000Y-165181000I-51000J0D01*
G01*
X224285000Y-165181000D01*
G75*
G02*
X224234000Y-165130000I0J51000D01*
G01*
G37*
G36*
G01*
X221694000Y-165130000D02*
X221694000Y-154970000D01*
G75*
G02*
X221745000Y-154919000I51000J0D01*
G01*
X223015000Y-154919000D01*
G75*
G02*
X223066000Y-154970000I0J-51000D01*
G01*
X223066000Y-165130000D01*
G75*
G02*
X223015000Y-165181000I-51000J0D01*
G01*
X221745000Y-165181000D01*
G75*
G02*
X221694000Y-165130000I0J51000D01*
G01*
G37*
G36*
G01*
X219154000Y-165130000D02*
X219154000Y-154970000D01*
G75*
G02*
X219205000Y-154919000I51000J0D01*
G01*
X220475000Y-154919000D01*
G75*
G02*
X220526000Y-154970000I0J-51000D01*
G01*
X220526000Y-165130000D01*
G75*
G02*
X220475000Y-165181000I-51000J0D01*
G01*
X219205000Y-165181000D01*
G75*
G02*
X219154000Y-165130000I0J51000D01*
G01*
G37*
G36*
G01*
X216614000Y-165130000D02*
X216614000Y-154970000D01*
G75*
G02*
X216665000Y-154919000I51000J0D01*
G01*
X217935000Y-154919000D01*
G75*
G02*
X217986000Y-154970000I0J-51000D01*
G01*
X217986000Y-165130000D01*
G75*
G02*
X217935000Y-165181000I-51000J0D01*
G01*
X216665000Y-165181000D01*
G75*
G02*
X216614000Y-165130000I0J51000D01*
G01*
G37*
G36*
G01*
X214074000Y-165130000D02*
X214074000Y-154970000D01*
G75*
G02*
X214125000Y-154919000I51000J0D01*
G01*
X215395000Y-154919000D01*
G75*
G02*
X215446000Y-154970000I0J-51000D01*
G01*
X215446000Y-165130000D01*
G75*
G02*
X215395000Y-165181000I-51000J0D01*
G01*
X214125000Y-165181000D01*
G75*
G02*
X214074000Y-165130000I0J51000D01*
G01*
G37*
G36*
G01*
X211534000Y-165130000D02*
X211534000Y-154970000D01*
G75*
G02*
X211585000Y-154919000I51000J0D01*
G01*
X212855000Y-154919000D01*
G75*
G02*
X212906000Y-154970000I0J-51000D01*
G01*
X212906000Y-165130000D01*
G75*
G02*
X212855000Y-165181000I-51000J0D01*
G01*
X211585000Y-165181000D01*
G75*
G02*
X211534000Y-165130000I0J51000D01*
G01*
G37*
G36*
G01*
X208994000Y-165130000D02*
X208994000Y-154970000D01*
G75*
G02*
X209045000Y-154919000I51000J0D01*
G01*
X210315000Y-154919000D01*
G75*
G02*
X210366000Y-154970000I0J-51000D01*
G01*
X210366000Y-165130000D01*
G75*
G02*
X210315000Y-165181000I-51000J0D01*
G01*
X209045000Y-165181000D01*
G75*
G02*
X208994000Y-165130000I0J51000D01*
G01*
G37*
G36*
G01*
X206454000Y-165130000D02*
X206454000Y-154970000D01*
G75*
G02*
X206505000Y-154919000I51000J0D01*
G01*
X207775000Y-154919000D01*
G75*
G02*
X207826000Y-154970000I0J-51000D01*
G01*
X207826000Y-165130000D01*
G75*
G02*
X207775000Y-165181000I-51000J0D01*
G01*
X206505000Y-165181000D01*
G75*
G02*
X206454000Y-165130000I0J51000D01*
G01*
G37*
G36*
G01*
X203914000Y-165130000D02*
X203914000Y-154970000D01*
G75*
G02*
X203965000Y-154919000I51000J0D01*
G01*
X205235000Y-154919000D01*
G75*
G02*
X205286000Y-154970000I0J-51000D01*
G01*
X205286000Y-165130000D01*
G75*
G02*
X205235000Y-165181000I-51000J0D01*
G01*
X203965000Y-165181000D01*
G75*
G02*
X203914000Y-165130000I0J51000D01*
G01*
G37*
G36*
G01*
X201374000Y-165130000D02*
X201374000Y-154970000D01*
G75*
G02*
X201425000Y-154919000I51000J0D01*
G01*
X202695000Y-154919000D01*
G75*
G02*
X202746000Y-154970000I0J-51000D01*
G01*
X202746000Y-165130000D01*
G75*
G02*
X202695000Y-165181000I-51000J0D01*
G01*
X201425000Y-165181000D01*
G75*
G02*
X201374000Y-165130000I0J51000D01*
G01*
G37*
G36*
G01*
X198834000Y-165130000D02*
X198834000Y-154970000D01*
G75*
G02*
X198885000Y-154919000I51000J0D01*
G01*
X200155000Y-154919000D01*
G75*
G02*
X200206000Y-154970000I0J-51000D01*
G01*
X200206000Y-165130000D01*
G75*
G02*
X200155000Y-165181000I-51000J0D01*
G01*
X198885000Y-165181000D01*
G75*
G02*
X198834000Y-165130000I0J51000D01*
G01*
G37*
G36*
G01*
X196294000Y-165130000D02*
X196294000Y-154970000D01*
G75*
G02*
X196345000Y-154919000I51000J0D01*
G01*
X197615000Y-154919000D01*
G75*
G02*
X197666000Y-154970000I0J-51000D01*
G01*
X197666000Y-165130000D01*
G75*
G02*
X197615000Y-165181000I-51000J0D01*
G01*
X196345000Y-165181000D01*
G75*
G02*
X196294000Y-165130000I0J51000D01*
G01*
G37*
G36*
G01*
X193754000Y-165130000D02*
X193754000Y-154970000D01*
G75*
G02*
X193805000Y-154919000I51000J0D01*
G01*
X195075000Y-154919000D01*
G75*
G02*
X195126000Y-154970000I0J-51000D01*
G01*
X195126000Y-165130000D01*
G75*
G02*
X195075000Y-165181000I-51000J0D01*
G01*
X193805000Y-165181000D01*
G75*
G02*
X193754000Y-165130000I0J51000D01*
G01*
G37*
G36*
G01*
X191214000Y-165130000D02*
X191214000Y-154970000D01*
G75*
G02*
X191265000Y-154919000I51000J0D01*
G01*
X192535000Y-154919000D01*
G75*
G02*
X192586000Y-154970000I0J-51000D01*
G01*
X192586000Y-165130000D01*
G75*
G02*
X192535000Y-165181000I-51000J0D01*
G01*
X191265000Y-165181000D01*
G75*
G02*
X191214000Y-165130000I0J51000D01*
G01*
G37*
G36*
G01*
X188674000Y-165130000D02*
X188674000Y-154970000D01*
G75*
G02*
X188725000Y-154919000I51000J0D01*
G01*
X189995000Y-154919000D01*
G75*
G02*
X190046000Y-154970000I0J-51000D01*
G01*
X190046000Y-165130000D01*
G75*
G02*
X189995000Y-165181000I-51000J0D01*
G01*
X188725000Y-165181000D01*
G75*
G02*
X188674000Y-165130000I0J51000D01*
G01*
G37*
G36*
G01*
X186134000Y-165130000D02*
X186134000Y-154970000D01*
G75*
G02*
X186185000Y-154919000I51000J0D01*
G01*
X187455000Y-154919000D01*
G75*
G02*
X187506000Y-154970000I0J-51000D01*
G01*
X187506000Y-165130000D01*
G75*
G02*
X187455000Y-165181000I-51000J0D01*
G01*
X186185000Y-165181000D01*
G75*
G02*
X186134000Y-165130000I0J51000D01*
G01*
G37*
G36*
G01*
X183594000Y-165130000D02*
X183594000Y-154970000D01*
G75*
G02*
X183645000Y-154919000I51000J0D01*
G01*
X184915000Y-154919000D01*
G75*
G02*
X184966000Y-154970000I0J-51000D01*
G01*
X184966000Y-165130000D01*
G75*
G02*
X184915000Y-165181000I-51000J0D01*
G01*
X183645000Y-165181000D01*
G75*
G02*
X183594000Y-165130000I0J51000D01*
G01*
G37*
G36*
G01*
X181054000Y-165130000D02*
X181054000Y-154970000D01*
G75*
G02*
X181105000Y-154919000I51000J0D01*
G01*
X182375000Y-154919000D01*
G75*
G02*
X182426000Y-154970000I0J-51000D01*
G01*
X182426000Y-165130000D01*
G75*
G02*
X182375000Y-165181000I-51000J0D01*
G01*
X181105000Y-165181000D01*
G75*
G02*
X181054000Y-165130000I0J51000D01*
G01*
G37*
G36*
G01*
X178514000Y-165130000D02*
X178514000Y-154970000D01*
G75*
G02*
X178565000Y-154919000I51000J0D01*
G01*
X179835000Y-154919000D01*
G75*
G02*
X179886000Y-154970000I0J-51000D01*
G01*
X179886000Y-165130000D01*
G75*
G02*
X179835000Y-165181000I-51000J0D01*
G01*
X178565000Y-165181000D01*
G75*
G02*
X178514000Y-165130000I0J51000D01*
G01*
G37*
G36*
G01*
X175974000Y-165130000D02*
X175974000Y-154970000D01*
G75*
G02*
X176025000Y-154919000I51000J0D01*
G01*
X177295000Y-154919000D01*
G75*
G02*
X177346000Y-154970000I0J-51000D01*
G01*
X177346000Y-165130000D01*
G75*
G02*
X177295000Y-165181000I-51000J0D01*
G01*
X176025000Y-165181000D01*
G75*
G02*
X175974000Y-165130000I0J51000D01*
G01*
G37*
G36*
G01*
X173434000Y-165130000D02*
X173434000Y-154970000D01*
G75*
G02*
X173485000Y-154919000I51000J0D01*
G01*
X174755000Y-154919000D01*
G75*
G02*
X174806000Y-154970000I0J-51000D01*
G01*
X174806000Y-165130000D01*
G75*
G02*
X174755000Y-165181000I-51000J0D01*
G01*
X173485000Y-165181000D01*
G75*
G02*
X173434000Y-165130000I0J51000D01*
G01*
G37*
G36*
G01*
X170894000Y-165130000D02*
X170894000Y-154970000D01*
G75*
G02*
X170945000Y-154919000I51000J0D01*
G01*
X172215000Y-154919000D01*
G75*
G02*
X172266000Y-154970000I0J-51000D01*
G01*
X172266000Y-165130000D01*
G75*
G02*
X172215000Y-165181000I-51000J0D01*
G01*
X170945000Y-165181000D01*
G75*
G02*
X170894000Y-165130000I0J51000D01*
G01*
G37*
G36*
G01*
X81091000Y-71890000D02*
X81091000Y-74290000D01*
G75*
G02*
X81040000Y-74341000I-51000J0D01*
G01*
X78640000Y-74341000D01*
G75*
G02*
X78589000Y-74290000I0J51000D01*
G01*
X78589000Y-71890000D01*
G75*
G02*
X78640000Y-71839000I51000J0D01*
G01*
X81040000Y-71839000D01*
G75*
G02*
X81091000Y-71890000I0J-51000D01*
G01*
G37*
D19*
X51840000Y-73090000D03*
G36*
G01*
X126411000Y-116940000D02*
X126411000Y-118640000D01*
G75*
G02*
X126360000Y-118691000I-51000J0D01*
G01*
X124660000Y-118691000D01*
G75*
G02*
X124609000Y-118640000I0J51000D01*
G01*
X124609000Y-116940000D01*
G75*
G02*
X124660000Y-116889000I51000J0D01*
G01*
X126360000Y-116889000D01*
G75*
G02*
X126411000Y-116940000I0J-51000D01*
G01*
G37*
D10*
X125510000Y-115250000D03*
X125510000Y-112710000D03*
D20*
X79800000Y-80750000D03*
D19*
X79800000Y-111230000D03*
G36*
G01*
X132811000Y-62090000D02*
X132811000Y-63690000D01*
G75*
G02*
X132760000Y-63741000I-51000J0D01*
G01*
X131160000Y-63741000D01*
G75*
G02*
X131109000Y-63690000I0J51000D01*
G01*
X131109000Y-62090000D01*
G75*
G02*
X131160000Y-62039000I51000J0D01*
G01*
X132760000Y-62039000D01*
G75*
G02*
X132811000Y-62090000I0J-51000D01*
G01*
G37*
D14*
X124340000Y-45110000D03*
X131960000Y-60350000D03*
X124340000Y-47650000D03*
X131960000Y-57810000D03*
X124340000Y-50190000D03*
X131960000Y-55270000D03*
X124340000Y-52730000D03*
X131960000Y-52730000D03*
X124340000Y-55270000D03*
X131960000Y-50190000D03*
X124340000Y-57810000D03*
X131960000Y-47650000D03*
X124340000Y-60350000D03*
X131960000Y-45110000D03*
X124340000Y-62890000D03*
G36*
G01*
X168261000Y-62070000D02*
X168261000Y-63670000D01*
G75*
G02*
X168210000Y-63721000I-51000J0D01*
G01*
X166610000Y-63721000D01*
G75*
G02*
X166559000Y-63670000I0J51000D01*
G01*
X166559000Y-62070000D01*
G75*
G02*
X166610000Y-62019000I51000J0D01*
G01*
X168210000Y-62019000D01*
G75*
G02*
X168261000Y-62070000I0J-51000D01*
G01*
G37*
X159790000Y-45090000D03*
X167410000Y-60330000D03*
X159790000Y-47630000D03*
X167410000Y-57790000D03*
X159790000Y-50170000D03*
X167410000Y-55250000D03*
X159790000Y-52710000D03*
X167410000Y-52710000D03*
X159790000Y-55250000D03*
X167410000Y-50170000D03*
X159790000Y-57790000D03*
X167410000Y-47630000D03*
X159790000Y-60330000D03*
X167410000Y-45090000D03*
X159790000Y-62870000D03*
G36*
G01*
X212921000Y-55190000D02*
X212921000Y-56790000D01*
G75*
G02*
X212870000Y-56841000I-51000J0D01*
G01*
X211270000Y-56841000D01*
G75*
G02*
X211219000Y-56790000I0J51000D01*
G01*
X211219000Y-55190000D01*
G75*
G02*
X211270000Y-55139000I51000J0D01*
G01*
X212870000Y-55139000D01*
G75*
G02*
X212921000Y-55190000I0J-51000D01*
G01*
G37*
X204450000Y-38210000D03*
X212070000Y-53450000D03*
X204450000Y-40750000D03*
X212070000Y-50910000D03*
X204450000Y-43290000D03*
X212070000Y-48370000D03*
X204450000Y-45830000D03*
X212070000Y-45830000D03*
X204450000Y-48370000D03*
X212070000Y-43290000D03*
X204450000Y-50910000D03*
X212070000Y-40750000D03*
X204450000Y-53450000D03*
X212070000Y-38210000D03*
X204450000Y-55990000D03*
G36*
G01*
X225957666Y-55400000D02*
X225957666Y-57000000D01*
G75*
G02*
X225906666Y-57051000I-51000J0D01*
G01*
X224306666Y-57051000D01*
G75*
G02*
X224255666Y-57000000I0J51000D01*
G01*
X224255666Y-55400000D01*
G75*
G02*
X224306666Y-55349000I51000J0D01*
G01*
X225906666Y-55349000D01*
G75*
G02*
X225957666Y-55400000I0J-51000D01*
G01*
G37*
X217486666Y-38420000D03*
X225106666Y-53660000D03*
X217486666Y-40960000D03*
X225106666Y-51120000D03*
X217486666Y-43500000D03*
X225106666Y-48580000D03*
X217486666Y-46040000D03*
X225106666Y-46040000D03*
X217486666Y-48580000D03*
X225106666Y-43500000D03*
X217486666Y-51120000D03*
X225106666Y-40960000D03*
X217486666Y-53660000D03*
X225106666Y-38420000D03*
X217486666Y-56200000D03*
G36*
G01*
X252031000Y-55370000D02*
X252031000Y-56970000D01*
G75*
G02*
X251980000Y-57021000I-51000J0D01*
G01*
X250380000Y-57021000D01*
G75*
G02*
X250329000Y-56970000I0J51000D01*
G01*
X250329000Y-55370000D01*
G75*
G02*
X250380000Y-55319000I51000J0D01*
G01*
X251980000Y-55319000D01*
G75*
G02*
X252031000Y-55370000I0J-51000D01*
G01*
G37*
X243560000Y-38390000D03*
X251180000Y-53630000D03*
X243560000Y-40930000D03*
X251180000Y-51090000D03*
X243560000Y-43470000D03*
X251180000Y-48550000D03*
X243560000Y-46010000D03*
X251180000Y-46010000D03*
X243560000Y-48550000D03*
X251180000Y-43470000D03*
X243560000Y-51090000D03*
X251180000Y-40930000D03*
X243560000Y-53630000D03*
X251180000Y-38390000D03*
X243560000Y-56170000D03*
X204450000Y-83830000D03*
X212070000Y-66050000D03*
X204450000Y-81290000D03*
X212070000Y-68590000D03*
X204450000Y-78750000D03*
X212070000Y-71130000D03*
X204450000Y-76210000D03*
X212070000Y-73670000D03*
X204450000Y-73670000D03*
X212070000Y-76210000D03*
X204450000Y-71130000D03*
X212070000Y-78750000D03*
X204450000Y-68590000D03*
X212070000Y-81290000D03*
X204450000Y-66050000D03*
G36*
G01*
X212921000Y-83030000D02*
X212921000Y-84630000D01*
G75*
G02*
X212870000Y-84681000I-51000J0D01*
G01*
X211270000Y-84681000D01*
G75*
G02*
X211219000Y-84630000I0J51000D01*
G01*
X211219000Y-83030000D01*
G75*
G02*
X211270000Y-82979000I51000J0D01*
G01*
X212870000Y-82979000D01*
G75*
G02*
X212921000Y-83030000I0J-51000D01*
G01*
G37*
G36*
G01*
X225957666Y-83030000D02*
X225957666Y-84630000D01*
G75*
G02*
X225906666Y-84681000I-51000J0D01*
G01*
X224306666Y-84681000D01*
G75*
G02*
X224255666Y-84630000I0J51000D01*
G01*
X224255666Y-83030000D01*
G75*
G02*
X224306666Y-82979000I51000J0D01*
G01*
X225906666Y-82979000D01*
G75*
G02*
X225957666Y-83030000I0J-51000D01*
G01*
G37*
X217486666Y-66050000D03*
X225106666Y-81290000D03*
X217486666Y-68590000D03*
X225106666Y-78750000D03*
X217486666Y-71130000D03*
X225106666Y-76210000D03*
X217486666Y-73670000D03*
X225106666Y-73670000D03*
X217486666Y-76210000D03*
X225106666Y-71130000D03*
X217486666Y-78750000D03*
X225106666Y-68590000D03*
X217486666Y-81290000D03*
X225106666Y-66050000D03*
X217486666Y-83830000D03*
X230523332Y-83830000D03*
X238143332Y-66050000D03*
X230523332Y-81290000D03*
X238143332Y-68590000D03*
X230523332Y-78750000D03*
X238143332Y-71130000D03*
X230523332Y-76210000D03*
X238143332Y-73670000D03*
X230523332Y-73670000D03*
X238143332Y-76210000D03*
X230523332Y-71130000D03*
X238143332Y-78750000D03*
X230523332Y-68590000D03*
X238143332Y-81290000D03*
X230523332Y-66050000D03*
G36*
G01*
X238994332Y-83030000D02*
X238994332Y-84630000D01*
G75*
G02*
X238943332Y-84681000I-51000J0D01*
G01*
X237343332Y-84681000D01*
G75*
G02*
X237292332Y-84630000I0J51000D01*
G01*
X237292332Y-83030000D01*
G75*
G02*
X237343332Y-82979000I51000J0D01*
G01*
X238943332Y-82979000D01*
G75*
G02*
X238994332Y-83030000I0J-51000D01*
G01*
G37*
X91360000Y-89410000D03*
X98980000Y-71630000D03*
X91360000Y-86870000D03*
X98980000Y-74170000D03*
X91360000Y-84330000D03*
X98980000Y-76710000D03*
X91360000Y-81790000D03*
X98980000Y-79250000D03*
X91360000Y-79250000D03*
X98980000Y-81790000D03*
X91360000Y-76710000D03*
X98980000Y-84330000D03*
X91360000Y-74170000D03*
X98980000Y-86870000D03*
X91360000Y-71630000D03*
G36*
G01*
X99831000Y-88610000D02*
X99831000Y-90210000D01*
G75*
G02*
X99780000Y-90261000I-51000J0D01*
G01*
X98180000Y-90261000D01*
G75*
G02*
X98129000Y-90210000I0J51000D01*
G01*
X98129000Y-88610000D01*
G75*
G02*
X98180000Y-88559000I51000J0D01*
G01*
X99780000Y-88559000D01*
G75*
G02*
X99831000Y-88610000I0J-51000D01*
G01*
G37*
G36*
G01*
X132791000Y-89330000D02*
X132791000Y-90930000D01*
G75*
G02*
X132740000Y-90981000I-51000J0D01*
G01*
X131140000Y-90981000D01*
G75*
G02*
X131089000Y-90930000I0J51000D01*
G01*
X131089000Y-89330000D01*
G75*
G02*
X131140000Y-89279000I51000J0D01*
G01*
X132740000Y-89279000D01*
G75*
G02*
X132791000Y-89330000I0J-51000D01*
G01*
G37*
X124320000Y-72350000D03*
X131940000Y-87590000D03*
X124320000Y-74890000D03*
X131940000Y-85050000D03*
X124320000Y-77430000D03*
X131940000Y-82510000D03*
X124320000Y-79970000D03*
X131940000Y-79970000D03*
X124320000Y-82510000D03*
X131940000Y-77430000D03*
X124320000Y-85050000D03*
X131940000Y-74890000D03*
X124320000Y-87590000D03*
X131940000Y-72350000D03*
X124320000Y-90130000D03*
X159790000Y-90790000D03*
X167410000Y-73010000D03*
X159790000Y-88250000D03*
X167410000Y-75550000D03*
X159790000Y-85710000D03*
X167410000Y-78090000D03*
X159790000Y-83170000D03*
X167410000Y-80630000D03*
X159790000Y-80630000D03*
X167410000Y-83170000D03*
X159790000Y-78090000D03*
X167410000Y-85710000D03*
X159790000Y-75550000D03*
X167410000Y-88250000D03*
X159790000Y-73010000D03*
G36*
G01*
X168261000Y-89990000D02*
X168261000Y-91590000D01*
G75*
G02*
X168210000Y-91641000I-51000J0D01*
G01*
X166610000Y-91641000D01*
G75*
G02*
X166559000Y-91590000I0J51000D01*
G01*
X166559000Y-89990000D01*
G75*
G02*
X166610000Y-89939000I51000J0D01*
G01*
X168210000Y-89939000D01*
G75*
G02*
X168261000Y-89990000I0J-51000D01*
G01*
G37*
G36*
G01*
X99831000Y-115450000D02*
X99831000Y-117050000D01*
G75*
G02*
X99780000Y-117101000I-51000J0D01*
G01*
X98180000Y-117101000D01*
G75*
G02*
X98129000Y-117050000I0J51000D01*
G01*
X98129000Y-115450000D01*
G75*
G02*
X98180000Y-115399000I51000J0D01*
G01*
X99780000Y-115399000D01*
G75*
G02*
X99831000Y-115450000I0J-51000D01*
G01*
G37*
X91360000Y-101010000D03*
X98980000Y-113710000D03*
X91360000Y-103550000D03*
X98980000Y-111170000D03*
X91360000Y-106090000D03*
X98980000Y-108630000D03*
X91360000Y-108630000D03*
X98980000Y-106090000D03*
X91360000Y-111170000D03*
X98980000Y-103550000D03*
X91360000Y-113710000D03*
X98980000Y-101010000D03*
X91360000Y-116250000D03*
X111560000Y-116250000D03*
X119180000Y-101010000D03*
X111560000Y-113710000D03*
X119180000Y-103550000D03*
X111560000Y-111170000D03*
X119180000Y-106090000D03*
X111560000Y-108630000D03*
X119180000Y-108630000D03*
X111560000Y-106090000D03*
X119180000Y-111170000D03*
X111560000Y-103550000D03*
X119180000Y-113710000D03*
X111560000Y-101010000D03*
G36*
G01*
X120031000Y-115450000D02*
X120031000Y-117050000D01*
G75*
G02*
X119980000Y-117101000I-51000J0D01*
G01*
X118380000Y-117101000D01*
G75*
G02*
X118329000Y-117050000I0J51000D01*
G01*
X118329000Y-115450000D01*
G75*
G02*
X118380000Y-115399000I51000J0D01*
G01*
X119980000Y-115399000D01*
G75*
G02*
X120031000Y-115450000I0J-51000D01*
G01*
G37*
X132210000Y-116200000D03*
X139830000Y-100960000D03*
X132210000Y-113660000D03*
X139830000Y-103500000D03*
X132210000Y-111120000D03*
X139830000Y-106040000D03*
X132210000Y-108580000D03*
X139830000Y-108580000D03*
X132210000Y-106040000D03*
X139830000Y-111120000D03*
X132210000Y-103500000D03*
X139830000Y-113660000D03*
X132210000Y-100960000D03*
G36*
G01*
X140681000Y-115400000D02*
X140681000Y-117000000D01*
G75*
G02*
X140630000Y-117051000I-51000J0D01*
G01*
X139030000Y-117051000D01*
G75*
G02*
X138979000Y-117000000I0J51000D01*
G01*
X138979000Y-115400000D01*
G75*
G02*
X139030000Y-115349000I51000J0D01*
G01*
X140630000Y-115349000D01*
G75*
G02*
X140681000Y-115400000I0J-51000D01*
G01*
G37*
X159790000Y-116250000D03*
X167410000Y-101010000D03*
X159790000Y-113710000D03*
X167410000Y-103550000D03*
X159790000Y-111170000D03*
X167410000Y-106090000D03*
X159790000Y-108630000D03*
X167410000Y-108630000D03*
X159790000Y-106090000D03*
X167410000Y-111170000D03*
X159790000Y-103550000D03*
X167410000Y-113710000D03*
X159790000Y-101010000D03*
G36*
G01*
X168261000Y-115450000D02*
X168261000Y-117050000D01*
G75*
G02*
X168210000Y-117101000I-51000J0D01*
G01*
X166610000Y-117101000D01*
G75*
G02*
X166559000Y-117050000I0J51000D01*
G01*
X166559000Y-115450000D01*
G75*
G02*
X166610000Y-115399000I51000J0D01*
G01*
X168210000Y-115399000D01*
G75*
G02*
X168261000Y-115450000I0J-51000D01*
G01*
G37*
G36*
G01*
X190121000Y-115450000D02*
X190121000Y-117050000D01*
G75*
G02*
X190070000Y-117101000I-51000J0D01*
G01*
X188470000Y-117101000D01*
G75*
G02*
X188419000Y-117050000I0J51000D01*
G01*
X188419000Y-115450000D01*
G75*
G02*
X188470000Y-115399000I51000J0D01*
G01*
X190070000Y-115399000D01*
G75*
G02*
X190121000Y-115450000I0J-51000D01*
G01*
G37*
X181650000Y-101010000D03*
X189270000Y-113710000D03*
X181650000Y-103550000D03*
X189270000Y-111170000D03*
X181650000Y-106090000D03*
X189270000Y-108630000D03*
X181650000Y-108630000D03*
X189270000Y-106090000D03*
X181650000Y-111170000D03*
X189270000Y-103550000D03*
X181650000Y-113710000D03*
X189270000Y-101010000D03*
X181650000Y-116250000D03*
X204410000Y-116300000D03*
X212030000Y-98520000D03*
X204410000Y-113760000D03*
X212030000Y-101060000D03*
X204410000Y-111220000D03*
X212030000Y-103600000D03*
X204410000Y-108680000D03*
X212030000Y-106140000D03*
X204410000Y-106140000D03*
X212030000Y-108680000D03*
X204410000Y-103600000D03*
X212030000Y-111220000D03*
X204410000Y-101060000D03*
X212030000Y-113760000D03*
X204410000Y-98520000D03*
G36*
G01*
X212881000Y-115500000D02*
X212881000Y-117100000D01*
G75*
G02*
X212830000Y-117151000I-51000J0D01*
G01*
X211230000Y-117151000D01*
G75*
G02*
X211179000Y-117100000I0J51000D01*
G01*
X211179000Y-115500000D01*
G75*
G02*
X211230000Y-115449000I51000J0D01*
G01*
X212830000Y-115449000D01*
G75*
G02*
X212881000Y-115500000I0J-51000D01*
G01*
G37*
X226095000Y-118870000D03*
X233715000Y-96010000D03*
X226095000Y-116330000D03*
X233715000Y-98550000D03*
X226095000Y-113790000D03*
X233715000Y-101090000D03*
X226095000Y-111250000D03*
X233715000Y-103630000D03*
X226095000Y-108710000D03*
X233715000Y-106170000D03*
X226095000Y-106170000D03*
X233715000Y-108710000D03*
X226095000Y-103630000D03*
X233715000Y-111250000D03*
X226095000Y-101090000D03*
X233715000Y-113790000D03*
X226095000Y-98550000D03*
X233715000Y-116330000D03*
X226095000Y-96010000D03*
G36*
G01*
X234566000Y-118070000D02*
X234566000Y-119670000D01*
G75*
G02*
X234515000Y-119721000I-51000J0D01*
G01*
X232915000Y-119721000D01*
G75*
G02*
X232864000Y-119670000I0J51000D01*
G01*
X232864000Y-118070000D01*
G75*
G02*
X232915000Y-118019000I51000J0D01*
G01*
X234515000Y-118019000D01*
G75*
G02*
X234566000Y-118070000I0J-51000D01*
G01*
G37*
G36*
G01*
X256211000Y-118070000D02*
X256211000Y-119670000D01*
G75*
G02*
X256160000Y-119721000I-51000J0D01*
G01*
X254560000Y-119721000D01*
G75*
G02*
X254509000Y-119670000I0J51000D01*
G01*
X254509000Y-118070000D01*
G75*
G02*
X254560000Y-118019000I51000J0D01*
G01*
X256160000Y-118019000D01*
G75*
G02*
X256211000Y-118070000I0J-51000D01*
G01*
G37*
X247740000Y-96010000D03*
X255360000Y-116330000D03*
X247740000Y-98550000D03*
X255360000Y-113790000D03*
X247740000Y-101090000D03*
X255360000Y-111250000D03*
X247740000Y-103630000D03*
X255360000Y-108710000D03*
X247740000Y-106170000D03*
X255360000Y-106170000D03*
X247740000Y-108710000D03*
X255360000Y-103630000D03*
X247740000Y-111250000D03*
X255360000Y-101090000D03*
X247740000Y-113790000D03*
X255360000Y-98550000D03*
X247740000Y-116330000D03*
X255360000Y-96010000D03*
X247740000Y-118870000D03*
X91360000Y-142750000D03*
X98980000Y-127510000D03*
X91360000Y-140210000D03*
X98980000Y-130050000D03*
X91360000Y-137670000D03*
X98980000Y-132590000D03*
X91360000Y-135130000D03*
X98980000Y-135130000D03*
X91360000Y-132590000D03*
X98980000Y-137670000D03*
X91360000Y-130050000D03*
X98980000Y-140210000D03*
X91360000Y-127510000D03*
G36*
G01*
X99831000Y-141950000D02*
X99831000Y-143550000D01*
G75*
G02*
X99780000Y-143601000I-51000J0D01*
G01*
X98180000Y-143601000D01*
G75*
G02*
X98129000Y-143550000I0J51000D01*
G01*
X98129000Y-141950000D01*
G75*
G02*
X98180000Y-141899000I51000J0D01*
G01*
X99780000Y-141899000D01*
G75*
G02*
X99831000Y-141950000I0J-51000D01*
G01*
G37*
G36*
G01*
X141131000Y-141950000D02*
X141131000Y-143550000D01*
G75*
G02*
X141080000Y-143601000I-51000J0D01*
G01*
X139480000Y-143601000D01*
G75*
G02*
X139429000Y-143550000I0J51000D01*
G01*
X139429000Y-141950000D01*
G75*
G02*
X139480000Y-141899000I51000J0D01*
G01*
X141080000Y-141899000D01*
G75*
G02*
X141131000Y-141950000I0J-51000D01*
G01*
G37*
X132660000Y-127510000D03*
X140280000Y-140210000D03*
X132660000Y-130050000D03*
X140280000Y-137670000D03*
X132660000Y-132590000D03*
X140280000Y-135130000D03*
X132660000Y-135130000D03*
X140280000Y-132590000D03*
X132660000Y-137670000D03*
X140280000Y-130050000D03*
X132660000Y-140210000D03*
X140280000Y-127510000D03*
X132660000Y-142750000D03*
X159790000Y-142750000D03*
X167410000Y-124970000D03*
X159790000Y-140210000D03*
X167410000Y-127510000D03*
X159790000Y-137670000D03*
X167410000Y-130050000D03*
X159790000Y-135130000D03*
X167410000Y-132590000D03*
X159790000Y-132590000D03*
X167410000Y-135130000D03*
X159790000Y-130050000D03*
X167410000Y-137670000D03*
X159790000Y-127510000D03*
X167410000Y-140210000D03*
X159790000Y-124970000D03*
G36*
G01*
X168261000Y-141950000D02*
X168261000Y-143550000D01*
G75*
G02*
X168210000Y-143601000I-51000J0D01*
G01*
X166610000Y-143601000D01*
G75*
G02*
X166559000Y-143550000I0J51000D01*
G01*
X166559000Y-141950000D01*
G75*
G02*
X166610000Y-141899000I51000J0D01*
G01*
X168210000Y-141899000D01*
G75*
G02*
X168261000Y-141950000I0J-51000D01*
G01*
G37*
M02*
