G04 #@! TF.GenerationSoftware,KiCad,Pcbnew,5.1.8-5.1.8*
G04 #@! TF.CreationDate,2021-03-27T17:25:53-07:00*
G04 #@! TF.ProjectId,1066,31303636-2e6b-4696-9361-645f70636258,rev?*
G04 #@! TF.SameCoordinates,Original*
G04 #@! TF.FileFunction,Profile,NP*
%FSLAX46Y46*%
G04 Gerber Fmt 4.6, Leading zero omitted, Abs format (unit mm)*
G04 Created by KiCad (PCBNEW 5.1.8-5.1.8) date 2021-03-27 17:25:53*
%MOMM*%
%LPD*%
G01*
G04 APERTURE LIST*
G04 #@! TA.AperFunction,Profile*
%ADD10C,0.050000*%
G04 #@! TD*
%ADD11C,0.050000*%
G04 APERTURE END LIST*
D10*
X262790000Y-29810000D02*
G75*
G03*
X262790000Y-29810000I-2230120J0D01*
G01*
X262790120Y-148599880D02*
G75*
G03*
X262790120Y-148599880I-2230120J0D01*
G01*
X44350000Y-148600000D02*
G75*
G03*
X44350000Y-148600000I-2230120J0D01*
G01*
X265650000Y-25670000D02*
X37030000Y-25670000D01*
X265650000Y-152650000D02*
X265650000Y-25670000D01*
X234990000Y-152650000D02*
X265650000Y-152650000D01*
X234990000Y-165360000D02*
X234990000Y-152650000D01*
X169250000Y-165360000D02*
X234990000Y-165360000D01*
X169250000Y-152660000D02*
X169250000Y-165360000D01*
X37020000Y-152660000D02*
X169250000Y-152660000D01*
X37030000Y-25670000D02*
X37020000Y-152660000D01*
D11*
X235405714Y-168902380D02*
X234834285Y-168902380D01*
X235120000Y-168902380D02*
X235120000Y-167902380D01*
X235024761Y-168045238D01*
X234929523Y-168140476D01*
X234834285Y-168188095D01*
X168444285Y-168265714D02*
X168444285Y-168932380D01*
X168206190Y-167884761D02*
X167968095Y-168599047D01*
X168587142Y-168599047D01*
X169015714Y-168932380D02*
X169206190Y-168932380D01*
X169301428Y-168884761D01*
X169349047Y-168837142D01*
X169444285Y-168694285D01*
X169491904Y-168503809D01*
X169491904Y-168122857D01*
X169444285Y-168027619D01*
X169396666Y-167980000D01*
X169301428Y-167932380D01*
X169110952Y-167932380D01*
X169015714Y-167980000D01*
X168968095Y-168027619D01*
X168920476Y-168122857D01*
X168920476Y-168360952D01*
X168968095Y-168456190D01*
X169015714Y-168503809D01*
X169110952Y-168551428D01*
X169301428Y-168551428D01*
X169396666Y-168503809D01*
X169444285Y-168456190D01*
X169491904Y-168360952D01*
X233364285Y-168067619D02*
X233411904Y-168020000D01*
X233507142Y-167972380D01*
X233745238Y-167972380D01*
X233840476Y-168020000D01*
X233888095Y-168067619D01*
X233935714Y-168162857D01*
X233935714Y-168258095D01*
X233888095Y-168400952D01*
X233316666Y-168972380D01*
X233935714Y-168972380D01*
X170331904Y-167932380D02*
X169855714Y-167932380D01*
X169808095Y-168408571D01*
X169855714Y-168360952D01*
X169950952Y-168313333D01*
X170189047Y-168313333D01*
X170284285Y-168360952D01*
X170331904Y-168408571D01*
X170379523Y-168503809D01*
X170379523Y-168741904D01*
X170331904Y-168837142D01*
X170284285Y-168884761D01*
X170189047Y-168932380D01*
X169950952Y-168932380D01*
X169855714Y-168884761D01*
X169808095Y-168837142D01*
X170998571Y-167932380D02*
X171093809Y-167932380D01*
X171189047Y-167980000D01*
X171236666Y-168027619D01*
X171284285Y-168122857D01*
X171331904Y-168313333D01*
X171331904Y-168551428D01*
X171284285Y-168741904D01*
X171236666Y-168837142D01*
X171189047Y-168884761D01*
X171093809Y-168932380D01*
X170998571Y-168932380D01*
X170903333Y-168884761D01*
X170855714Y-168837142D01*
X170808095Y-168741904D01*
X170760476Y-168551428D01*
X170760476Y-168313333D01*
X170808095Y-168122857D01*
X170855714Y-168027619D01*
X170903333Y-167980000D01*
X170998571Y-167932380D01*
M02*
