G04 #@! TF.GenerationSoftware,KiCad,Pcbnew,5.1.8-5.1.8*
G04 #@! TF.CreationDate,2021-03-27T17:25:53-07:00*
G04 #@! TF.ProjectId,1066,31303636-2e6b-4696-9361-645f70636258,rev?*
G04 #@! TF.SameCoordinates,Original*
G04 #@! TF.FileFunction,Copper,L1,Top*
G04 #@! TF.FilePolarity,Positive*
%FSLAX46Y46*%
G04 Gerber Fmt 4.6, Leading zero omitted, Abs format (unit mm)*
G04 Created by KiCad (PCBNEW 5.1.8-5.1.8) date 2021-03-27 17:25:53*
%MOMM*%
%LPD*%
G01*
G04 APERTURE LIST*
G04 #@! TA.AperFunction,ComponentPad*
%ADD10R,1.700000X1.700000*%
G04 #@! TD*
G04 #@! TA.AperFunction,ComponentPad*
%ADD11O,1.700000X1.700000*%
G04 #@! TD*
G04 #@! TA.AperFunction,ComponentPad*
%ADD12R,2.000000X1.905000*%
G04 #@! TD*
G04 #@! TA.AperFunction,ComponentPad*
%ADD13O,2.000000X1.905000*%
G04 #@! TD*
G04 #@! TA.AperFunction,ComponentPad*
%ADD14C,1.600000*%
G04 #@! TD*
G04 #@! TA.AperFunction,ComponentPad*
%ADD15O,1.600000X1.600000*%
G04 #@! TD*
G04 #@! TA.AperFunction,ComponentPad*
%ADD16R,1.600000X1.600000*%
G04 #@! TD*
G04 #@! TA.AperFunction,ComponentPad*
%ADD17C,2.000000*%
G04 #@! TD*
G04 #@! TA.AperFunction,ComponentPad*
%ADD18C,3.000000*%
G04 #@! TD*
G04 #@! TA.AperFunction,ComponentPad*
%ADD19O,1.400000X1.400000*%
G04 #@! TD*
G04 #@! TA.AperFunction,ComponentPad*
%ADD20C,1.400000*%
G04 #@! TD*
G04 #@! TA.AperFunction,SMDPad,CuDef*
%ADD21R,1.270000X10.160000*%
G04 #@! TD*
G04 #@! TA.AperFunction,ComponentPad*
%ADD22R,2.400000X2.400000*%
G04 #@! TD*
G04 #@! TA.AperFunction,ComponentPad*
%ADD23O,2.400000X2.400000*%
G04 #@! TD*
G04 #@! TA.AperFunction,ComponentPad*
%ADD24C,2.400000*%
G04 #@! TD*
G04 #@! TA.AperFunction,ViaPad*
%ADD25C,0.800000*%
G04 #@! TD*
G04 #@! TA.AperFunction,Conductor*
%ADD26C,1.270000*%
G04 #@! TD*
G04 #@! TA.AperFunction,Conductor*
%ADD27C,0.250000*%
G04 #@! TD*
G04 #@! TA.AperFunction,Conductor*
%ADD28C,0.254000*%
G04 #@! TD*
G04 #@! TA.AperFunction,Conductor*
%ADD29C,0.100000*%
G04 #@! TD*
G04 APERTURE END LIST*
D10*
X129170000Y-32410000D03*
D11*
X129170000Y-34950000D03*
X131710000Y-32410000D03*
X131710000Y-34950000D03*
X134250000Y-32410000D03*
X134250000Y-34950000D03*
X136790000Y-32410000D03*
X136790000Y-34950000D03*
X139330000Y-32410000D03*
X139330000Y-34950000D03*
X141870000Y-32410000D03*
X141870000Y-34950000D03*
X144410000Y-32410000D03*
X144410000Y-34950000D03*
X146950000Y-32410000D03*
X146950000Y-34950000D03*
X149490000Y-32410000D03*
X149490000Y-34950000D03*
X152030000Y-32410000D03*
X152030000Y-34950000D03*
X154570000Y-32410000D03*
X154570000Y-34950000D03*
X157110000Y-32410000D03*
X157110000Y-34950000D03*
X159650000Y-32410000D03*
X159650000Y-34950000D03*
X162190000Y-32410000D03*
X162190000Y-34950000D03*
X164730000Y-32410000D03*
X164730000Y-34950000D03*
X167270000Y-32410000D03*
X167270000Y-34950000D03*
X169810000Y-32410000D03*
X169810000Y-34950000D03*
X172350000Y-32410000D03*
X172350000Y-34950000D03*
X174890000Y-32410000D03*
X174890000Y-34950000D03*
X177430000Y-32410000D03*
X177430000Y-34950000D03*
D12*
X68200000Y-111220000D03*
D13*
X68200000Y-108680000D03*
X68200000Y-106140000D03*
D14*
X100780000Y-67330000D03*
X108280000Y-67330000D03*
D15*
X91360000Y-62970000D03*
X98980000Y-45190000D03*
X91360000Y-60430000D03*
X98980000Y-47730000D03*
X91360000Y-57890000D03*
X98980000Y-50270000D03*
X91360000Y-55350000D03*
X98980000Y-52810000D03*
X91360000Y-52810000D03*
X98980000Y-55350000D03*
X91360000Y-50270000D03*
X98980000Y-57890000D03*
X91360000Y-47730000D03*
X98980000Y-60430000D03*
X91360000Y-45190000D03*
D16*
X98980000Y-62970000D03*
D14*
X96390000Y-67360000D03*
X91390000Y-67360000D03*
X129330000Y-66860000D03*
X124330000Y-66860000D03*
X164790000Y-66690000D03*
X159790000Y-66690000D03*
X204420000Y-60990000D03*
X209420000Y-60990000D03*
X217520000Y-61080000D03*
X222520000Y-61080000D03*
X230460000Y-61080000D03*
X235460000Y-61080000D03*
X243620000Y-61160000D03*
X248620000Y-61160000D03*
X204440000Y-88750000D03*
X209440000Y-88750000D03*
X217520000Y-88760000D03*
X222520000Y-88760000D03*
X230520000Y-88760000D03*
X235520000Y-88760000D03*
X243730000Y-88750000D03*
X248730000Y-88750000D03*
X96340000Y-93010000D03*
X91340000Y-93010000D03*
X129310000Y-93910000D03*
X124310000Y-93910000D03*
X164790000Y-94440000D03*
X159790000Y-94440000D03*
X96350000Y-120020000D03*
X91350000Y-120020000D03*
X116420000Y-120030000D03*
X111420000Y-120030000D03*
X137200000Y-120020000D03*
X132200000Y-120020000D03*
X164650000Y-120030000D03*
X159650000Y-120030000D03*
X186620000Y-121220000D03*
X181620000Y-121220000D03*
X209380000Y-121220000D03*
X204380000Y-121220000D03*
X231065000Y-123790000D03*
X226065000Y-123790000D03*
X252710000Y-123790000D03*
X247710000Y-123790000D03*
X96390000Y-146680000D03*
X91390000Y-146680000D03*
X137620000Y-146610000D03*
X132620000Y-146610000D03*
X164800000Y-146680000D03*
X159800000Y-146680000D03*
D15*
X230523332Y-56200000D03*
X238143332Y-38420000D03*
X230523332Y-53660000D03*
X238143332Y-40960000D03*
X230523332Y-51120000D03*
X238143332Y-43500000D03*
X230523332Y-48580000D03*
X238143332Y-46040000D03*
X230523332Y-46040000D03*
X238143332Y-48580000D03*
X230523332Y-43500000D03*
X238143332Y-51120000D03*
X230523332Y-40960000D03*
X238143332Y-53660000D03*
X230523332Y-38420000D03*
D16*
X238143332Y-56200000D03*
X251180000Y-83990000D03*
D15*
X243560000Y-66210000D03*
X251180000Y-81450000D03*
X243560000Y-68750000D03*
X251180000Y-78910000D03*
X243560000Y-71290000D03*
X251180000Y-76370000D03*
X243560000Y-73830000D03*
X251180000Y-73830000D03*
X243560000Y-76370000D03*
X251180000Y-71290000D03*
X243560000Y-78910000D03*
X251180000Y-68750000D03*
X243560000Y-81450000D03*
X251180000Y-66210000D03*
X243560000Y-83990000D03*
D17*
X68830000Y-126010000D03*
X78830000Y-126010000D03*
D18*
X76260000Y-48150000D03*
X71180000Y-48150000D03*
X66100000Y-48140000D03*
D19*
X66150000Y-53110000D03*
D20*
X73770000Y-53110000D03*
D19*
X101830000Y-52880000D03*
D20*
X109450000Y-52880000D03*
D19*
X103370000Y-63090000D03*
D20*
X110990000Y-63090000D03*
D19*
X103490000Y-70250000D03*
D20*
X111110000Y-70250000D03*
D19*
X120900000Y-90150000D03*
D20*
X113280000Y-90150000D03*
D19*
X111680000Y-127510000D03*
D20*
X119300000Y-127510000D03*
D19*
X119290000Y-130692500D03*
D20*
X111670000Y-130692500D03*
D19*
X111670000Y-133835000D03*
D20*
X119290000Y-133835000D03*
D19*
X111670000Y-136977500D03*
D20*
X119290000Y-136977500D03*
D19*
X111670000Y-140120000D03*
D20*
X119290000Y-140120000D03*
D19*
X139540000Y-97210000D03*
D20*
X147160000Y-97210000D03*
D19*
X177930000Y-43830000D03*
D20*
X185550000Y-43830000D03*
D19*
X177940000Y-47650000D03*
D20*
X185560000Y-47650000D03*
D19*
X177940000Y-51460000D03*
D20*
X185560000Y-51460000D03*
D19*
X177940000Y-55270000D03*
D20*
X185560000Y-55270000D03*
D19*
X177880000Y-70560000D03*
D20*
X185500000Y-70560000D03*
D19*
X177880000Y-73916666D03*
D20*
X185500000Y-73916666D03*
D19*
X177880000Y-77273332D03*
D20*
X185500000Y-77273332D03*
D19*
X177880000Y-80629998D03*
D20*
X185500000Y-80629998D03*
D19*
X185500000Y-83986664D03*
D20*
X177880000Y-83986664D03*
D19*
X185500000Y-87343330D03*
D20*
X177880000Y-87343330D03*
D19*
X185460000Y-90700000D03*
D20*
X177840000Y-90700000D03*
D19*
X185520000Y-93480000D03*
D20*
X193140000Y-93480000D03*
D19*
X185530000Y-95940000D03*
D20*
X193150000Y-95940000D03*
D21*
X232540000Y-160050000D03*
X230000000Y-160050000D03*
X227460000Y-160050000D03*
X224920000Y-160050000D03*
X222380000Y-160050000D03*
X219840000Y-160050000D03*
X217300000Y-160050000D03*
X214760000Y-160050000D03*
X212220000Y-160050000D03*
X171580000Y-160050000D03*
X209680000Y-160050000D03*
X207140000Y-160050000D03*
X204600000Y-160050000D03*
X202060000Y-160050000D03*
X199520000Y-160050000D03*
X196980000Y-160050000D03*
X194440000Y-160050000D03*
X191900000Y-160050000D03*
X189360000Y-160050000D03*
X186820000Y-160050000D03*
X184280000Y-160050000D03*
X181740000Y-160050000D03*
X179200000Y-160050000D03*
X176660000Y-160050000D03*
X174120000Y-160050000D03*
D22*
X79840000Y-73090000D03*
D23*
X51840000Y-73090000D03*
D10*
X125510000Y-117790000D03*
D11*
X125510000Y-115250000D03*
X125510000Y-112710000D03*
D24*
X79800000Y-80750000D03*
D23*
X79800000Y-111230000D03*
D16*
X131960000Y-62890000D03*
D15*
X124340000Y-45110000D03*
X131960000Y-60350000D03*
X124340000Y-47650000D03*
X131960000Y-57810000D03*
X124340000Y-50190000D03*
X131960000Y-55270000D03*
X124340000Y-52730000D03*
X131960000Y-52730000D03*
X124340000Y-55270000D03*
X131960000Y-50190000D03*
X124340000Y-57810000D03*
X131960000Y-47650000D03*
X124340000Y-60350000D03*
X131960000Y-45110000D03*
X124340000Y-62890000D03*
D16*
X167410000Y-62870000D03*
D15*
X159790000Y-45090000D03*
X167410000Y-60330000D03*
X159790000Y-47630000D03*
X167410000Y-57790000D03*
X159790000Y-50170000D03*
X167410000Y-55250000D03*
X159790000Y-52710000D03*
X167410000Y-52710000D03*
X159790000Y-55250000D03*
X167410000Y-50170000D03*
X159790000Y-57790000D03*
X167410000Y-47630000D03*
X159790000Y-60330000D03*
X167410000Y-45090000D03*
X159790000Y-62870000D03*
D16*
X212070000Y-55990000D03*
D15*
X204450000Y-38210000D03*
X212070000Y-53450000D03*
X204450000Y-40750000D03*
X212070000Y-50910000D03*
X204450000Y-43290000D03*
X212070000Y-48370000D03*
X204450000Y-45830000D03*
X212070000Y-45830000D03*
X204450000Y-48370000D03*
X212070000Y-43290000D03*
X204450000Y-50910000D03*
X212070000Y-40750000D03*
X204450000Y-53450000D03*
X212070000Y-38210000D03*
X204450000Y-55990000D03*
D16*
X225106666Y-56200000D03*
D15*
X217486666Y-38420000D03*
X225106666Y-53660000D03*
X217486666Y-40960000D03*
X225106666Y-51120000D03*
X217486666Y-43500000D03*
X225106666Y-48580000D03*
X217486666Y-46040000D03*
X225106666Y-46040000D03*
X217486666Y-48580000D03*
X225106666Y-43500000D03*
X217486666Y-51120000D03*
X225106666Y-40960000D03*
X217486666Y-53660000D03*
X225106666Y-38420000D03*
X217486666Y-56200000D03*
D16*
X251180000Y-56170000D03*
D15*
X243560000Y-38390000D03*
X251180000Y-53630000D03*
X243560000Y-40930000D03*
X251180000Y-51090000D03*
X243560000Y-43470000D03*
X251180000Y-48550000D03*
X243560000Y-46010000D03*
X251180000Y-46010000D03*
X243560000Y-48550000D03*
X251180000Y-43470000D03*
X243560000Y-51090000D03*
X251180000Y-40930000D03*
X243560000Y-53630000D03*
X251180000Y-38390000D03*
X243560000Y-56170000D03*
X204450000Y-83830000D03*
X212070000Y-66050000D03*
X204450000Y-81290000D03*
X212070000Y-68590000D03*
X204450000Y-78750000D03*
X212070000Y-71130000D03*
X204450000Y-76210000D03*
X212070000Y-73670000D03*
X204450000Y-73670000D03*
X212070000Y-76210000D03*
X204450000Y-71130000D03*
X212070000Y-78750000D03*
X204450000Y-68590000D03*
X212070000Y-81290000D03*
X204450000Y-66050000D03*
D16*
X212070000Y-83830000D03*
X225106666Y-83830000D03*
D15*
X217486666Y-66050000D03*
X225106666Y-81290000D03*
X217486666Y-68590000D03*
X225106666Y-78750000D03*
X217486666Y-71130000D03*
X225106666Y-76210000D03*
X217486666Y-73670000D03*
X225106666Y-73670000D03*
X217486666Y-76210000D03*
X225106666Y-71130000D03*
X217486666Y-78750000D03*
X225106666Y-68590000D03*
X217486666Y-81290000D03*
X225106666Y-66050000D03*
X217486666Y-83830000D03*
X230523332Y-83830000D03*
X238143332Y-66050000D03*
X230523332Y-81290000D03*
X238143332Y-68590000D03*
X230523332Y-78750000D03*
X238143332Y-71130000D03*
X230523332Y-76210000D03*
X238143332Y-73670000D03*
X230523332Y-73670000D03*
X238143332Y-76210000D03*
X230523332Y-71130000D03*
X238143332Y-78750000D03*
X230523332Y-68590000D03*
X238143332Y-81290000D03*
X230523332Y-66050000D03*
D16*
X238143332Y-83830000D03*
D15*
X91360000Y-89410000D03*
X98980000Y-71630000D03*
X91360000Y-86870000D03*
X98980000Y-74170000D03*
X91360000Y-84330000D03*
X98980000Y-76710000D03*
X91360000Y-81790000D03*
X98980000Y-79250000D03*
X91360000Y-79250000D03*
X98980000Y-81790000D03*
X91360000Y-76710000D03*
X98980000Y-84330000D03*
X91360000Y-74170000D03*
X98980000Y-86870000D03*
X91360000Y-71630000D03*
D16*
X98980000Y-89410000D03*
X131940000Y-90130000D03*
D15*
X124320000Y-72350000D03*
X131940000Y-87590000D03*
X124320000Y-74890000D03*
X131940000Y-85050000D03*
X124320000Y-77430000D03*
X131940000Y-82510000D03*
X124320000Y-79970000D03*
X131940000Y-79970000D03*
X124320000Y-82510000D03*
X131940000Y-77430000D03*
X124320000Y-85050000D03*
X131940000Y-74890000D03*
X124320000Y-87590000D03*
X131940000Y-72350000D03*
X124320000Y-90130000D03*
X159790000Y-90790000D03*
X167410000Y-73010000D03*
X159790000Y-88250000D03*
X167410000Y-75550000D03*
X159790000Y-85710000D03*
X167410000Y-78090000D03*
X159790000Y-83170000D03*
X167410000Y-80630000D03*
X159790000Y-80630000D03*
X167410000Y-83170000D03*
X159790000Y-78090000D03*
X167410000Y-85710000D03*
X159790000Y-75550000D03*
X167410000Y-88250000D03*
X159790000Y-73010000D03*
D16*
X167410000Y-90790000D03*
X98980000Y-116250000D03*
D15*
X91360000Y-101010000D03*
X98980000Y-113710000D03*
X91360000Y-103550000D03*
X98980000Y-111170000D03*
X91360000Y-106090000D03*
X98980000Y-108630000D03*
X91360000Y-108630000D03*
X98980000Y-106090000D03*
X91360000Y-111170000D03*
X98980000Y-103550000D03*
X91360000Y-113710000D03*
X98980000Y-101010000D03*
X91360000Y-116250000D03*
X111560000Y-116250000D03*
X119180000Y-101010000D03*
X111560000Y-113710000D03*
X119180000Y-103550000D03*
X111560000Y-111170000D03*
X119180000Y-106090000D03*
X111560000Y-108630000D03*
X119180000Y-108630000D03*
X111560000Y-106090000D03*
X119180000Y-111170000D03*
X111560000Y-103550000D03*
X119180000Y-113710000D03*
X111560000Y-101010000D03*
D16*
X119180000Y-116250000D03*
D15*
X132210000Y-116200000D03*
X139830000Y-100960000D03*
X132210000Y-113660000D03*
X139830000Y-103500000D03*
X132210000Y-111120000D03*
X139830000Y-106040000D03*
X132210000Y-108580000D03*
X139830000Y-108580000D03*
X132210000Y-106040000D03*
X139830000Y-111120000D03*
X132210000Y-103500000D03*
X139830000Y-113660000D03*
X132210000Y-100960000D03*
D16*
X139830000Y-116200000D03*
D15*
X159790000Y-116250000D03*
X167410000Y-101010000D03*
X159790000Y-113710000D03*
X167410000Y-103550000D03*
X159790000Y-111170000D03*
X167410000Y-106090000D03*
X159790000Y-108630000D03*
X167410000Y-108630000D03*
X159790000Y-106090000D03*
X167410000Y-111170000D03*
X159790000Y-103550000D03*
X167410000Y-113710000D03*
X159790000Y-101010000D03*
D16*
X167410000Y-116250000D03*
X189270000Y-116250000D03*
D15*
X181650000Y-101010000D03*
X189270000Y-113710000D03*
X181650000Y-103550000D03*
X189270000Y-111170000D03*
X181650000Y-106090000D03*
X189270000Y-108630000D03*
X181650000Y-108630000D03*
X189270000Y-106090000D03*
X181650000Y-111170000D03*
X189270000Y-103550000D03*
X181650000Y-113710000D03*
X189270000Y-101010000D03*
X181650000Y-116250000D03*
X204410000Y-116300000D03*
X212030000Y-98520000D03*
X204410000Y-113760000D03*
X212030000Y-101060000D03*
X204410000Y-111220000D03*
X212030000Y-103600000D03*
X204410000Y-108680000D03*
X212030000Y-106140000D03*
X204410000Y-106140000D03*
X212030000Y-108680000D03*
X204410000Y-103600000D03*
X212030000Y-111220000D03*
X204410000Y-101060000D03*
X212030000Y-113760000D03*
X204410000Y-98520000D03*
D16*
X212030000Y-116300000D03*
D15*
X226095000Y-118870000D03*
X233715000Y-96010000D03*
X226095000Y-116330000D03*
X233715000Y-98550000D03*
X226095000Y-113790000D03*
X233715000Y-101090000D03*
X226095000Y-111250000D03*
X233715000Y-103630000D03*
X226095000Y-108710000D03*
X233715000Y-106170000D03*
X226095000Y-106170000D03*
X233715000Y-108710000D03*
X226095000Y-103630000D03*
X233715000Y-111250000D03*
X226095000Y-101090000D03*
X233715000Y-113790000D03*
X226095000Y-98550000D03*
X233715000Y-116330000D03*
X226095000Y-96010000D03*
D16*
X233715000Y-118870000D03*
X255360000Y-118870000D03*
D15*
X247740000Y-96010000D03*
X255360000Y-116330000D03*
X247740000Y-98550000D03*
X255360000Y-113790000D03*
X247740000Y-101090000D03*
X255360000Y-111250000D03*
X247740000Y-103630000D03*
X255360000Y-108710000D03*
X247740000Y-106170000D03*
X255360000Y-106170000D03*
X247740000Y-108710000D03*
X255360000Y-103630000D03*
X247740000Y-111250000D03*
X255360000Y-101090000D03*
X247740000Y-113790000D03*
X255360000Y-98550000D03*
X247740000Y-116330000D03*
X255360000Y-96010000D03*
X247740000Y-118870000D03*
X91360000Y-142750000D03*
X98980000Y-127510000D03*
X91360000Y-140210000D03*
X98980000Y-130050000D03*
X91360000Y-137670000D03*
X98980000Y-132590000D03*
X91360000Y-135130000D03*
X98980000Y-135130000D03*
X91360000Y-132590000D03*
X98980000Y-137670000D03*
X91360000Y-130050000D03*
X98980000Y-140210000D03*
X91360000Y-127510000D03*
D16*
X98980000Y-142750000D03*
X140280000Y-142750000D03*
D15*
X132660000Y-127510000D03*
X140280000Y-140210000D03*
X132660000Y-130050000D03*
X140280000Y-137670000D03*
X132660000Y-132590000D03*
X140280000Y-135130000D03*
X132660000Y-135130000D03*
X140280000Y-132590000D03*
X132660000Y-137670000D03*
X140280000Y-130050000D03*
X132660000Y-140210000D03*
X140280000Y-127510000D03*
X132660000Y-142750000D03*
X159790000Y-142750000D03*
X167410000Y-124970000D03*
X159790000Y-140210000D03*
X167410000Y-127510000D03*
X159790000Y-137670000D03*
X167410000Y-130050000D03*
X159790000Y-135130000D03*
X167410000Y-132590000D03*
X159790000Y-132590000D03*
X167410000Y-135130000D03*
X159790000Y-130050000D03*
X167410000Y-137670000D03*
X159790000Y-127510000D03*
X167410000Y-140210000D03*
X159790000Y-124970000D03*
D16*
X167410000Y-142750000D03*
D25*
X226220000Y-150430000D03*
X226220000Y-146040000D03*
X246290000Y-35940000D03*
X233690000Y-35950000D03*
X220480000Y-35940000D03*
X207380000Y-35960000D03*
X177880000Y-121290000D03*
X164790000Y-37830000D03*
X213430000Y-150430000D03*
X205310000Y-150430000D03*
X43180000Y-63500000D03*
X53340000Y-63500000D03*
X73660000Y-63500000D03*
X43180000Y-137160000D03*
X53340000Y-137160000D03*
X63500000Y-137160000D03*
X73660000Y-137160000D03*
X43180000Y-101600000D03*
X53340000Y-101600000D03*
X63500000Y-101600000D03*
X73660000Y-101600000D03*
X43180000Y-83820000D03*
X53340000Y-83820000D03*
X63500000Y-83820000D03*
X73660000Y-83820000D03*
X43180000Y-119380000D03*
X53340000Y-119380000D03*
X63500000Y-119380000D03*
X73660000Y-119380000D03*
X48260000Y-73660000D03*
X58990000Y-73090000D03*
X68580000Y-73660000D03*
X48260000Y-93980000D03*
X58420000Y-93980000D03*
X68580000Y-93980000D03*
X48260000Y-127000000D03*
X58420000Y-127000000D03*
X71120000Y-68580000D03*
X55880000Y-68580000D03*
X134040000Y-97200000D03*
X129100000Y-133590000D03*
X124030000Y-96940000D03*
X214220000Y-109990000D03*
X218950000Y-126920000D03*
X175060000Y-123880000D03*
X175060000Y-109050000D03*
X230000000Y-153000000D03*
X231900000Y-128000000D03*
X227450000Y-152970000D03*
X227570000Y-144200000D03*
X149960000Y-144700000D03*
X149970000Y-113700000D03*
X218830000Y-152990000D03*
X217960000Y-112500000D03*
X216910000Y-152990000D03*
X216940000Y-124500000D03*
X113730000Y-124380000D03*
X212195000Y-152990000D03*
X212190000Y-138010000D03*
X152550000Y-83790000D03*
X209670000Y-153000000D03*
X209650000Y-139000000D03*
X150940000Y-84960000D03*
X104574990Y-84320000D03*
X104574990Y-56620000D03*
X171020000Y-112500000D03*
X202000000Y-113710000D03*
X207200000Y-152990000D03*
X203780000Y-151890000D03*
X203780000Y-132110000D03*
X202070000Y-153990000D03*
X201274999Y-102444999D03*
X181490000Y-57760000D03*
X199530000Y-152990000D03*
X196440000Y-106670000D03*
X181970000Y-45730000D03*
X196980000Y-153000000D03*
X180620000Y-49560000D03*
X177470000Y-109200000D03*
X194440000Y-153000000D03*
X194440000Y-136000000D03*
X175830000Y-135130000D03*
X191900000Y-152980000D03*
X191910000Y-126250000D03*
X189360000Y-153000000D03*
X189360000Y-131070000D03*
X186820000Y-152990000D03*
X186810000Y-133720000D03*
X184280000Y-153000000D03*
X184260000Y-127530000D03*
X181740000Y-153000000D03*
X181740000Y-131350000D03*
X179200000Y-152990000D03*
X179200000Y-133850000D03*
X176660000Y-152990000D03*
X176660000Y-137670000D03*
X179894990Y-53310000D03*
X174120000Y-153000000D03*
X173780000Y-109800000D03*
X214750000Y-121660000D03*
X102650000Y-122990000D03*
X195690000Y-139550000D03*
X245310000Y-131640000D03*
X192690000Y-130260000D03*
X244260000Y-133600000D03*
X190210000Y-134240000D03*
X242640000Y-113790000D03*
X242640000Y-132365000D03*
X187740000Y-132740000D03*
X185420000Y-127060000D03*
X237960000Y-132414999D03*
X183057347Y-144617347D03*
X223380000Y-135660000D03*
X241100000Y-135250000D03*
X180300000Y-144980000D03*
X239310000Y-136390000D03*
X177630000Y-145910000D03*
X175410000Y-146890000D03*
X222380000Y-137360000D03*
X119000000Y-32400000D03*
X119000000Y-59120000D03*
X120240000Y-54000000D03*
X107960000Y-129130000D03*
X107970000Y-112410000D03*
X117520000Y-39370000D03*
X134240000Y-39370000D03*
X202540000Y-109970000D03*
X136810000Y-54100000D03*
X200390000Y-109250000D03*
X139330000Y-46370000D03*
X143720000Y-87045000D03*
X183015010Y-78760000D03*
X139320000Y-50170000D03*
X139200000Y-57820000D03*
X143210000Y-66810000D03*
X116980000Y-68980000D03*
X149530000Y-27340000D03*
X134670000Y-72230000D03*
X173500000Y-72990000D03*
X261440000Y-107060000D03*
X261430000Y-53600000D03*
X262480000Y-80690000D03*
X254480000Y-80700000D03*
X155140000Y-28010000D03*
X154530000Y-50140000D03*
X147000000Y-141480000D03*
X219320000Y-30010000D03*
X258580000Y-101510000D03*
X103480000Y-102260000D03*
X153580000Y-56690000D03*
X227490000Y-28010000D03*
X167780000Y-28020000D03*
X172570000Y-59060000D03*
X148550000Y-58480000D03*
X232470000Y-31245000D03*
X146770000Y-61500000D03*
X120290000Y-61500000D03*
X215000000Y-28750000D03*
X185000000Y-29980000D03*
X174440000Y-75050000D03*
X205990000Y-31970000D03*
X117970000Y-65000000D03*
X176010000Y-64990000D03*
X108070000Y-108630000D03*
X106530000Y-60360000D03*
X157820000Y-88960000D03*
X142164999Y-88935001D03*
X152790000Y-69990000D03*
X185730000Y-57750000D03*
X183610000Y-33720000D03*
X177840000Y-101000000D03*
X86500000Y-143490000D03*
X101620000Y-135150000D03*
X101310000Y-120070000D03*
X148930000Y-121420000D03*
X150030000Y-88210000D03*
X155180000Y-60330000D03*
X199980000Y-73700000D03*
X254700000Y-73850000D03*
X200900000Y-76200000D03*
X200900000Y-67320000D03*
X191850000Y-68590000D03*
X200280000Y-40720000D03*
X193000000Y-66050000D03*
X197990000Y-71130000D03*
X253965000Y-51080000D03*
X198990000Y-58230000D03*
X195470000Y-86360000D03*
X87660000Y-97290000D03*
X192470000Y-111230000D03*
X184050000Y-62860000D03*
X151400000Y-62890000D03*
X101000000Y-97400000D03*
X109520000Y-81790000D03*
X109530000Y-73590000D03*
X114340000Y-86870000D03*
X114340000Y-94000000D03*
X157420000Y-111140000D03*
X127047001Y-104912999D03*
X145340000Y-131330000D03*
X143140000Y-126540000D03*
X148280000Y-104810000D03*
X179600000Y-103660000D03*
X179600000Y-97960000D03*
X182720000Y-140650000D03*
X180220000Y-138420000D03*
X224340000Y-108750000D03*
X232540000Y-152990000D03*
X219010000Y-93000000D03*
D26*
X98980000Y-41650000D02*
X98980000Y-45180000D01*
X62480000Y-70520000D02*
X62480000Y-44460000D01*
X62470000Y-70530000D02*
X62480000Y-70520000D01*
X75900000Y-70530000D02*
X62470000Y-70530000D01*
X75910000Y-70540000D02*
X75900000Y-70530000D01*
X75910000Y-138590000D02*
X75910000Y-70540000D01*
X199400000Y-150430000D02*
X199179990Y-150650010D01*
X199179990Y-150650010D02*
X199179990Y-150660010D01*
X199179990Y-150660010D02*
X198350000Y-151490000D01*
X198350000Y-151490000D02*
X88810000Y-151490000D01*
X88810000Y-151490000D02*
X75910000Y-138590000D01*
X88360000Y-41530000D02*
X98400000Y-41530000D01*
X62480000Y-44420000D02*
X62480000Y-41550000D01*
X62480000Y-41550000D02*
X62500000Y-41530000D01*
X243560000Y-61140000D02*
X243620000Y-61200000D01*
X241380000Y-63440000D02*
X243620000Y-61200000D01*
X204420000Y-61030000D02*
X204420000Y-61040000D01*
X204420000Y-61040000D02*
X206820000Y-63440000D01*
X217520000Y-62251370D02*
X217530000Y-62261370D01*
X217520000Y-61120000D02*
X217520000Y-62251370D01*
X217530000Y-63350000D02*
X217620000Y-63440000D01*
X217530000Y-62261370D02*
X217530000Y-63350000D01*
X206820000Y-63440000D02*
X217620000Y-63440000D01*
X217620000Y-63440000D02*
X230460000Y-63440000D01*
X230460000Y-63440000D02*
X241380000Y-63440000D01*
X101810000Y-41530000D02*
X98400000Y-41530000D01*
X108380000Y-34960000D02*
X101810000Y-41530000D01*
X129170000Y-34950000D02*
X129160000Y-34960000D01*
X129160000Y-34960000D02*
X108380000Y-34960000D01*
X162190000Y-37890000D02*
X162200000Y-37900000D01*
X162190000Y-34950000D02*
X162190000Y-37890000D01*
X157110000Y-36152081D02*
X157110000Y-37900000D01*
X157110000Y-34950000D02*
X157110000Y-36152081D01*
X162200000Y-37900000D02*
X157110000Y-37900000D01*
X165260000Y-37900000D02*
X162200000Y-37900000D01*
X226220000Y-150430000D02*
X213430000Y-150430000D01*
X205310000Y-150430000D02*
X199400000Y-150430000D01*
X213430000Y-150430000D02*
X205310000Y-150430000D01*
X204530000Y-88820000D02*
X204470000Y-88760000D01*
X206270000Y-88820000D02*
X204530000Y-88820000D01*
X208440000Y-86650000D02*
X206270000Y-88820000D01*
X211650000Y-86650000D02*
X208440000Y-86650000D01*
X226380000Y-88760000D02*
X224220000Y-86600000D01*
X230520000Y-88760000D02*
X226380000Y-88760000D01*
X224220000Y-86600000D02*
X220510000Y-86600000D01*
X220510000Y-86600000D02*
X218290000Y-88820000D01*
X218290000Y-88820000D02*
X213820000Y-88820000D01*
X213820000Y-88820000D02*
X211650000Y-86650000D01*
X243730000Y-88550000D02*
X243730000Y-88750000D01*
X255360000Y-94878630D02*
X255350000Y-94868630D01*
X255360000Y-96010000D02*
X255360000Y-94878630D01*
X255350000Y-94868630D02*
X255350000Y-89600000D01*
X255350000Y-89600000D02*
X252310000Y-86560000D01*
X252310000Y-86560000D02*
X245720000Y-86560000D01*
X245720000Y-86560000D02*
X243730000Y-88550000D01*
X230460000Y-61080000D02*
X230460000Y-63440000D01*
X233990000Y-35940000D02*
X246290000Y-35940000D01*
X194520000Y-35940000D02*
X233990000Y-35940000D01*
X165260000Y-37900000D02*
X192560000Y-37900000D01*
X192560000Y-37900000D02*
X194520000Y-35940000D01*
X171360000Y-120030000D02*
X164650000Y-120030000D01*
X171830000Y-119560000D02*
X171360000Y-120030000D01*
X176140000Y-119560000D02*
X171830000Y-119560000D01*
X177470001Y-120890001D02*
X176140000Y-119560000D01*
X177880000Y-121290000D02*
X177480001Y-120890001D01*
X177480001Y-120890001D02*
X177470001Y-120890001D01*
X76260000Y-48150000D02*
X71180000Y-48150000D01*
X71190000Y-46018680D02*
X71190000Y-41530000D01*
X71180000Y-46028680D02*
X71190000Y-46018680D01*
X71180000Y-48150000D02*
X71180000Y-46028680D01*
X62500000Y-41530000D02*
X71190000Y-41530000D01*
X71190000Y-41530000D02*
X88360000Y-41530000D01*
X129170000Y-37790000D02*
X129170000Y-34950000D01*
X157110000Y-37900000D02*
X129280000Y-37900000D01*
X129280000Y-37900000D02*
X129170000Y-37790000D01*
X209450000Y-121320000D02*
X209450000Y-121220000D01*
X207000000Y-123770000D02*
X209450000Y-121320000D01*
X203250000Y-123770000D02*
X207000000Y-123770000D01*
X186620000Y-121220000D02*
X200700000Y-121220000D01*
X200700000Y-121220000D02*
X203250000Y-123770000D01*
X114784999Y-118394999D02*
X116420000Y-120030000D01*
X100750000Y-67360000D02*
X100780000Y-67330000D01*
X96390000Y-67360000D02*
X100750000Y-67360000D01*
X112691370Y-113710000D02*
X113780000Y-114798630D01*
X111560000Y-113710000D02*
X112691370Y-113710000D01*
X113780000Y-118370000D02*
X113755001Y-118394999D01*
X113780000Y-114798630D02*
X113780000Y-118370000D01*
X113755001Y-118394999D02*
X114784999Y-118394999D01*
X97975001Y-118394999D02*
X113755001Y-118394999D01*
X96350000Y-120020000D02*
X97975001Y-118394999D01*
X86990000Y-86870000D02*
X91360000Y-86870000D01*
X83590000Y-90270000D02*
X86990000Y-86870000D01*
X68200000Y-108680000D02*
X83590000Y-108680000D01*
X83590000Y-108680000D02*
X83590000Y-90270000D01*
X68830000Y-126010000D02*
X75910000Y-126010000D01*
X62480000Y-70540000D02*
X62470000Y-70530000D01*
X51840000Y-73090000D02*
X58990000Y-73090000D01*
X62480000Y-73090000D02*
X62480000Y-70540000D01*
X91360000Y-86870000D02*
X92610000Y-86870000D01*
X92610000Y-86870000D02*
X94390000Y-88650000D01*
X94390000Y-91060000D02*
X96340000Y-93010000D01*
X94390000Y-88650000D02*
X94390000Y-91060000D01*
X58990000Y-73090000D02*
X62480000Y-73090000D01*
X79840000Y-80710000D02*
X79800000Y-80750000D01*
X79840000Y-73090000D02*
X79840000Y-80710000D01*
X73770000Y-53110000D02*
X79840000Y-53110000D01*
X79840000Y-53110000D02*
X79840000Y-67380000D01*
X79840000Y-67380000D02*
X79840000Y-73090000D01*
X246110000Y-58710000D02*
X248600000Y-61200000D01*
X209400000Y-61030000D02*
X211720000Y-58710000D01*
X235440000Y-59988630D02*
X235440000Y-58710000D01*
X235440000Y-61120000D02*
X235440000Y-59988630D01*
X235440000Y-58710000D02*
X246110000Y-58710000D01*
X222500000Y-59988630D02*
X222500000Y-58710000D01*
X222500000Y-61120000D02*
X222500000Y-59988630D01*
X211720000Y-58710000D02*
X222500000Y-58710000D01*
X222500000Y-58710000D02*
X235440000Y-58710000D01*
X203280000Y-91230000D02*
X202340000Y-90290000D01*
X211960000Y-91230000D02*
X203280000Y-91230000D01*
X222460000Y-89911370D02*
X222460000Y-91190000D01*
X222460000Y-88780000D02*
X222460000Y-89911370D01*
X224970000Y-91230000D02*
X211960000Y-91230000D01*
X235530000Y-88810000D02*
X235530000Y-91160000D01*
X238060000Y-91230000D02*
X224970000Y-91230000D01*
X186519949Y-95940000D02*
X186570000Y-95889949D01*
X185530000Y-95940000D02*
X186519949Y-95940000D01*
X186570000Y-95889949D02*
X186600051Y-95889949D01*
X186600051Y-95889949D02*
X187310000Y-95180000D01*
X188360000Y-95180000D02*
X193250000Y-90290000D01*
X187310000Y-95180000D02*
X188360000Y-95180000D01*
X202340000Y-90290000D02*
X193250000Y-90290000D01*
X184540051Y-95940000D02*
X183950051Y-96530000D01*
X185530000Y-95940000D02*
X184540051Y-95940000D01*
X161880000Y-96530000D02*
X159790000Y-94440000D01*
X183950051Y-96530000D02*
X161880000Y-96530000D01*
X246220000Y-91230000D02*
X238060000Y-91230000D01*
X248490000Y-88960000D02*
X246220000Y-91230000D01*
X248490000Y-88750000D02*
X248490000Y-88960000D01*
X209420000Y-88770000D02*
X209420000Y-91208630D01*
X209470000Y-88760000D02*
X209460000Y-88770000D01*
X91370000Y-67380000D02*
X79840000Y-67380000D01*
X91390000Y-67360000D02*
X91370000Y-67380000D01*
X123198630Y-66860000D02*
X123178630Y-66880000D01*
X124330000Y-66860000D02*
X123198630Y-66860000D01*
X123178630Y-66880000D02*
X112710000Y-66880000D01*
X110990000Y-65160000D02*
X110990000Y-63090000D01*
X112710000Y-66880000D02*
X110990000Y-65160000D01*
X119290000Y-140120000D02*
X119290000Y-136977500D01*
X114275000Y-133835000D02*
X111670000Y-133835000D01*
X117410000Y-136970000D02*
X114275000Y-133835000D01*
X118292551Y-136970000D02*
X117410000Y-136970000D01*
X119290000Y-136977500D02*
X118300051Y-136977500D01*
X118300051Y-136977500D02*
X118292551Y-136970000D01*
X124300000Y-90150000D02*
X124320000Y-90130000D01*
X120900000Y-90150000D02*
X124300000Y-90150000D01*
X134050000Y-97210000D02*
X134040000Y-97200000D01*
X139540000Y-97210000D02*
X134050000Y-97210000D01*
D27*
X111090000Y-70270000D02*
X111060000Y-70270000D01*
X111110000Y-70250000D02*
X111090000Y-70270000D01*
X108260000Y-67380000D02*
X111110000Y-70230000D01*
X111110000Y-70230000D02*
X111110000Y-70250000D01*
D28*
X132660000Y-132590000D02*
X131860001Y-133389999D01*
X131860001Y-133389999D02*
X131660000Y-133590000D01*
X131660000Y-133590000D02*
X129100000Y-133590000D01*
D27*
X174486670Y-87343330D02*
X177880000Y-87343330D01*
X169700000Y-92130000D02*
X174486670Y-87343330D01*
X124030000Y-96940000D02*
X128840000Y-92130000D01*
X128840000Y-92130000D02*
X169700000Y-92130000D01*
X125510000Y-117790000D02*
X122790000Y-117790000D01*
X121250000Y-116250000D02*
X119180000Y-116250000D01*
X122790000Y-117790000D02*
X121250000Y-116250000D01*
X233715000Y-108710000D02*
X231290000Y-108710000D01*
X231290000Y-108710000D02*
X230010000Y-109990000D01*
X230010000Y-109990000D02*
X214220000Y-109990000D01*
X218950000Y-126920000D02*
X218384315Y-126920000D01*
X218384315Y-126920000D02*
X206210000Y-126920000D01*
X206210000Y-126920000D02*
X205950000Y-126660000D01*
X205950000Y-126660000D02*
X195220000Y-126660000D01*
X195220000Y-126660000D02*
X192440000Y-123880000D01*
X192440000Y-123880000D02*
X175060000Y-123880000D01*
X126610000Y-117790000D02*
X125510000Y-117790000D01*
X126620000Y-117780000D02*
X126610000Y-117790000D01*
X153850000Y-117780000D02*
X126620000Y-117780000D01*
X156660000Y-114970000D02*
X153850000Y-117780000D01*
X162210000Y-114970000D02*
X156660000Y-114970000D01*
X171790000Y-109050000D02*
X168370000Y-112470000D01*
X175060000Y-109050000D02*
X171790000Y-109050000D01*
X168370000Y-112470000D02*
X164720000Y-112470000D01*
X164720000Y-112470000D02*
X162354999Y-114835001D01*
X162354999Y-114835001D02*
X162344999Y-114835001D01*
X162344999Y-114835001D02*
X162210000Y-114970000D01*
X158620000Y-112340000D02*
X159790000Y-111170000D01*
X149810000Y-112340000D02*
X158620000Y-112340000D01*
X147220000Y-114930000D02*
X149810000Y-112340000D01*
X129780000Y-114930000D02*
X147220000Y-114930000D01*
X125510000Y-115250000D02*
X129460000Y-115250000D01*
X129460000Y-115250000D02*
X129780000Y-114930000D01*
X122340000Y-113710000D02*
X119180000Y-113710000D01*
X125510000Y-112710000D02*
X123340000Y-112710000D01*
X123340000Y-112710000D02*
X122340000Y-113710000D01*
X230000000Y-160050000D02*
X230000000Y-153000000D01*
X152000000Y-130050000D02*
X140280000Y-130050000D01*
X155800000Y-126250000D02*
X152000000Y-130050000D01*
X169200000Y-123530000D02*
X164630000Y-123530000D01*
X170680000Y-125010000D02*
X169200000Y-123530000D01*
X177260000Y-125010000D02*
X170680000Y-125010000D01*
X164630000Y-123530000D02*
X161910000Y-126250000D01*
X231900000Y-128000000D02*
X205960000Y-128000000D01*
X205360000Y-127400000D02*
X194770000Y-127400000D01*
X161910000Y-126250000D02*
X155800000Y-126250000D01*
X205960000Y-128000000D02*
X205360000Y-127400000D01*
X194770000Y-127400000D02*
X191960000Y-124590000D01*
X191960000Y-124590000D02*
X177680000Y-124590000D01*
X177680000Y-124590000D02*
X177260000Y-125010000D01*
X159780000Y-113700000D02*
X159790000Y-113710000D01*
X149970000Y-113700000D02*
X159780000Y-113700000D01*
X168440000Y-144700000D02*
X149960000Y-144700000D01*
X227570000Y-144200000D02*
X218340000Y-144200000D01*
X218340000Y-144200000D02*
X216530000Y-146010000D01*
X190280000Y-146010000D02*
X187830000Y-148460000D01*
X216530000Y-146010000D02*
X190280000Y-146010000D01*
X187830000Y-148460000D02*
X172200000Y-148460000D01*
X172200000Y-148460000D02*
X168440000Y-144700000D01*
X227450000Y-152970000D02*
X227450000Y-153890000D01*
X227460000Y-160050000D02*
X227460000Y-152980000D01*
X227460000Y-152980000D02*
X227450000Y-152970000D01*
X217300000Y-160050000D02*
X217300000Y-154520000D01*
X217300000Y-154520000D02*
X218830000Y-152990000D01*
X190640000Y-106090000D02*
X189270000Y-106090000D01*
X191080000Y-106530000D02*
X190640000Y-106090000D01*
X217960000Y-112500000D02*
X191550000Y-112500000D01*
X191550000Y-112500000D02*
X191080000Y-112030000D01*
X191010000Y-109910000D02*
X191080000Y-109980000D01*
X191080000Y-109980000D02*
X191080000Y-106530000D01*
X191080000Y-112030000D02*
X191080000Y-109980000D01*
X186160000Y-109910000D02*
X191010000Y-109910000D01*
X181650000Y-108630000D02*
X182781370Y-108630000D01*
X182781370Y-108630000D02*
X182791370Y-108620000D01*
X182791370Y-108620000D02*
X184870000Y-108620000D01*
X184870000Y-108620000D02*
X186160000Y-109910000D01*
X214790000Y-160050000D02*
X214790000Y-154720000D01*
X234660000Y-125860000D02*
X245450000Y-115070000D01*
X245450000Y-115070000D02*
X249130000Y-115070000D01*
X216940000Y-124500000D02*
X218300000Y-125860000D01*
X252930000Y-118870000D02*
X255360000Y-118870000D01*
X218300000Y-125860000D02*
X234660000Y-125860000D01*
X249130000Y-115070000D02*
X252930000Y-118870000D01*
X215660000Y-152990000D02*
X216910000Y-152990000D01*
X214790000Y-154690000D02*
X214790000Y-153860000D01*
X214790000Y-153860000D02*
X215660000Y-152990000D01*
X156860000Y-124380000D02*
X113730000Y-124380000D01*
X157740000Y-123500000D02*
X156860000Y-124380000D01*
X162550000Y-123500000D02*
X157740000Y-123500000D01*
X163900000Y-122150000D02*
X162550000Y-123500000D01*
X172850000Y-122150000D02*
X163900000Y-122150000D01*
X173660000Y-121340000D02*
X172850000Y-122150000D01*
X175730000Y-121340000D02*
X173660000Y-121340000D01*
X177550000Y-123160000D02*
X175730000Y-121340000D01*
X216540001Y-124899999D02*
X216540001Y-124909999D01*
X216940000Y-124500000D02*
X216540001Y-124899999D01*
X216540001Y-124909999D02*
X215590000Y-125860000D01*
X215590000Y-125860000D02*
X195710000Y-125860000D01*
X195710000Y-125860000D02*
X193010000Y-123160000D01*
X193010000Y-123160000D02*
X177550000Y-123160000D01*
X212220000Y-160050000D02*
X212220000Y-153015000D01*
X212220000Y-153015000D02*
X212195000Y-152990000D01*
X162960000Y-137670000D02*
X159790000Y-137670000D01*
X164230000Y-136400000D02*
X162960000Y-137670000D01*
X186130000Y-136400000D02*
X164230000Y-136400000D01*
X212190000Y-138010000D02*
X187740000Y-138010000D01*
X187740000Y-138010000D02*
X186130000Y-136400000D01*
X108590000Y-76710000D02*
X98980000Y-76710000D01*
X152550000Y-83790000D02*
X115670000Y-83790000D01*
X115670000Y-83790000D02*
X108590000Y-76710000D01*
X209680000Y-160050000D02*
X209680000Y-153010000D01*
X209680000Y-153010000D02*
X209670000Y-153000000D01*
X163850000Y-140210000D02*
X159790000Y-140210000D01*
X165110000Y-138950000D02*
X163850000Y-140210000D01*
X175290000Y-138950000D02*
X165110000Y-138950000D01*
X175710000Y-139370000D02*
X175290000Y-138950000D01*
X209340000Y-138690000D02*
X186460000Y-138690000D01*
X209650000Y-139000000D02*
X209340000Y-138690000D01*
X186460000Y-138690000D02*
X185070000Y-137300000D01*
X185070000Y-137300000D02*
X179510000Y-137300000D01*
X179510000Y-137300000D02*
X177440000Y-139370000D01*
X177440000Y-139370000D02*
X175710000Y-139370000D01*
X98980000Y-84320000D02*
X104574990Y-84320000D01*
X92630000Y-56620000D02*
X104009305Y-56620000D01*
X104009305Y-56620000D02*
X104574990Y-56620000D01*
X91360000Y-55350000D02*
X92630000Y-56620000D01*
X116100000Y-84320000D02*
X104574990Y-84320000D01*
X118100000Y-86320000D02*
X116100000Y-84320000D01*
X150940000Y-84960000D02*
X149580000Y-86320000D01*
X149580000Y-86320000D02*
X118100000Y-86320000D01*
X186330000Y-113710000D02*
X189270000Y-113710000D01*
X171020000Y-112500000D02*
X185120000Y-112500000D01*
X185120000Y-112500000D02*
X186330000Y-113710000D01*
X189270000Y-113710000D02*
X202000000Y-113710000D01*
X207200000Y-152990000D02*
X207200000Y-160050000D01*
X204600000Y-160050000D02*
X204600000Y-152710000D01*
X204600000Y-152710000D02*
X203780000Y-151890000D01*
X203780000Y-132110000D02*
X188593004Y-132110000D01*
X186533004Y-130050000D02*
X168541370Y-130050000D01*
X168541370Y-130050000D02*
X167410000Y-130050000D01*
X188593004Y-132110000D02*
X186533004Y-130050000D01*
X202060000Y-154720000D02*
X202070000Y-154710000D01*
X202060000Y-160050000D02*
X202060000Y-154720000D01*
X202070000Y-154710000D02*
X202070000Y-153990000D01*
X200709314Y-102444999D02*
X200704313Y-102450000D01*
X201274999Y-102444999D02*
X200709314Y-102444999D01*
X200704313Y-102450000D02*
X194610000Y-102450000D01*
X194610000Y-102450000D02*
X191800000Y-99640000D01*
X191800000Y-99640000D02*
X186970000Y-99640000D01*
X185600000Y-101010000D02*
X181650000Y-101010000D01*
X186970000Y-99640000D02*
X185600000Y-101010000D01*
X162670000Y-55250000D02*
X159790000Y-55250000D01*
X163940000Y-56520000D02*
X162670000Y-55250000D01*
X175760000Y-56520000D02*
X163940000Y-56520000D01*
X181490000Y-57760000D02*
X177000000Y-57760000D01*
X177000000Y-57760000D02*
X175760000Y-56520000D01*
X199520000Y-160050000D02*
X199520000Y-153000000D01*
X199520000Y-153000000D02*
X199530000Y-152990000D01*
X184820000Y-103550000D02*
X181650000Y-103550000D01*
X195874315Y-106670000D02*
X195864315Y-106660000D01*
X196440000Y-106670000D02*
X195874315Y-106670000D01*
X195864315Y-106660000D02*
X194210000Y-106660000D01*
X194210000Y-106660000D02*
X192360000Y-104810000D01*
X192360000Y-104810000D02*
X186080000Y-104810000D01*
X186080000Y-104810000D02*
X184820000Y-103550000D01*
X159790000Y-47630000D02*
X161530000Y-47630000D01*
X161530000Y-47630000D02*
X162800000Y-46360000D01*
X162800000Y-46360000D02*
X172140000Y-46360000D01*
X172140000Y-46360000D02*
X172770000Y-45730000D01*
X172770000Y-45730000D02*
X181970000Y-45730000D01*
X196980000Y-160050000D02*
X196980000Y-153000000D01*
X185600000Y-111170000D02*
X189270000Y-111170000D01*
X184340000Y-109910000D02*
X185600000Y-111170000D01*
X179530000Y-109910000D02*
X184340000Y-109910000D01*
X177470000Y-109200000D02*
X178820000Y-109200000D01*
X178820000Y-109200000D02*
X179530000Y-109910000D01*
X171000000Y-49560000D02*
X180620000Y-49560000D01*
X167410000Y-50170000D02*
X170390000Y-50170000D01*
X170390000Y-50170000D02*
X171000000Y-49560000D01*
X194440000Y-160050000D02*
X194440000Y-153000000D01*
X194440000Y-136000000D02*
X193570000Y-135130000D01*
X175830000Y-135130000D02*
X167410000Y-135130000D01*
X193570000Y-135130000D02*
X175830000Y-135130000D01*
X191900000Y-160050000D02*
X191900000Y-152980000D01*
X159790000Y-127510000D02*
X160921370Y-127510000D01*
X160921370Y-127510000D02*
X162580000Y-127510000D01*
X162580000Y-127510000D02*
X163840000Y-126250000D01*
X163840000Y-126250000D02*
X191910000Y-126250000D01*
X189360000Y-160050000D02*
X189360000Y-153000000D01*
X163220000Y-130050000D02*
X159790000Y-130050000D01*
X164490000Y-128780000D02*
X163220000Y-130050000D01*
X187050000Y-128780000D02*
X164490000Y-128780000D01*
X189360000Y-131070000D02*
X189340000Y-131070000D01*
X189340000Y-131070000D02*
X187050000Y-128780000D01*
X186820000Y-160050000D02*
X186820000Y-152990000D01*
X185680000Y-132590000D02*
X167410000Y-132590000D01*
X186810000Y-133720000D02*
X185680000Y-132590000D01*
X184280000Y-160050000D02*
X184280000Y-153000000D01*
X167430000Y-127530000D02*
X167410000Y-127510000D01*
X184260000Y-127530000D02*
X167430000Y-127530000D01*
X181740000Y-160050000D02*
X181740000Y-153000000D01*
X163170000Y-132590000D02*
X159790000Y-132590000D01*
X164420000Y-131340000D02*
X163170000Y-132590000D01*
X181740000Y-131350000D02*
X181730000Y-131340000D01*
X181730000Y-131340000D02*
X164420000Y-131340000D01*
X179200000Y-160050000D02*
X179200000Y-152990000D01*
X163450000Y-135130000D02*
X159790000Y-135130000D01*
X164720000Y-133860000D02*
X163450000Y-135130000D01*
X179200000Y-133850000D02*
X179190000Y-133860000D01*
X179190000Y-133860000D02*
X164720000Y-133860000D01*
X176660000Y-160050000D02*
X176660000Y-152990000D01*
X176094315Y-137670000D02*
X167410000Y-137670000D01*
X176660000Y-137670000D02*
X176094315Y-137670000D01*
X179294990Y-52710000D02*
X179494991Y-52910001D01*
X167410000Y-52710000D02*
X179294990Y-52710000D01*
X179494991Y-52910001D02*
X179894990Y-53310000D01*
X174120000Y-160050000D02*
X174120000Y-153000000D01*
X175150000Y-111170000D02*
X181650000Y-111170000D01*
X173780000Y-109800000D02*
X175150000Y-111170000D01*
X178130000Y-116250000D02*
X167410000Y-116250000D01*
X214750000Y-121094315D02*
X213015685Y-119360000D01*
X214750000Y-121660000D02*
X214750000Y-121094315D01*
X213015685Y-119360000D02*
X201310000Y-119360000D01*
X201310000Y-119360000D02*
X199800000Y-117850000D01*
X199800000Y-117850000D02*
X179730000Y-117850000D01*
X179730000Y-117850000D02*
X178130000Y-116250000D01*
X166360000Y-116250000D02*
X167410000Y-116250000D01*
X163890000Y-118720000D02*
X166360000Y-116250000D01*
X158230000Y-118720000D02*
X163890000Y-118720000D01*
X153960000Y-122990000D02*
X158230000Y-118720000D01*
X102650000Y-122990000D02*
X153960000Y-122990000D01*
X153830000Y-137670000D02*
X140280000Y-137670000D01*
X157630000Y-141470000D02*
X153830000Y-137670000D01*
X157630000Y-141480000D02*
X157630000Y-141470000D01*
X178720000Y-141480000D02*
X157630000Y-141480000D01*
X195690000Y-139550000D02*
X180650000Y-139550000D01*
X180650000Y-139550000D02*
X178720000Y-141480000D01*
X247740000Y-113790000D02*
X245330000Y-113790000D01*
X229280000Y-113790000D02*
X226095000Y-113790000D01*
X230550000Y-115060000D02*
X229280000Y-113790000D01*
X244060000Y-115060000D02*
X230550000Y-115060000D01*
X245330000Y-113790000D02*
X244060000Y-115060000D01*
X245310000Y-131640000D02*
X207350000Y-131640000D01*
X207350000Y-131640000D02*
X205980000Y-130270000D01*
X205980000Y-130270000D02*
X192700000Y-130270000D01*
X192700000Y-130270000D02*
X192690000Y-130260000D01*
X246608630Y-111250000D02*
X246598630Y-111240000D01*
X247740000Y-111250000D02*
X246608630Y-111250000D01*
X246598630Y-111240000D02*
X241750000Y-111240000D01*
X241750000Y-111240000D02*
X240450000Y-112540000D01*
X240450000Y-112540000D02*
X230520000Y-112540000D01*
X229230000Y-111250000D02*
X226095000Y-111250000D01*
X230520000Y-112540000D02*
X229230000Y-111250000D01*
X243670000Y-134190000D02*
X190260000Y-134190000D01*
X244260000Y-133600000D02*
X243670000Y-134190000D01*
X190260000Y-134190000D02*
X190210000Y-134240000D01*
X233715000Y-113790000D02*
X242640000Y-113790000D01*
X241865001Y-133139999D02*
X188139999Y-133139999D01*
X188139999Y-133139999D02*
X187740000Y-132740000D01*
X242640000Y-132365000D02*
X241865001Y-133139999D01*
X239600000Y-111250000D02*
X233715000Y-111250000D01*
X247740000Y-106170000D02*
X244680000Y-106170000D01*
X244680000Y-106170000D02*
X239600000Y-111250000D01*
X237394315Y-132414999D02*
X237389316Y-132410000D01*
X237389316Y-132410000D02*
X227750000Y-132410000D01*
X227750000Y-132410000D02*
X206520000Y-132410000D01*
X206520000Y-132410000D02*
X205494999Y-131384999D01*
X237960000Y-132414999D02*
X237394315Y-132414999D01*
X192074999Y-131384999D02*
X187750000Y-127060000D01*
X187750000Y-127060000D02*
X185420000Y-127060000D01*
X205494999Y-131384999D02*
X192074999Y-131384999D01*
X229550000Y-103630000D02*
X226095000Y-103630000D01*
X230830000Y-104910000D02*
X229550000Y-103630000D01*
X243430000Y-104910000D02*
X230830000Y-104910000D01*
X247740000Y-103630000D02*
X244710000Y-103630000D01*
X244710000Y-103630000D02*
X243430000Y-104910000D01*
X183057347Y-144051662D02*
X184259009Y-142850000D01*
X183057347Y-144617347D02*
X183057347Y-144051662D01*
X184259009Y-142850000D02*
X203250000Y-142850000D01*
X203250000Y-142850000D02*
X213080000Y-142850000D01*
X213080000Y-142850000D02*
X220270000Y-135660000D01*
X220270000Y-135660000D02*
X223380000Y-135660000D01*
X246608630Y-101090000D02*
X246598630Y-101080000D01*
X247740000Y-101090000D02*
X246608630Y-101090000D01*
X246598630Y-101080000D02*
X242820000Y-101080000D01*
X240270000Y-103630000D02*
X233715000Y-103630000D01*
X242820000Y-101080000D02*
X240270000Y-103630000D01*
X219960000Y-134800000D02*
X212800000Y-141960000D01*
X241100000Y-135250000D02*
X240650000Y-134800000D01*
X183320000Y-141960000D02*
X180300000Y-144980000D01*
X212800000Y-141960000D02*
X183320000Y-141960000D01*
X240650000Y-134800000D02*
X219960000Y-134800000D01*
X240010000Y-101090000D02*
X233715000Y-101090000D01*
X247740000Y-98550000D02*
X242550000Y-98550000D01*
X242550000Y-98550000D02*
X240010000Y-101090000D01*
X182790000Y-145910000D02*
X177630000Y-145910000D01*
X185100000Y-143600000D02*
X182790000Y-145910000D01*
X213570000Y-143600000D02*
X185100000Y-143600000D01*
X239310000Y-136390000D02*
X220780000Y-136390000D01*
X220780000Y-136390000D02*
X213570000Y-143600000D01*
X229880000Y-101090000D02*
X226095000Y-101090000D01*
X231140000Y-99830000D02*
X229880000Y-101090000D01*
X238630000Y-99830000D02*
X231140000Y-99830000D01*
X247740000Y-96010000D02*
X242450000Y-96010000D01*
X242450000Y-96010000D02*
X238630000Y-99830000D01*
X221380000Y-137360000D02*
X222380000Y-137360000D01*
X214270000Y-144470000D02*
X221380000Y-137360000D01*
X185590000Y-144470000D02*
X214270000Y-144470000D01*
X175410000Y-146890000D02*
X183170000Y-146890000D01*
X183170000Y-146890000D02*
X185590000Y-144470000D01*
X128070000Y-32410000D02*
X128060000Y-32420000D01*
X129170000Y-32410000D02*
X128070000Y-32410000D01*
X128060000Y-32420000D02*
X119020000Y-32420000D01*
X119020000Y-32420000D02*
X119000000Y-32400000D01*
X128770000Y-60350000D02*
X131960000Y-60350000D01*
X119000000Y-59120000D02*
X127540000Y-59120000D01*
X127540000Y-59120000D02*
X128770000Y-60350000D01*
X128650000Y-52730000D02*
X131960000Y-52730000D01*
X120240000Y-54000000D02*
X127380000Y-54000000D01*
X127380000Y-54000000D02*
X128650000Y-52730000D01*
X120279949Y-130692500D02*
X120287449Y-130700000D01*
X119290000Y-130692500D02*
X120279949Y-130692500D01*
X120287449Y-130700000D02*
X125850000Y-130700000D01*
X126500000Y-130050000D02*
X132660000Y-130050000D01*
X125850000Y-130700000D02*
X126500000Y-130050000D01*
X118590001Y-129992501D02*
X118590001Y-129980001D01*
X119290000Y-130692500D02*
X118590001Y-129992501D01*
X118590001Y-129980001D02*
X117740000Y-129130000D01*
X117740000Y-129130000D02*
X107960000Y-129130000D01*
X117520000Y-39370000D02*
X134240000Y-39370000D01*
X93700000Y-108630000D02*
X91360000Y-108630000D01*
X97460000Y-112390000D02*
X93700000Y-108630000D01*
X107970000Y-112410000D02*
X107950000Y-112390000D01*
X107950000Y-112390000D02*
X97460000Y-112390000D01*
X202540000Y-109960000D02*
X207030000Y-109960000D01*
X208290000Y-111220000D02*
X212030000Y-111220000D01*
X207030000Y-109960000D02*
X208290000Y-111220000D01*
X128090000Y-55270000D02*
X124340000Y-55270000D01*
X136810000Y-54100000D02*
X129260000Y-54100000D01*
X129260000Y-54100000D02*
X128090000Y-55270000D01*
X208810000Y-108680000D02*
X212030000Y-108680000D01*
X207540000Y-107410000D02*
X208810000Y-108680000D01*
X200390000Y-109250000D02*
X202230000Y-107410000D01*
X202230000Y-107410000D02*
X207540000Y-107410000D01*
X126950000Y-47650000D02*
X124340000Y-47650000D01*
X127820000Y-47650000D02*
X126950000Y-47650000D01*
X128945001Y-46524999D02*
X127820000Y-47650000D01*
X128945001Y-46504999D02*
X128945001Y-46524999D01*
X139330000Y-46370000D02*
X129080000Y-46370000D01*
X129080000Y-46370000D02*
X128945001Y-46504999D01*
X174353336Y-83986664D02*
X177880000Y-83986664D01*
X171300000Y-87040000D02*
X174353336Y-83986664D01*
X144290685Y-87040000D02*
X171300000Y-87040000D01*
X143720000Y-87045000D02*
X144285685Y-87045000D01*
X144285685Y-87045000D02*
X144290685Y-87040000D01*
X177880000Y-83986664D02*
X183015010Y-78851654D01*
X183015010Y-78851654D02*
X183015010Y-78760000D01*
X139320000Y-50170000D02*
X131960000Y-50170000D01*
X139200000Y-57820000D02*
X131960000Y-57820000D01*
X143210000Y-66810000D02*
X132520000Y-66810000D01*
X132520000Y-66810000D02*
X130350000Y-68980000D01*
X130350000Y-68980000D02*
X116980000Y-68980000D01*
X149530000Y-32370000D02*
X149490000Y-32410000D01*
X149530000Y-27340000D02*
X149530000Y-32370000D01*
X249340000Y-81450000D02*
X251180000Y-81450000D01*
X246780000Y-78890000D02*
X249340000Y-81450000D01*
X244711370Y-78890000D02*
X246780000Y-78890000D01*
X243560000Y-78910000D02*
X244691370Y-78910000D01*
X244691370Y-78910000D02*
X244711370Y-78890000D01*
X134670000Y-72230000D02*
X135235685Y-72230000D01*
X135235685Y-72230000D02*
X141840000Y-72230000D01*
X141840000Y-72230000D02*
X143900000Y-74290000D01*
X143900000Y-74290000D02*
X170690000Y-74290000D01*
X170690000Y-74290000D02*
X171990000Y-72990000D01*
X171990000Y-72990000D02*
X173500000Y-72990000D01*
X248650000Y-53630000D02*
X251180000Y-53630000D01*
X243560000Y-51090000D02*
X246110000Y-51090000D01*
X246110000Y-51090000D02*
X248650000Y-53630000D01*
X152030000Y-27290000D02*
X152030000Y-32410000D01*
X153070000Y-26250000D02*
X152030000Y-27290000D01*
X244970000Y-26250000D02*
X153070000Y-26250000D01*
X244980000Y-26260000D02*
X244970000Y-26250000D01*
X247870000Y-26260000D02*
X244980000Y-26260000D01*
X261440000Y-107060000D02*
X261430000Y-107050000D01*
X261430000Y-107050000D02*
X261430000Y-45130000D01*
X261430000Y-45130000D02*
X258670000Y-42370000D01*
X258670000Y-42370000D02*
X258670000Y-37060000D01*
X258670000Y-37060000D02*
X247870000Y-26260000D01*
X230523332Y-78750000D02*
X233280000Y-78750000D01*
X235820000Y-81290000D02*
X238143332Y-81290000D01*
X233280000Y-78750000D02*
X235820000Y-81290000D01*
X154570000Y-28580000D02*
X154570000Y-32410000D01*
X155140000Y-28010000D02*
X154570000Y-28580000D01*
X240340000Y-81290000D02*
X238143332Y-81290000D01*
X254470685Y-80700000D02*
X252460685Y-82710000D01*
X254480000Y-80700000D02*
X254470685Y-80700000D01*
X252460685Y-82710000D02*
X248980000Y-82710000D01*
X248980000Y-82710000D02*
X246470000Y-80200000D01*
X246470000Y-80200000D02*
X241430000Y-80200000D01*
X241430000Y-80200000D02*
X240340000Y-81290000D01*
X262470000Y-80720000D02*
X262490000Y-80700000D01*
X262470000Y-111640000D02*
X262470000Y-80720000D01*
X260310000Y-113800000D02*
X262470000Y-111640000D01*
X256501370Y-113800000D02*
X260310000Y-113800000D01*
X255360000Y-113790000D02*
X256491370Y-113790000D01*
X256491370Y-113790000D02*
X256501370Y-113800000D01*
X125471370Y-50190000D02*
X125481370Y-50180000D01*
X124340000Y-50190000D02*
X125471370Y-50190000D01*
X125481370Y-50180000D02*
X127010000Y-50180000D01*
X127010000Y-50180000D02*
X128260000Y-48930000D01*
X128260000Y-48930000D02*
X141050000Y-48930000D01*
X141050000Y-48930000D02*
X142260000Y-50140000D01*
X142260000Y-50140000D02*
X154530000Y-50140000D01*
X98980000Y-142750000D02*
X125080000Y-142750000D01*
X125080000Y-142750000D02*
X125880000Y-141950000D01*
X125880000Y-141950000D02*
X126350000Y-141480000D01*
X126350000Y-141480000D02*
X147000000Y-141480000D01*
X111670000Y-140120000D02*
X111670000Y-142750000D01*
X98980000Y-103550000D02*
X111560000Y-103550000D01*
X217486666Y-51120000D02*
X219410000Y-51120000D01*
X221950000Y-53660000D02*
X225106666Y-53660000D01*
X219410000Y-51120000D02*
X221950000Y-53660000D01*
X164730000Y-31207919D02*
X164720000Y-31197919D01*
X164730000Y-32410000D02*
X164730000Y-31207919D01*
X164720000Y-31197919D02*
X164720000Y-28320000D01*
X164720000Y-28320000D02*
X165860000Y-27180000D01*
X165860000Y-27180000D02*
X206050000Y-27180000D01*
X206050000Y-27180000D02*
X208880000Y-30010000D01*
X208880000Y-30010000D02*
X219320000Y-30010000D01*
X258550000Y-101480000D02*
X258580000Y-101510000D01*
X258550000Y-46820000D02*
X258550000Y-101480000D01*
X255450000Y-43720000D02*
X258550000Y-46820000D01*
X255450000Y-37440000D02*
X255450000Y-43720000D01*
X219320000Y-30010000D02*
X248020000Y-30010000D01*
X248020000Y-30010000D02*
X255450000Y-37440000D01*
X94520000Y-101010000D02*
X91360000Y-101010000D01*
X95760000Y-102250000D02*
X94520000Y-101010000D01*
X103480000Y-102260000D02*
X103470000Y-102250000D01*
X103470000Y-102250000D02*
X95760000Y-102250000D01*
X104069999Y-61746999D02*
X109136998Y-56680000D01*
X103370000Y-63090000D02*
X104069999Y-62390001D01*
X104069999Y-62390001D02*
X104069999Y-61746999D01*
X109136998Y-56680000D02*
X153570000Y-56680000D01*
X153570000Y-56680000D02*
X153580000Y-56690000D01*
X167270000Y-28530000D02*
X167270000Y-32410000D01*
X167780000Y-28020000D02*
X167270000Y-28530000D01*
X222640000Y-81290000D02*
X225106666Y-81290000D01*
X217486666Y-78750000D02*
X220100000Y-78750000D01*
X220100000Y-78750000D02*
X222640000Y-81290000D01*
X255360000Y-111240000D02*
X255360000Y-111250000D01*
X248300000Y-28010000D02*
X257655000Y-37365000D01*
X227490000Y-28010000D02*
X248300000Y-28010000D01*
X257655000Y-37365000D02*
X257655000Y-42905000D01*
X257655000Y-42905000D02*
X260460000Y-45710000D01*
X260460000Y-45710000D02*
X260460000Y-106140000D01*
X260460000Y-106140000D02*
X255360000Y-111240000D01*
X155920000Y-58480000D02*
X148550000Y-58480000D01*
X172570000Y-59060000D02*
X156500000Y-59060000D01*
X156500000Y-59060000D02*
X155920000Y-58480000D01*
X169810000Y-29430000D02*
X169810000Y-32410000D01*
X171220000Y-28020000D02*
X169810000Y-29430000D01*
X204660000Y-28020000D02*
X171220000Y-28020000D01*
X232470000Y-31245000D02*
X207885000Y-31245000D01*
X207885000Y-31245000D02*
X204660000Y-28020000D01*
X235270000Y-53660000D02*
X238143332Y-53660000D01*
X230523332Y-51120000D02*
X232730000Y-51120000D01*
X232730000Y-51120000D02*
X235270000Y-53660000D01*
X233035685Y-31245000D02*
X232470000Y-31245000D01*
X257680000Y-101310000D02*
X257680000Y-47250000D01*
X255360000Y-103630000D02*
X257680000Y-101310000D01*
X257680000Y-47250000D02*
X254420000Y-43990000D01*
X254420000Y-43990000D02*
X254420000Y-37553590D01*
X254420000Y-37553590D02*
X248111410Y-31245000D01*
X248111410Y-31245000D02*
X233035685Y-31245000D01*
X146770000Y-61500000D02*
X146204315Y-61500000D01*
X146204315Y-61500000D02*
X120290000Y-61500000D01*
X209810000Y-81290000D02*
X212070000Y-81290000D01*
X204450000Y-78750000D02*
X207270000Y-78750000D01*
X207270000Y-78750000D02*
X209810000Y-81290000D01*
X247900000Y-28750000D02*
X215000000Y-28750000D01*
X256455000Y-37305000D02*
X247900000Y-28750000D01*
X256159999Y-107910001D02*
X256169999Y-107910001D01*
X255360000Y-108710000D02*
X256159999Y-107910001D01*
X256169999Y-107910001D02*
X259520000Y-104560000D01*
X259520000Y-104560000D02*
X259520000Y-46320000D01*
X259520000Y-46320000D02*
X256455000Y-43255000D01*
X256455000Y-43255000D02*
X256455000Y-37305000D01*
X174770000Y-29990000D02*
X172350000Y-32410000D01*
X185000000Y-29980000D02*
X184990000Y-29990000D01*
X184990000Y-29990000D02*
X174770000Y-29990000D01*
X125451370Y-74890000D02*
X125461370Y-74880000D01*
X124320000Y-74890000D02*
X125451370Y-74890000D01*
X125461370Y-74880000D02*
X127340000Y-74880000D01*
X127340000Y-74880000D02*
X128630000Y-76170000D01*
X128630000Y-76170000D02*
X134370000Y-76170000D01*
X134370000Y-76170000D02*
X137570000Y-79370000D01*
X137570000Y-79370000D02*
X162530000Y-79370000D01*
X162530000Y-79370000D02*
X165060000Y-76840000D01*
X165060000Y-76840000D02*
X172180000Y-76840000D01*
X172180000Y-76840000D02*
X173970000Y-75050000D01*
X173970000Y-75050000D02*
X174440000Y-75050000D01*
X205581370Y-50910000D02*
X205591370Y-50900000D01*
X204450000Y-50910000D02*
X205581370Y-50910000D01*
X205591370Y-50900000D02*
X206970000Y-50900000D01*
X209520000Y-53450000D02*
X212070000Y-53450000D01*
X206970000Y-50900000D02*
X209520000Y-53450000D01*
X174890000Y-32410000D02*
X175739999Y-31560001D01*
X175739999Y-31560001D02*
X176680000Y-30620000D01*
X176680000Y-30620000D02*
X180040000Y-30620000D01*
X180040000Y-30620000D02*
X181380000Y-31960000D01*
X181380000Y-31960000D02*
X205980000Y-31960000D01*
X205980000Y-31960000D02*
X205990000Y-31970000D01*
X255360000Y-97675002D02*
X255360000Y-98550000D01*
X256860000Y-96175002D02*
X255360000Y-97675002D01*
X256860000Y-47710000D02*
X256860000Y-96175002D01*
X236490000Y-31970000D02*
X236500000Y-31960000D01*
X205990000Y-31970000D02*
X236490000Y-31970000D01*
X236500000Y-31960000D02*
X247750000Y-31960000D01*
X247750000Y-31960000D02*
X253430000Y-37640000D01*
X253430000Y-37640000D02*
X253430000Y-44280000D01*
X253430000Y-44280000D02*
X256860000Y-47710000D01*
X118535685Y-65000000D02*
X118545685Y-64990000D01*
X117970000Y-65000000D02*
X118535685Y-65000000D01*
X118545685Y-64990000D02*
X176010000Y-64990000D01*
X98980000Y-108630000D02*
X100111370Y-108630000D01*
X100111370Y-108630000D02*
X108070000Y-108630000D01*
X124330000Y-60360000D02*
X124340000Y-60350000D01*
X106530000Y-60360000D02*
X124330000Y-60360000D01*
X108695001Y-109255001D02*
X108695001Y-112754999D01*
X108070000Y-108630000D02*
X108695001Y-109255001D01*
X107740000Y-113710000D02*
X98980000Y-113710000D01*
X108695001Y-112754999D02*
X107740000Y-113710000D01*
X98980000Y-115200000D02*
X98980000Y-113710000D01*
X98980000Y-116250000D02*
X98980000Y-115200000D01*
X98980000Y-113710000D02*
X91360000Y-113710000D01*
X91360000Y-106090000D02*
X93640000Y-106090000D01*
X96180000Y-108630000D02*
X98980000Y-108630000D01*
X93640000Y-106090000D02*
X96180000Y-108630000D01*
X120870000Y-87590000D02*
X124320000Y-87590000D01*
X120830000Y-87590000D02*
X121020000Y-87590000D01*
X113280000Y-90150000D02*
X118270000Y-90150000D01*
X118270000Y-90150000D02*
X120830000Y-87590000D01*
X157795001Y-88935001D02*
X157820000Y-88960000D01*
X128315001Y-88935001D02*
X141984999Y-88935001D01*
X124320000Y-87590000D02*
X126970000Y-87590000D01*
X126970000Y-87590000D02*
X128315001Y-88935001D01*
X141984999Y-88935001D02*
X142164999Y-88935001D01*
X142164999Y-88935001D02*
X157795001Y-88935001D01*
X153355685Y-69990000D02*
X153365685Y-70000000D01*
X152790000Y-69990000D02*
X153355685Y-69990000D01*
X153365685Y-70000000D02*
X165270000Y-70000000D01*
X165270000Y-70000000D02*
X168300000Y-66970000D01*
X168300000Y-66970000D02*
X183320000Y-66970000D01*
X183320000Y-66970000D02*
X185730000Y-64560000D01*
X185730000Y-64560000D02*
X185730000Y-57750000D01*
X178740000Y-33720000D02*
X177430000Y-32410000D01*
X183610000Y-33720000D02*
X178740000Y-33720000D01*
X134950000Y-100960000D02*
X132210000Y-100960000D01*
X134960000Y-100950000D02*
X134950000Y-100960000D01*
X135690000Y-100950000D02*
X134960000Y-100950000D01*
X177840000Y-101020000D02*
X176580000Y-102280000D01*
X177840000Y-101000000D02*
X177840000Y-101020000D01*
X176580000Y-102280000D02*
X164340000Y-102280000D01*
X164340000Y-102280000D02*
X161894999Y-99834999D01*
X161894999Y-99834999D02*
X136805001Y-99834999D01*
X136805001Y-99834999D02*
X135690000Y-100950000D01*
X66150000Y-48190000D02*
X66100000Y-48140000D01*
X98980000Y-62970000D02*
X96080000Y-62970000D01*
X96080000Y-62970000D02*
X93540000Y-60430000D01*
X93540000Y-60430000D02*
X91360000Y-60430000D01*
X90560001Y-59630001D02*
X90560001Y-59600001D01*
X91360000Y-60430000D02*
X90560001Y-59630001D01*
X90560001Y-59600001D02*
X85800000Y-54840000D01*
X85800000Y-54840000D02*
X85800000Y-52140000D01*
X84120000Y-50460000D02*
X66150000Y-50460000D01*
X85800000Y-52140000D02*
X84120000Y-50460000D01*
X66150000Y-53110000D02*
X66150000Y-50460000D01*
X66150000Y-50460000D02*
X66150000Y-48190000D01*
X98980000Y-89410000D02*
X98960000Y-89410000D01*
X98960000Y-89410000D02*
X97580000Y-88030000D01*
X97580000Y-88030000D02*
X97580000Y-88020000D01*
X97580000Y-88020000D02*
X95000000Y-85440000D01*
X95000000Y-85440000D02*
X95000000Y-66120000D01*
X96080000Y-65040000D02*
X96080000Y-62970000D01*
X95000000Y-66120000D02*
X96080000Y-65040000D01*
X247740000Y-116330000D02*
X246940001Y-117129999D01*
X246940001Y-117129999D02*
X245490000Y-118580000D01*
X245490000Y-118580000D02*
X245490000Y-129560000D01*
X245490000Y-129560000D02*
X246260000Y-130330000D01*
X246260000Y-130330000D02*
X246260000Y-137940000D01*
X239274999Y-144925001D02*
X218414999Y-144925001D01*
X246260000Y-137940000D02*
X239274999Y-144925001D01*
X218414999Y-144925001D02*
X216790000Y-146550000D01*
X216790000Y-146550000D02*
X190480000Y-146550000D01*
X190480000Y-146550000D02*
X188070000Y-148960000D01*
X188070000Y-148960000D02*
X185330000Y-148960000D01*
X185330000Y-148960000D02*
X180410000Y-148960000D01*
X91970000Y-148960000D02*
X86500000Y-143490000D01*
X180410000Y-148960000D02*
X140220000Y-148960000D01*
X140220000Y-148960000D02*
X91970000Y-148960000D01*
X140280000Y-148900000D02*
X140220000Y-148960000D01*
X140280000Y-142750000D02*
X140280000Y-148900000D01*
X101760000Y-52810000D02*
X101830000Y-52880000D01*
X98980000Y-52810000D02*
X101760000Y-52810000D01*
X96350000Y-50270000D02*
X98980000Y-50270000D01*
X91360000Y-47730000D02*
X93810000Y-47730000D01*
X93810000Y-47730000D02*
X96350000Y-50270000D01*
X98980000Y-51401370D02*
X98980000Y-52810000D01*
X98980000Y-50270000D02*
X98980000Y-51401370D01*
X98980000Y-53941370D02*
X98980000Y-55350000D01*
X98980000Y-52810000D02*
X98980000Y-53941370D01*
X131528630Y-127510000D02*
X119300000Y-127510000D01*
X132660000Y-127510000D02*
X131528630Y-127510000D01*
X119989999Y-134534999D02*
X119989999Y-134549999D01*
X119290000Y-133835000D02*
X119989999Y-134534999D01*
X120570000Y-135130000D02*
X132660000Y-135130000D01*
X119989999Y-134549999D02*
X120570000Y-135130000D01*
X111670000Y-136977500D02*
X103580000Y-136977500D01*
X103580000Y-136977500D02*
X103447500Y-136977500D01*
X103447500Y-136977500D02*
X101620000Y-135150000D01*
X148180000Y-122170000D02*
X148930000Y-121420000D01*
X107430000Y-122170000D02*
X148180000Y-122170000D01*
X101310000Y-120070000D02*
X105330000Y-120070000D01*
X105330000Y-120070000D02*
X107430000Y-122170000D01*
X150030000Y-88210000D02*
X159790000Y-88210000D01*
X155180000Y-60330000D02*
X159790000Y-60330000D01*
X153150000Y-121420000D02*
X148930000Y-121420000D01*
X209370000Y-113760000D02*
X208100000Y-115030000D01*
X212030000Y-113760000D02*
X209370000Y-113760000D01*
X156380000Y-118190000D02*
X153150000Y-121420000D01*
X208100000Y-115030000D02*
X165070000Y-115030000D01*
X165070000Y-115030000D02*
X161910000Y-118190000D01*
X161910000Y-118190000D02*
X156380000Y-118190000D01*
X163610000Y-43830000D02*
X177930000Y-43830000D01*
X159790000Y-45090000D02*
X162350000Y-45090000D01*
X162350000Y-45090000D02*
X163610000Y-43830000D01*
X134530000Y-45090000D02*
X159790000Y-45090000D01*
X133120000Y-43680000D02*
X134530000Y-45090000D01*
X124340000Y-45110000D02*
X125770000Y-43680000D01*
X125770000Y-43680000D02*
X133120000Y-43680000D01*
X227260000Y-71110000D02*
X228520000Y-69850000D01*
X233420000Y-69850000D02*
X234680000Y-71110000D01*
X234680000Y-71110000D02*
X238156666Y-71110000D01*
X225120000Y-71110000D02*
X227260000Y-71110000D01*
X214220000Y-71110000D02*
X215480000Y-69850000D01*
X245760000Y-70000000D02*
X247020000Y-71260000D01*
X221490000Y-71110000D02*
X225116666Y-71110000D01*
X220230000Y-69850000D02*
X221490000Y-71110000D01*
X241360000Y-70000000D02*
X245760000Y-70000000D01*
X247020000Y-71260000D02*
X251196666Y-71260000D01*
X212080000Y-71110000D02*
X214220000Y-71110000D01*
X238153332Y-71110000D02*
X240250000Y-71110000D01*
X215480000Y-69850000D02*
X220230000Y-69850000D01*
X228520000Y-69850000D02*
X233420000Y-69850000D01*
X240250000Y-71110000D02*
X241360000Y-70000000D01*
X208850000Y-43290000D02*
X212070000Y-43290000D01*
X207610000Y-42050000D02*
X208850000Y-43290000D01*
X188319949Y-42050000D02*
X207610000Y-42050000D01*
X185550000Y-43830000D02*
X186539949Y-43830000D01*
X186539949Y-43830000D02*
X188319949Y-42050000D01*
X212070000Y-43290000D02*
X213850000Y-43290000D01*
X213850000Y-43290000D02*
X214900000Y-42240000D01*
X214900000Y-42240000D02*
X220510000Y-42240000D01*
X220510000Y-42240000D02*
X221770000Y-43500000D01*
X221770000Y-43500000D02*
X225106666Y-43500000D01*
X235010000Y-43500000D02*
X238143332Y-43500000D01*
X233750000Y-42240000D02*
X235010000Y-43500000D01*
X228720000Y-42240000D02*
X233750000Y-42240000D01*
X225106666Y-43500000D02*
X227460000Y-43500000D01*
X227460000Y-43500000D02*
X228720000Y-42240000D01*
X247630000Y-43470000D02*
X251180000Y-43470000D01*
X239274702Y-43500000D02*
X239284702Y-43490000D01*
X238143332Y-43500000D02*
X239274702Y-43500000D01*
X239284702Y-43490000D02*
X240400000Y-43490000D01*
X240400000Y-43490000D02*
X241690000Y-42200000D01*
X241690000Y-42200000D02*
X246360000Y-42200000D01*
X246360000Y-42200000D02*
X247630000Y-43470000D01*
X227280000Y-68590000D02*
X228540000Y-67330000D01*
X233440000Y-67330000D02*
X234700000Y-68590000D01*
X234700000Y-68590000D02*
X238176666Y-68590000D01*
X225140000Y-68590000D02*
X227280000Y-68590000D01*
X214240000Y-68590000D02*
X215500000Y-67330000D01*
X245780000Y-67480000D02*
X247040000Y-68740000D01*
X221510000Y-68590000D02*
X225136666Y-68590000D01*
X220250000Y-67330000D02*
X221510000Y-68590000D01*
X241380000Y-67480000D02*
X245780000Y-67480000D01*
X247040000Y-68740000D02*
X251216666Y-68740000D01*
X212100000Y-68590000D02*
X214240000Y-68590000D01*
X238173332Y-68590000D02*
X240270000Y-68590000D01*
X215500000Y-67330000D02*
X220250000Y-67330000D01*
X228540000Y-67330000D02*
X233440000Y-67330000D01*
X240270000Y-68590000D02*
X241380000Y-67480000D01*
X209020000Y-40750000D02*
X212070000Y-40750000D01*
X207750000Y-39480000D02*
X209020000Y-40750000D01*
X184860001Y-46950001D02*
X184850001Y-46950001D01*
X185560000Y-47650000D02*
X184860001Y-46950001D01*
X184850001Y-46950001D02*
X184160000Y-46260000D01*
X184160000Y-46260000D02*
X184160000Y-43190000D01*
X184160000Y-43190000D02*
X187870000Y-39480000D01*
X187870000Y-39480000D02*
X207750000Y-39480000D01*
X247650000Y-40930000D02*
X251180000Y-40930000D01*
X247640000Y-40940000D02*
X247650000Y-40930000D01*
X246360000Y-39660000D02*
X247640000Y-40940000D01*
X241610000Y-39660000D02*
X246360000Y-39660000D01*
X238143332Y-40960000D02*
X240310000Y-40960000D01*
X240310000Y-40960000D02*
X241610000Y-39660000D01*
X221730000Y-40960000D02*
X225106666Y-40960000D01*
X220470000Y-39700000D02*
X221730000Y-40960000D01*
X215140000Y-39700000D02*
X220470000Y-39700000D01*
X212070000Y-40750000D02*
X214090000Y-40750000D01*
X214090000Y-40750000D02*
X215140000Y-39700000D01*
X235070000Y-40960000D02*
X238143332Y-40960000D01*
X233820000Y-39710000D02*
X235070000Y-40960000D01*
X228760000Y-39710000D02*
X233820000Y-39710000D01*
X225106666Y-40960000D02*
X227510000Y-40960000D01*
X227510000Y-40960000D02*
X228760000Y-39710000D01*
X177920000Y-47630000D02*
X177940000Y-47650000D01*
X167410000Y-47630000D02*
X177920000Y-47630000D01*
X163440000Y-47630000D02*
X167410000Y-47630000D01*
X133091370Y-47650000D02*
X133101370Y-47640000D01*
X131960000Y-47650000D02*
X133091370Y-47650000D01*
X133101370Y-47640000D02*
X141840000Y-47640000D01*
X141840000Y-47640000D02*
X143100000Y-48900000D01*
X143100000Y-48900000D02*
X162170000Y-48900000D01*
X162170000Y-48900000D02*
X163440000Y-47630000D01*
X202270000Y-45830000D02*
X204450000Y-45830000D01*
X185560000Y-51460000D02*
X196640000Y-51460000D01*
X196640000Y-51460000D02*
X202270000Y-45830000D01*
X215050000Y-46040000D02*
X217486666Y-46040000D01*
X213980000Y-47110000D02*
X215050000Y-46040000D01*
X208620000Y-47110000D02*
X213980000Y-47110000D01*
X204450000Y-45830000D02*
X207340000Y-45830000D01*
X207340000Y-45830000D02*
X208620000Y-47110000D01*
X241790000Y-46010000D02*
X243560000Y-46010000D01*
X240500000Y-47300000D02*
X241790000Y-46010000D01*
X235130000Y-47300000D02*
X240500000Y-47300000D01*
X230523332Y-46040000D02*
X233870000Y-46040000D01*
X233870000Y-46040000D02*
X235130000Y-47300000D01*
X241520000Y-73890000D02*
X243430000Y-73890000D01*
X240430000Y-74980000D02*
X241520000Y-73890000D01*
X234710000Y-74980000D02*
X240430000Y-74980000D01*
X233430000Y-73700000D02*
X234710000Y-74980000D01*
X228610000Y-73700000D02*
X233430000Y-73700000D01*
X227340000Y-74970000D02*
X228610000Y-73700000D01*
X243430000Y-73890000D02*
X243470000Y-73850000D01*
X221660000Y-74970000D02*
X227340000Y-74970000D01*
X220390000Y-73700000D02*
X221660000Y-74970000D01*
X204370000Y-73700000D02*
X207850000Y-73700000D01*
X204360000Y-73690000D02*
X204370000Y-73700000D01*
X207850000Y-73700000D02*
X209150000Y-75000000D01*
X209150000Y-75000000D02*
X214020000Y-75000000D01*
X214020000Y-75000000D02*
X215320000Y-73700000D01*
X215320000Y-73700000D02*
X220390000Y-73700000D01*
X228333590Y-46040000D02*
X229391962Y-46040000D01*
X229391962Y-46040000D02*
X230523332Y-46040000D01*
X227053590Y-47320000D02*
X228333590Y-46040000D01*
X221620000Y-47320000D02*
X227053590Y-47320000D01*
X220340000Y-46040000D02*
X221620000Y-47320000D01*
X217486666Y-46040000D02*
X220340000Y-46040000D01*
X204450000Y-73670000D02*
X200010000Y-73670000D01*
X200010000Y-73670000D02*
X199980000Y-73700000D01*
X162853334Y-51440000D02*
X177940000Y-51440000D01*
X161593334Y-52700000D02*
X162853334Y-51440000D01*
X160931370Y-52700000D02*
X161593334Y-52700000D01*
X159790000Y-52710000D02*
X160921370Y-52710000D01*
X160921370Y-52710000D02*
X160931370Y-52700000D01*
X137420000Y-52710000D02*
X159790000Y-52710000D01*
X136180000Y-51470000D02*
X137420000Y-52710000D01*
X128160000Y-51470000D02*
X136180000Y-51470000D01*
X124340000Y-52730000D02*
X126900000Y-52730000D01*
X126900000Y-52730000D02*
X128160000Y-51470000D01*
X177920000Y-55250000D02*
X177940000Y-55270000D01*
X167410000Y-55250000D02*
X177920000Y-55250000D01*
X164350000Y-55250000D02*
X167410000Y-55250000D01*
X163080000Y-53980000D02*
X164350000Y-55250000D01*
X156580000Y-53980000D02*
X163080000Y-53980000D01*
X131960000Y-55270000D02*
X155290000Y-55270000D01*
X155290000Y-55270000D02*
X156580000Y-53980000D01*
X208610000Y-45830000D02*
X212070000Y-45830000D01*
X207350000Y-44570000D02*
X208610000Y-45830000D01*
X194180000Y-44570000D02*
X207350000Y-44570000D01*
X188700000Y-50050000D02*
X194180000Y-44570000D01*
X184360000Y-54070000D02*
X184360000Y-50770000D01*
X185560000Y-55270000D02*
X184360000Y-54070000D01*
X184360000Y-50770000D02*
X185070000Y-50060000D01*
X185070000Y-50060000D02*
X185677002Y-50060000D01*
X185677002Y-50060000D02*
X185687002Y-50050000D01*
X185687002Y-50050000D02*
X188700000Y-50050000D01*
X248140000Y-46010000D02*
X251180000Y-46010000D01*
X246870000Y-44740000D02*
X248140000Y-46010000D01*
X241700000Y-44740000D02*
X246870000Y-44740000D01*
X238143332Y-46040000D02*
X240400000Y-46040000D01*
X240400000Y-46040000D02*
X241700000Y-44740000D01*
X235200000Y-46040000D02*
X238143332Y-46040000D01*
X233930000Y-44770000D02*
X235200000Y-46040000D01*
X228750000Y-44770000D02*
X233930000Y-44770000D01*
X227500000Y-46020000D02*
X228750000Y-44770000D01*
X225106666Y-46040000D02*
X225126666Y-46020000D01*
X225126666Y-46020000D02*
X227500000Y-46020000D01*
X221600000Y-46040000D02*
X225106666Y-46040000D01*
X220330000Y-44770000D02*
X221600000Y-46040000D01*
X215020000Y-44770000D02*
X220330000Y-44770000D01*
X212070000Y-45830000D02*
X213960000Y-45830000D01*
X213960000Y-45830000D02*
X215020000Y-44770000D01*
X234700000Y-73680000D02*
X238176666Y-73680000D01*
X233440000Y-72420000D02*
X234700000Y-73680000D01*
X228540000Y-72420000D02*
X233440000Y-72420000D01*
X225140000Y-73680000D02*
X227280000Y-73680000D01*
X227280000Y-73680000D02*
X228540000Y-72420000D01*
X247040000Y-73830000D02*
X251216666Y-73830000D01*
X245780000Y-72570000D02*
X247040000Y-73830000D01*
X241380000Y-72570000D02*
X245780000Y-72570000D01*
X238173332Y-73680000D02*
X240270000Y-73680000D01*
X240270000Y-73680000D02*
X241380000Y-72570000D01*
X221510000Y-73680000D02*
X225136666Y-73680000D01*
X220250000Y-72420000D02*
X221510000Y-73680000D01*
X215500000Y-72420000D02*
X220250000Y-72420000D01*
X212100000Y-73680000D02*
X214240000Y-73680000D01*
X214240000Y-73680000D02*
X215500000Y-72420000D01*
X251180000Y-46010000D02*
X251979999Y-46809999D01*
X254690001Y-49520001D02*
X254690001Y-51999999D01*
X251979999Y-46809999D02*
X254690001Y-49520001D01*
X254690001Y-51999999D02*
X254690000Y-52000000D01*
X254690000Y-52000000D02*
X254690000Y-73840000D01*
X254690000Y-73840000D02*
X254700000Y-73850000D01*
X176890051Y-70560000D02*
X176860051Y-70530000D01*
X177880000Y-70560000D02*
X176890051Y-70560000D01*
X176860051Y-70530000D02*
X166690000Y-70530000D01*
X164210000Y-73010000D02*
X159790000Y-73010000D01*
X166690000Y-70530000D02*
X164210000Y-73010000D01*
X125451370Y-72350000D02*
X125461370Y-72360000D01*
X124320000Y-72350000D02*
X125451370Y-72350000D01*
X125461370Y-72360000D02*
X127320000Y-72360000D01*
X127320000Y-72360000D02*
X128730000Y-70950000D01*
X128730000Y-70950000D02*
X142480000Y-70950000D01*
X144540000Y-73010000D02*
X159790000Y-73010000D01*
X142480000Y-70950000D02*
X144540000Y-73010000D01*
X204450000Y-48370000D02*
X207950000Y-48370000D01*
X207950000Y-48370000D02*
X209220000Y-49640000D01*
X209220000Y-49640000D02*
X213990000Y-49640000D01*
X213990000Y-49640000D02*
X215060000Y-48570000D01*
X215070000Y-48580000D02*
X217486666Y-48580000D01*
X215060000Y-48570000D02*
X215070000Y-48580000D01*
X228740000Y-48580000D02*
X230523332Y-48580000D01*
X227450000Y-49870000D02*
X228740000Y-48580000D01*
X221640000Y-49870000D02*
X227450000Y-49870000D01*
X217486666Y-48580000D02*
X220350000Y-48580000D01*
X220350000Y-48580000D02*
X221640000Y-49870000D01*
X241710000Y-48550000D02*
X243560000Y-48550000D01*
X240420000Y-49840000D02*
X241710000Y-48550000D01*
X235020000Y-49840000D02*
X240420000Y-49840000D01*
X230523332Y-48580000D02*
X233760000Y-48580000D01*
X233760000Y-48580000D02*
X235020000Y-49840000D01*
X243520000Y-76410000D02*
X243560000Y-76370000D01*
X241460000Y-76410000D02*
X243520000Y-76410000D01*
X240370000Y-77500000D02*
X241460000Y-76410000D01*
X235010000Y-77500000D02*
X240370000Y-77500000D01*
X228400000Y-76220000D02*
X233730000Y-76220000D01*
X227130000Y-77490000D02*
X228400000Y-76220000D01*
X221450000Y-77490000D02*
X227130000Y-77490000D01*
X204460000Y-76220000D02*
X207940000Y-76220000D01*
X204450000Y-76210000D02*
X204460000Y-76220000D01*
X233730000Y-76220000D02*
X235010000Y-77500000D01*
X209240000Y-77520000D02*
X214210000Y-77520000D01*
X207940000Y-76220000D02*
X209240000Y-77520000D01*
X214210000Y-77520000D02*
X215510000Y-76220000D01*
X220180000Y-76220000D02*
X221450000Y-77490000D01*
X215510000Y-76220000D02*
X220180000Y-76220000D01*
X204440000Y-76200000D02*
X204450000Y-76210000D01*
X200900000Y-76200000D02*
X204440000Y-76200000D01*
X188740000Y-67320000D02*
X185500000Y-70560000D01*
X200900000Y-67320000D02*
X188740000Y-67320000D01*
X171590000Y-75550000D02*
X167410000Y-75550000D01*
X177880000Y-73916666D02*
X173223334Y-73916666D01*
X173223334Y-73916666D02*
X171590000Y-75550000D01*
X164120000Y-75550000D02*
X167410000Y-75550000D01*
X162840000Y-76830000D02*
X164120000Y-75550000D01*
X136940000Y-76830000D02*
X162840000Y-76830000D01*
X131940000Y-74890000D02*
X135000000Y-74890000D01*
X135000000Y-74890000D02*
X136940000Y-76830000D01*
X220440000Y-68560000D02*
X221710000Y-69830000D01*
X207950000Y-68610000D02*
X209250000Y-69910000D01*
X240360000Y-69840000D02*
X241400000Y-68800000D01*
X228400000Y-68560000D02*
X233690000Y-68560000D01*
X215250000Y-68560000D02*
X220440000Y-68560000D01*
X234970000Y-69840000D02*
X240360000Y-69840000D01*
X213900000Y-69910000D02*
X215250000Y-68560000D01*
X204520000Y-68610000D02*
X207950000Y-68610000D01*
X241400000Y-68800000D02*
X243540000Y-68800000D01*
X204490000Y-68580000D02*
X204520000Y-68610000D01*
X227130000Y-69830000D02*
X228400000Y-68560000D01*
X209250000Y-69910000D02*
X213900000Y-69910000D01*
X221710000Y-69830000D02*
X227130000Y-69830000D01*
X233690000Y-68560000D02*
X234970000Y-69840000D01*
X243540000Y-68800000D02*
X243600000Y-68740000D01*
X233820000Y-40960000D02*
X230523332Y-40960000D01*
X235100000Y-42240000D02*
X233820000Y-40960000D01*
X240270000Y-42240000D02*
X235100000Y-42240000D01*
X243560000Y-40930000D02*
X241580000Y-40930000D01*
X241580000Y-40930000D02*
X240270000Y-42240000D01*
X229391962Y-40960000D02*
X229381962Y-40970000D01*
X230523332Y-40960000D02*
X229391962Y-40960000D01*
X229381962Y-40970000D02*
X228660000Y-40970000D01*
X228660000Y-40970000D02*
X227380000Y-42250000D01*
X227380000Y-42250000D02*
X221650000Y-42250000D01*
X220360000Y-40960000D02*
X217486666Y-40960000D01*
X221650000Y-42250000D02*
X220360000Y-40960000D01*
X207670000Y-40750000D02*
X204450000Y-40750000D01*
X208950000Y-42030000D02*
X207670000Y-40750000D01*
X214040000Y-42030000D02*
X208950000Y-42030000D01*
X217486666Y-40960000D02*
X215110000Y-40960000D01*
X215110000Y-40960000D02*
X214040000Y-42030000D01*
X186493334Y-73916666D02*
X185500000Y-73916666D01*
X204450000Y-68590000D02*
X191850000Y-68590000D01*
X191820000Y-68590000D02*
X186493334Y-73916666D01*
X191850000Y-68590000D02*
X191820000Y-68590000D01*
X204420000Y-40720000D02*
X204450000Y-40750000D01*
X200280000Y-40720000D02*
X204420000Y-40720000D01*
X228770000Y-38420000D02*
X230523332Y-38420000D01*
X227500000Y-39690000D02*
X228770000Y-38420000D01*
X221820000Y-39690000D02*
X227500000Y-39690000D01*
X217486666Y-38420000D02*
X220550000Y-38420000D01*
X220550000Y-38420000D02*
X221820000Y-39690000D01*
X241520000Y-38390000D02*
X243560000Y-38390000D01*
X240210000Y-39700000D02*
X241520000Y-38390000D01*
X235080000Y-39700000D02*
X240210000Y-39700000D01*
X230523332Y-38420000D02*
X233800000Y-38420000D01*
X233800000Y-38420000D02*
X235080000Y-39700000D01*
X243500000Y-66270000D02*
X243560000Y-66210000D01*
X241360000Y-66270000D02*
X243500000Y-66270000D01*
X240320000Y-67310000D02*
X241360000Y-66270000D01*
X234930000Y-67310000D02*
X240320000Y-67310000D01*
X233650000Y-66030000D02*
X234930000Y-67310000D01*
X228360000Y-66030000D02*
X233650000Y-66030000D01*
X227090000Y-67300000D02*
X228360000Y-66030000D01*
X221670000Y-67300000D02*
X227090000Y-67300000D01*
X220400000Y-66030000D02*
X221670000Y-67300000D01*
X204480000Y-66080000D02*
X207910000Y-66080000D01*
X204450000Y-66050000D02*
X204480000Y-66080000D01*
X207910000Y-66080000D02*
X209210000Y-67380000D01*
X209210000Y-67380000D02*
X213860000Y-67380000D01*
X213860000Y-67380000D02*
X215210000Y-66030000D01*
X215210000Y-66030000D02*
X220400000Y-66030000D01*
X209080000Y-39490000D02*
X213910000Y-39490000D01*
X204450000Y-38210000D02*
X207800000Y-38210000D01*
X207800000Y-38210000D02*
X209080000Y-39490000D01*
X215040000Y-38360000D02*
X217486666Y-38360000D01*
X213910000Y-39490000D02*
X215040000Y-38360000D01*
X184020000Y-75793332D02*
X185500000Y-77273332D01*
X184020000Y-69830000D02*
X184020000Y-75793332D01*
X204450000Y-66050000D02*
X192950000Y-66050000D01*
X187800000Y-66050000D02*
X184020000Y-69830000D01*
X192950000Y-66050000D02*
X187800000Y-66050000D01*
X163100000Y-80630000D02*
X159790000Y-80630000D01*
X164350000Y-79380000D02*
X163100000Y-80630000D01*
X171670000Y-79380000D02*
X164350000Y-79380000D01*
X177880000Y-77273332D02*
X173776668Y-77273332D01*
X173776668Y-77273332D02*
X171670000Y-79380000D01*
X136650000Y-80630000D02*
X159790000Y-80630000D01*
X134730000Y-78710000D02*
X136650000Y-80630000D01*
X128470000Y-78710000D02*
X134730000Y-78710000D01*
X124320000Y-79970000D02*
X127210000Y-79970000D01*
X127210000Y-79970000D02*
X128470000Y-78710000D01*
X209110000Y-44590000D02*
X213940000Y-44590000D01*
X204480000Y-43310000D02*
X207830000Y-43310000D01*
X215070000Y-43460000D02*
X217516666Y-43460000D01*
X213940000Y-44590000D02*
X215070000Y-43460000D01*
X207830000Y-43310000D02*
X209110000Y-44590000D01*
X233830000Y-43520000D02*
X235110000Y-44800000D01*
X241550000Y-43490000D02*
X243590000Y-43490000D01*
X230553332Y-43520000D02*
X233830000Y-43520000D01*
X240240000Y-44800000D02*
X241550000Y-43490000D01*
X235110000Y-44800000D02*
X240240000Y-44800000D01*
X220580000Y-43520000D02*
X221850000Y-44790000D01*
X228800000Y-43520000D02*
X230553332Y-43520000D01*
X217516666Y-43520000D02*
X220580000Y-43520000D01*
X221850000Y-44790000D02*
X227530000Y-44790000D01*
X227530000Y-44790000D02*
X228800000Y-43520000D01*
X243550000Y-71300000D02*
X243560000Y-71290000D01*
X241260000Y-71300000D02*
X243550000Y-71300000D01*
X240140000Y-72420000D02*
X241260000Y-71300000D01*
X234660000Y-72420000D02*
X240140000Y-72420000D01*
X233380000Y-71140000D02*
X234660000Y-72420000D01*
X228700000Y-71140000D02*
X233380000Y-71140000D01*
X227430000Y-72410000D02*
X228700000Y-71140000D01*
X221750000Y-72410000D02*
X227430000Y-72410000D01*
X220480000Y-71140000D02*
X221750000Y-72410000D01*
X204470000Y-71150000D02*
X207950000Y-71150000D01*
X204450000Y-71130000D02*
X204470000Y-71150000D01*
X207950000Y-71150000D02*
X209240000Y-72440000D01*
X209240000Y-72440000D02*
X214070000Y-72440000D01*
X214070000Y-72440000D02*
X215370000Y-71140000D01*
X215370000Y-71140000D02*
X220480000Y-71140000D01*
X204450000Y-71130000D02*
X198560000Y-71130000D01*
X192340002Y-80629998D02*
X185500000Y-80629998D01*
X197990000Y-74980000D02*
X192340002Y-80629998D01*
X198560000Y-71130000D02*
X197990000Y-71130000D01*
X197990000Y-71130000D02*
X197990000Y-74980000D01*
X171360000Y-83170000D02*
X167410000Y-83170000D01*
X173900000Y-80630000D02*
X171360000Y-83170000D01*
X176890049Y-80630000D02*
X173900000Y-80630000D01*
X177880000Y-80629998D02*
X176890051Y-80629998D01*
X176890051Y-80629998D02*
X176890049Y-80630000D01*
X164270000Y-83170000D02*
X167410000Y-83170000D01*
X163000000Y-84440000D02*
X164270000Y-83170000D01*
X154520000Y-84440000D02*
X163000000Y-84440000D01*
X131940000Y-82510000D02*
X152590000Y-82510000D01*
X152590000Y-82510000D02*
X154520000Y-84440000D01*
X221380000Y-51120000D02*
X225106666Y-51120000D01*
X220120000Y-49860000D02*
X221380000Y-51120000D01*
X215370000Y-49860000D02*
X220120000Y-49860000D01*
X212070000Y-50910000D02*
X214320000Y-50910000D01*
X214320000Y-50910000D02*
X215370000Y-49860000D01*
X234390000Y-51120000D02*
X238143332Y-51120000D01*
X233120000Y-49850000D02*
X234390000Y-51120000D01*
X228780000Y-49850000D02*
X233120000Y-49850000D01*
X225106666Y-51120000D02*
X227510000Y-51120000D01*
X227510000Y-51120000D02*
X228780000Y-49850000D01*
X248010000Y-51090000D02*
X251180000Y-51090000D01*
X246760000Y-49840000D02*
X248010000Y-51090000D01*
X241930000Y-49840000D02*
X246760000Y-49840000D01*
X238143332Y-51120000D02*
X240650000Y-51120000D01*
X240650000Y-51120000D02*
X241930000Y-49840000D01*
X248190000Y-78900000D02*
X251186666Y-78900000D01*
X246930000Y-77640000D02*
X248190000Y-78900000D01*
X241550000Y-77640000D02*
X246930000Y-77640000D01*
X238143332Y-78750000D02*
X240440000Y-78750000D01*
X240440000Y-78750000D02*
X241550000Y-77640000D01*
X234790000Y-78750000D02*
X238146666Y-78750000D01*
X233530000Y-77490000D02*
X234790000Y-78750000D01*
X228510000Y-77490000D02*
X233530000Y-77490000D01*
X225110000Y-78750000D02*
X227250000Y-78750000D01*
X227250000Y-78750000D02*
X228510000Y-77490000D01*
X221410000Y-78750000D02*
X225106666Y-78750000D01*
X220150000Y-77490000D02*
X221410000Y-78750000D01*
X215470000Y-77490000D02*
X220150000Y-77490000D01*
X212070000Y-78750000D02*
X214210000Y-78750000D01*
X214210000Y-78750000D02*
X215470000Y-77490000D01*
X253920000Y-76170000D02*
X251180000Y-78910000D01*
X253965000Y-51080000D02*
X253920000Y-51125000D01*
X253920000Y-51125000D02*
X253920000Y-76170000D01*
X190836670Y-87343330D02*
X185500000Y-87343330D01*
X200700000Y-77480000D02*
X190836670Y-87343330D01*
X207710000Y-77480000D02*
X200700000Y-77480000D01*
X212070000Y-78750000D02*
X208980000Y-78750000D01*
X208980000Y-78750000D02*
X207710000Y-77480000D01*
X232710000Y-82570000D02*
X233970000Y-83830000D01*
X228510000Y-82570000D02*
X232710000Y-82570000D01*
X227250000Y-83830000D02*
X228510000Y-82570000D01*
X225110000Y-83830000D02*
X227250000Y-83830000D01*
X233970000Y-83830000D02*
X238146666Y-83830000D01*
X212070000Y-55990000D02*
X214190000Y-55990000D01*
X214190000Y-55990000D02*
X215250000Y-54930000D01*
X215250000Y-54930000D02*
X220240000Y-54930000D01*
X221510000Y-56200000D02*
X225106666Y-56200000D01*
X220240000Y-54930000D02*
X221510000Y-56200000D01*
X234560000Y-56210000D02*
X238156666Y-56210000D01*
X233290000Y-54940000D02*
X234560000Y-56210000D01*
X228300000Y-54940000D02*
X233290000Y-54940000D01*
X225106666Y-56200000D02*
X227040000Y-56200000D01*
X227040000Y-56200000D02*
X228300000Y-54940000D01*
X247640000Y-56160000D02*
X251236666Y-56160000D01*
X246370000Y-54890000D02*
X247640000Y-56160000D01*
X241380000Y-54890000D02*
X246370000Y-54890000D01*
X238143332Y-56200000D02*
X240070000Y-56200000D01*
X240070000Y-56200000D02*
X241380000Y-54890000D01*
X212070000Y-83830000D02*
X214210000Y-83830000D01*
X214210000Y-83830000D02*
X215470000Y-82570000D01*
X215470000Y-82570000D02*
X219670000Y-82570000D01*
X220930000Y-83830000D02*
X225106666Y-83830000D01*
X219670000Y-82570000D02*
X220930000Y-83830000D01*
X248050000Y-83980000D02*
X251186666Y-83980000D01*
X246790000Y-82720000D02*
X248050000Y-83980000D01*
X241550000Y-82720000D02*
X246790000Y-82720000D01*
X238143332Y-83830000D02*
X240440000Y-83830000D01*
X240440000Y-83830000D02*
X241550000Y-82720000D01*
X185550000Y-93490000D02*
X188340000Y-93490000D01*
X188340000Y-93490000D02*
X195470000Y-86360000D01*
X195470000Y-86360000D02*
X206570000Y-86360000D01*
X209100000Y-83830000D02*
X212070000Y-83830000D01*
X206570000Y-86360000D02*
X209100000Y-83830000D01*
X212070000Y-55990000D02*
X211020000Y-55990000D01*
X211020000Y-55990000D02*
X208860000Y-55990000D01*
X208860000Y-55990000D02*
X208790000Y-55990000D01*
X208790000Y-55990000D02*
X206550000Y-58230000D01*
X206550000Y-58230000D02*
X198990000Y-58230000D01*
X156700000Y-101010000D02*
X159790000Y-101010000D01*
X99080000Y-97300000D02*
X99990000Y-98210000D01*
X87650000Y-97300000D02*
X99080000Y-97300000D01*
X99990000Y-98210000D02*
X119960000Y-98210000D01*
X119960000Y-98210000D02*
X123835001Y-102085001D01*
X123835001Y-102085001D02*
X155624999Y-102085001D01*
X155624999Y-102085001D02*
X156700000Y-101010000D01*
X96390000Y-60430000D02*
X98980000Y-60430000D01*
X91360000Y-57890000D02*
X93850000Y-57890000D01*
X93850000Y-57890000D02*
X96390000Y-60430000D01*
X131940000Y-90130000D02*
X158050000Y-90130000D01*
X158050000Y-90130000D02*
X158650000Y-89530000D01*
X158650000Y-89530000D02*
X161990000Y-89530000D01*
X161990000Y-89530000D02*
X163250000Y-90790000D01*
X163250000Y-90790000D02*
X167410000Y-90790000D01*
X204410000Y-111220000D02*
X192480000Y-111220000D01*
X192480000Y-111220000D02*
X192470000Y-111230000D01*
X167420000Y-62860000D02*
X167410000Y-62870000D01*
X184050000Y-62860000D02*
X167420000Y-62860000D01*
X167410000Y-62870000D02*
X164570000Y-62870000D01*
X164570000Y-62870000D02*
X163280000Y-61580000D01*
X163280000Y-61580000D02*
X156200000Y-61580000D01*
X156200000Y-61580000D02*
X154890000Y-62890000D01*
X154890000Y-62890000D02*
X151400000Y-62890000D01*
X151400000Y-62890000D02*
X131960000Y-62890000D01*
X85470000Y-96480000D02*
X86970000Y-94980000D01*
X91360000Y-132590000D02*
X85470000Y-126700000D01*
X85470000Y-126700000D02*
X85470000Y-96480000D01*
X127870000Y-90130000D02*
X131940000Y-90130000D01*
X126520000Y-91480000D02*
X127870000Y-90130000D01*
X101360000Y-91480000D02*
X126520000Y-91480000D01*
X86970000Y-94980000D02*
X97860000Y-94980000D01*
X97860000Y-94980000D02*
X101360000Y-91480000D01*
X154300000Y-83170000D02*
X159790000Y-83170000D01*
X98980000Y-74170000D02*
X103540000Y-74170000D01*
X111550000Y-74380000D02*
X118420000Y-81250000D01*
X103540000Y-74170000D02*
X103750000Y-74380000D01*
X118420000Y-81250000D02*
X152380000Y-81250000D01*
X103750000Y-74380000D02*
X111550000Y-74380000D01*
X152380000Y-81250000D02*
X154300000Y-83170000D01*
X180650000Y-102270000D02*
X176865000Y-98485000D01*
X192220000Y-102270000D02*
X180650000Y-102270000D01*
X193320000Y-103370000D02*
X192220000Y-102270000D01*
X201590000Y-103370000D02*
X193320000Y-103370000D01*
X231050000Y-98550000D02*
X229770000Y-99830000D01*
X220030000Y-102330000D02*
X202630000Y-102330000D01*
X222530000Y-99830000D02*
X220030000Y-102330000D01*
X202630000Y-102330000D02*
X201590000Y-103370000D01*
X229770000Y-99830000D02*
X222530000Y-99830000D01*
X233715000Y-98550000D02*
X231050000Y-98550000D01*
D28*
X176820000Y-98440000D02*
X176865000Y-98485000D01*
X131290000Y-98440000D02*
X176820000Y-98440000D01*
X129260000Y-100470000D02*
X131290000Y-98440000D01*
X123730000Y-100470000D02*
X129260000Y-100470000D01*
X101000000Y-97400000D02*
X120660000Y-97400000D01*
X120660000Y-97400000D02*
X123730000Y-100470000D01*
D27*
X98980000Y-81790000D02*
X109520000Y-81790000D01*
X138350000Y-75550000D02*
X159790000Y-75550000D01*
X109530000Y-73590000D02*
X136390000Y-73590000D01*
X136390000Y-73590000D02*
X138350000Y-75550000D01*
X98980000Y-86870000D02*
X114340000Y-86870000D01*
X222270000Y-98550000D02*
X226095000Y-98550000D01*
X150310000Y-92840000D02*
X151450000Y-93980000D01*
X133450000Y-92840000D02*
X150310000Y-92840000D01*
X127900000Y-98390000D02*
X133450000Y-92840000D01*
X123250000Y-98390000D02*
X127900000Y-98390000D01*
X114340000Y-94000000D02*
X118860000Y-94000000D01*
X118860000Y-94000000D02*
X123250000Y-98390000D01*
X151450000Y-93980000D02*
X157210000Y-93980000D01*
X157210000Y-93980000D02*
X161200000Y-97970000D01*
X161200000Y-97970000D02*
X177840000Y-97970000D01*
X177840000Y-97970000D02*
X179040000Y-99170000D01*
X179040000Y-99170000D02*
X189060000Y-99170000D01*
X189060000Y-99170000D02*
X190150000Y-98080000D01*
X190150000Y-98080000D02*
X193950000Y-98080000D01*
X193950000Y-98080000D02*
X195670000Y-99800000D01*
X195670000Y-99800000D02*
X221020000Y-99800000D01*
X221020000Y-99800000D02*
X222270000Y-98550000D01*
X105480000Y-106090000D02*
X111560000Y-106090000D01*
X104200000Y-104810000D02*
X105480000Y-106090000D01*
X95080000Y-104810000D02*
X104200000Y-104810000D01*
X91360000Y-103550000D02*
X93820000Y-103550000D01*
X93820000Y-103550000D02*
X95080000Y-104810000D01*
X113260000Y-106090000D02*
X111560000Y-106090000D01*
X164960000Y-108630000D02*
X163680000Y-109910000D01*
X167410000Y-108630000D02*
X164960000Y-108630000D01*
X163680000Y-109910000D02*
X131670000Y-109910000D01*
X131670000Y-109910000D02*
X131660000Y-109900000D01*
X131660000Y-109900000D02*
X117070000Y-109900000D01*
X117070000Y-109900000D02*
X113260000Y-106090000D01*
X164130000Y-106090000D02*
X167410000Y-106090000D01*
X120311370Y-108630000D02*
X120321370Y-108620000D01*
X119180000Y-108630000D02*
X120311370Y-108630000D01*
X120321370Y-108620000D02*
X127950000Y-108620000D01*
X127950000Y-108620000D02*
X129250000Y-107320000D01*
X129250000Y-107320000D02*
X162900000Y-107320000D01*
X162900000Y-107320000D02*
X164130000Y-106090000D01*
X121950000Y-111170000D02*
X119180000Y-111170000D01*
X128260000Y-111170000D02*
X121950000Y-111170000D01*
X129490000Y-112400000D02*
X128260000Y-111170000D01*
X147710000Y-112400000D02*
X129490000Y-112400000D01*
X157420000Y-111140000D02*
X148970000Y-111140000D01*
X148970000Y-111140000D02*
X147710000Y-112400000D01*
D28*
X136470000Y-106040000D02*
X139830000Y-106040000D01*
X135342999Y-104912999D02*
X136470000Y-106040000D01*
X112359999Y-101819999D02*
X115452999Y-104912999D01*
X111560000Y-101010000D02*
X112359999Y-101809999D01*
X112359999Y-101809999D02*
X112359999Y-101819999D01*
X127047001Y-104912999D02*
X135342999Y-104912999D01*
X115452999Y-104912999D02*
X127047001Y-104912999D01*
D27*
X90560001Y-126710001D02*
X90550001Y-126710001D01*
X91360000Y-127510000D02*
X90560001Y-126710001D01*
X90550001Y-126710001D02*
X88620000Y-124780000D01*
X88620000Y-124780000D02*
X88620000Y-99430000D01*
X88620000Y-99430000D02*
X89160000Y-98890000D01*
X89160000Y-98890000D02*
X113150000Y-98890000D01*
X113150000Y-98890000D02*
X116550000Y-102290000D01*
X116550000Y-102290000D02*
X122430000Y-102290000D01*
X123640000Y-103500000D02*
X132210000Y-103500000D01*
X122430000Y-102290000D02*
X123640000Y-103500000D01*
X99779999Y-134330001D02*
X99779999Y-134300001D01*
X98980000Y-135130000D02*
X99779999Y-134330001D01*
X99779999Y-134300001D02*
X101820000Y-132260000D01*
X101820000Y-132260000D02*
X129130000Y-132260000D01*
X129130000Y-132260000D02*
X130070000Y-131320000D01*
X132060000Y-131320000D02*
X132070000Y-131330000D01*
X130070000Y-131320000D02*
X132060000Y-131320000D01*
X132070000Y-131330000D02*
X145340000Y-131330000D01*
X99779999Y-129250001D02*
X99779999Y-129240001D01*
X98980000Y-130050000D02*
X99779999Y-129250001D01*
X99779999Y-129240001D02*
X102535001Y-126484999D01*
X102535001Y-126484999D02*
X104000000Y-125020000D01*
X104000000Y-125020000D02*
X111290000Y-125020000D01*
X111290000Y-125020000D02*
X111810000Y-125540000D01*
X111810000Y-125540000D02*
X142140000Y-125540000D01*
X142140000Y-125540000D02*
X143140000Y-126540000D01*
X163970000Y-103550000D02*
X167410000Y-103550000D01*
X162690000Y-102270000D02*
X163970000Y-103550000D01*
X156900000Y-102270000D02*
X162690000Y-102270000D01*
X148280000Y-104810000D02*
X154360000Y-104810000D01*
X154360000Y-104810000D02*
X156900000Y-102270000D01*
X167410000Y-103550000D02*
X179490000Y-103550000D01*
X179490000Y-103550000D02*
X179600000Y-103660000D01*
X195520000Y-96010000D02*
X198720000Y-96010000D01*
X182620000Y-97960000D02*
X183220000Y-98560000D01*
X179600000Y-97960000D02*
X182620000Y-97960000D01*
X188780000Y-98560000D02*
X189950000Y-97390000D01*
X198720000Y-96010000D02*
X226095000Y-96010000D01*
X189950000Y-97390000D02*
X194140000Y-97390000D01*
X183220000Y-98560000D02*
X188780000Y-98560000D01*
X194140000Y-97390000D02*
X195520000Y-96010000D01*
X162590000Y-103550000D02*
X163860000Y-104820000D01*
X159790000Y-103550000D02*
X162590000Y-103550000D01*
X186240000Y-108630000D02*
X189270000Y-108630000D01*
X163860000Y-104820000D02*
X169260000Y-104820000D01*
X169260000Y-104820000D02*
X171810000Y-107370000D01*
X171810000Y-107370000D02*
X184980000Y-107370000D01*
X184980000Y-107370000D02*
X186240000Y-108630000D01*
X167410000Y-113710000D02*
X181650000Y-113710000D01*
X168460000Y-142750000D02*
X168470000Y-142740000D01*
X167410000Y-142750000D02*
X168460000Y-142750000D01*
X168470000Y-142740000D02*
X180630000Y-142740000D01*
X180630000Y-142740000D02*
X182720000Y-140650000D01*
X168541370Y-140210000D02*
X168551370Y-140220000D01*
X167410000Y-140210000D02*
X168541370Y-140210000D01*
X168551370Y-140220000D02*
X178420000Y-140220000D01*
X178420000Y-140220000D02*
X180220000Y-138420000D01*
X192420000Y-103550000D02*
X189270000Y-103550000D01*
X193720000Y-104850000D02*
X192420000Y-103550000D01*
X207460000Y-104850000D02*
X193720000Y-104850000D01*
X210020000Y-107410000D02*
X207460000Y-104850000D01*
X224340000Y-108750000D02*
X223000000Y-107410000D01*
X223000000Y-107410000D02*
X210020000Y-107410000D01*
X215220000Y-103600000D02*
X212030000Y-103600000D01*
X216540000Y-104920000D02*
X215220000Y-103600000D01*
X229500000Y-104920000D02*
X216540000Y-104920000D01*
X233715000Y-106170000D02*
X230750000Y-106170000D01*
X230750000Y-106170000D02*
X229500000Y-104920000D01*
X212060000Y-106170000D02*
X212030000Y-106140000D01*
X226095000Y-106170000D02*
X212060000Y-106170000D01*
D26*
X79800000Y-118520000D02*
X79800000Y-111230000D01*
X78830000Y-126010000D02*
X78830000Y-119490000D01*
X78830000Y-119490000D02*
X79800000Y-118520000D01*
X228650000Y-148330000D02*
X232540000Y-152220000D01*
X198360000Y-148330000D02*
X228650000Y-148330000D01*
X78830000Y-127424213D02*
X78860000Y-127454213D01*
X78830000Y-126010000D02*
X78830000Y-127424213D01*
X78860000Y-127454213D02*
X78860000Y-138150000D01*
X78860000Y-138150000D02*
X90670000Y-149960000D01*
X90670000Y-149960000D02*
X196730000Y-149960000D01*
X196730000Y-149960000D02*
X198360000Y-148330000D01*
X232540000Y-152220000D02*
X232540000Y-152990000D01*
X232540000Y-152990000D02*
X232540000Y-160050000D01*
D27*
X227260000Y-76230000D02*
X228520000Y-74970000D01*
X233420000Y-74970000D02*
X234680000Y-76230000D01*
X234680000Y-76230000D02*
X238156666Y-76230000D01*
X225120000Y-76230000D02*
X227260000Y-76230000D01*
X214220000Y-76230000D02*
X215480000Y-74970000D01*
X245760000Y-75120000D02*
X247020000Y-76380000D01*
X221490000Y-76230000D02*
X225116666Y-76230000D01*
X220230000Y-74970000D02*
X221490000Y-76230000D01*
X241360000Y-75120000D02*
X245760000Y-75120000D01*
X247020000Y-76380000D02*
X251196666Y-76380000D01*
X212080000Y-76230000D02*
X214220000Y-76230000D01*
X238153332Y-76230000D02*
X240250000Y-76230000D01*
X215480000Y-74970000D02*
X220230000Y-74970000D01*
X228520000Y-74970000D02*
X233420000Y-74970000D01*
X240250000Y-76230000D02*
X241360000Y-75120000D01*
X212070000Y-48370000D02*
X213930000Y-48370000D01*
X213930000Y-48370000D02*
X215000000Y-47300000D01*
X215000000Y-47300000D02*
X220350000Y-47300000D01*
X221630000Y-48580000D02*
X225106666Y-48580000D01*
X220350000Y-47300000D02*
X221630000Y-48580000D01*
X238143332Y-48580000D02*
X240530000Y-48580000D01*
X240530000Y-48580000D02*
X241810000Y-47300000D01*
X241810000Y-47300000D02*
X246650000Y-47300000D01*
X247900000Y-48550000D02*
X251180000Y-48550000D01*
X246650000Y-47300000D02*
X247900000Y-48550000D01*
X235050000Y-48580000D02*
X238143332Y-48580000D01*
X233770000Y-47300000D02*
X235050000Y-48580000D01*
X228490000Y-47300000D02*
X233770000Y-47300000D01*
X225106666Y-48580000D02*
X227210000Y-48580000D01*
X227210000Y-48580000D02*
X228490000Y-47300000D01*
X253240000Y-50610000D02*
X251180000Y-48550000D01*
X251180000Y-76370000D02*
X253240000Y-74310000D01*
X253240000Y-74310000D02*
X253240000Y-50610000D01*
X191473336Y-83986664D02*
X185500000Y-83986664D01*
X200520000Y-74940000D02*
X191473336Y-83986664D01*
X207890000Y-74940000D02*
X200520000Y-74940000D01*
X212070000Y-76210000D02*
X209160000Y-76210000D01*
X209160000Y-76210000D02*
X207890000Y-74940000D01*
X233800000Y-53640000D02*
X235080000Y-54920000D01*
X241520000Y-53610000D02*
X243560000Y-53610000D01*
X230523332Y-53640000D02*
X233800000Y-53640000D01*
X240210000Y-54920000D02*
X241520000Y-53610000D01*
X235080000Y-54920000D02*
X240210000Y-54920000D01*
X207800000Y-53430000D02*
X209080000Y-54710000D01*
X204450000Y-53430000D02*
X207800000Y-53430000D01*
X220550000Y-53640000D02*
X221820000Y-54910000D01*
X228770000Y-53640000D02*
X230523332Y-53640000D01*
X217486666Y-53640000D02*
X220550000Y-53640000D01*
X221820000Y-54910000D02*
X227500000Y-54910000D01*
X209080000Y-54710000D02*
X214030000Y-54710000D01*
X214030000Y-54710000D02*
X215100000Y-53640000D01*
X215100000Y-53640000D02*
X217486666Y-53640000D01*
X227500000Y-54910000D02*
X228770000Y-53640000D01*
X240320000Y-82570000D02*
X241410000Y-81480000D01*
X235010000Y-82570000D02*
X240320000Y-82570000D01*
X233730000Y-81290000D02*
X235010000Y-82570000D01*
X243520000Y-81480000D02*
X243560000Y-81440000D01*
X221750000Y-82560000D02*
X227170000Y-82560000D01*
X220480000Y-81290000D02*
X221750000Y-82560000D01*
X227170000Y-82560000D02*
X228440000Y-81290000D01*
X204450000Y-81280000D02*
X204460000Y-81290000D01*
X241410000Y-81480000D02*
X243520000Y-81480000D01*
X204460000Y-81290000D02*
X207940000Y-81290000D01*
X207940000Y-81290000D02*
X209240000Y-82590000D01*
X228440000Y-81290000D02*
X233730000Y-81290000D01*
X209240000Y-82590000D02*
X213730000Y-82590000D01*
X213730000Y-82590000D02*
X215030000Y-81290000D01*
X215030000Y-81290000D02*
X220480000Y-81290000D01*
X190040000Y-90700000D02*
X185460000Y-90700000D01*
X204450000Y-81290000D02*
X199450000Y-81290000D01*
X199450000Y-81290000D02*
X190040000Y-90700000D01*
X207650000Y-93490000D02*
X193170000Y-93490000D01*
X219010000Y-93000000D02*
X208140000Y-93000000D01*
X208140000Y-93000000D02*
X207650000Y-93490000D01*
D28*
X76873029Y-60126966D02*
X76882971Y-103863000D01*
X66000000Y-103863000D01*
X65975224Y-103865440D01*
X65951399Y-103872667D01*
X65929443Y-103884403D01*
X65910197Y-103900197D01*
X65894403Y-103919443D01*
X65882667Y-103941399D01*
X65875440Y-103965224D01*
X65873000Y-103990000D01*
X65873000Y-113000000D01*
X65875440Y-113024776D01*
X65882667Y-113048601D01*
X65894403Y-113070557D01*
X65910197Y-113089803D01*
X65929443Y-113105597D01*
X65951399Y-113117333D01*
X65975224Y-113124560D01*
X66000000Y-113127000D01*
X76863000Y-113127000D01*
X76863000Y-139843103D01*
X40117032Y-139872897D01*
X40120212Y-127145413D01*
X67874192Y-127145413D01*
X67969956Y-127409814D01*
X68259571Y-127550704D01*
X68571108Y-127632384D01*
X68892595Y-127651718D01*
X69211675Y-127607961D01*
X69516088Y-127502795D01*
X69690044Y-127409814D01*
X69785808Y-127145413D01*
X68830000Y-126189605D01*
X67874192Y-127145413D01*
X40120212Y-127145413D01*
X40120481Y-126072595D01*
X67188282Y-126072595D01*
X67232039Y-126391675D01*
X67337205Y-126696088D01*
X67430186Y-126870044D01*
X67694587Y-126965808D01*
X68650395Y-126010000D01*
X69009605Y-126010000D01*
X69965413Y-126965808D01*
X70229814Y-126870044D01*
X70370704Y-126580429D01*
X70452384Y-126268892D01*
X70471718Y-125947405D01*
X70427961Y-125628325D01*
X70322795Y-125323912D01*
X70229814Y-125149956D01*
X69965413Y-125054192D01*
X69009605Y-126010000D01*
X68650395Y-126010000D01*
X67694587Y-125054192D01*
X67430186Y-125149956D01*
X67289296Y-125439571D01*
X67207616Y-125751108D01*
X67188282Y-126072595D01*
X40120481Y-126072595D01*
X40120780Y-124874587D01*
X67874192Y-124874587D01*
X68830000Y-125830395D01*
X69785808Y-124874587D01*
X69690044Y-124610186D01*
X69400429Y-124469296D01*
X69088892Y-124387616D01*
X68767405Y-124368282D01*
X68448325Y-124412039D01*
X68143912Y-124517205D01*
X67969956Y-124610186D01*
X67874192Y-124874587D01*
X40120780Y-124874587D01*
X40124887Y-108445098D01*
X49155000Y-108445098D01*
X49155000Y-108914902D01*
X49246654Y-109375679D01*
X49426440Y-109809721D01*
X49687450Y-110200349D01*
X50019651Y-110532550D01*
X50410279Y-110793560D01*
X50844321Y-110973346D01*
X51305098Y-111065000D01*
X51774902Y-111065000D01*
X52235679Y-110973346D01*
X52669721Y-110793560D01*
X53060349Y-110532550D01*
X53392550Y-110200349D01*
X53653560Y-109809721D01*
X53833346Y-109375679D01*
X53925000Y-108914902D01*
X53925000Y-108445098D01*
X53833346Y-107984321D01*
X53653560Y-107550279D01*
X53392550Y-107159651D01*
X53060349Y-106827450D01*
X52669721Y-106566440D01*
X52235679Y-106386654D01*
X51774902Y-106295000D01*
X51305098Y-106295000D01*
X50844321Y-106386654D01*
X50410279Y-106566440D01*
X50019651Y-106827450D01*
X49687450Y-107159651D01*
X49426440Y-107550279D01*
X49246654Y-107984321D01*
X49155000Y-108445098D01*
X40124887Y-108445098D01*
X40133622Y-73501805D01*
X50051805Y-73501805D01*
X50124379Y-73741066D01*
X50284361Y-74063257D01*
X50504125Y-74348046D01*
X50775226Y-74584489D01*
X51087246Y-74763500D01*
X51428194Y-74878199D01*
X51713000Y-74761854D01*
X51713000Y-73217000D01*
X51967000Y-73217000D01*
X51967000Y-74761854D01*
X52251806Y-74878199D01*
X52592754Y-74763500D01*
X52904774Y-74584489D01*
X53175875Y-74348046D01*
X53395639Y-74063257D01*
X53555621Y-73741066D01*
X53628195Y-73501805D01*
X53511432Y-73217000D01*
X51967000Y-73217000D01*
X51713000Y-73217000D01*
X50168568Y-73217000D01*
X50051805Y-73501805D01*
X40133622Y-73501805D01*
X40133827Y-72678195D01*
X50051805Y-72678195D01*
X50168568Y-72963000D01*
X51713000Y-72963000D01*
X51713000Y-71418146D01*
X51967000Y-71418146D01*
X51967000Y-72963000D01*
X53511432Y-72963000D01*
X53628195Y-72678195D01*
X53555621Y-72438934D01*
X53395639Y-72116743D01*
X53175875Y-71831954D01*
X52904774Y-71595511D01*
X52592754Y-71416500D01*
X52251806Y-71301801D01*
X51967000Y-71418146D01*
X51713000Y-71418146D01*
X51428194Y-71301801D01*
X51087246Y-71416500D01*
X50775226Y-71595511D01*
X50504125Y-71831954D01*
X50284361Y-72116743D01*
X50124379Y-72438934D01*
X50051805Y-72678195D01*
X40133827Y-72678195D01*
X40136968Y-60117034D01*
X76873029Y-60126966D01*
G04 #@! TA.AperFunction,Conductor*
D29*
G36*
X76873029Y-60126966D02*
G01*
X76882971Y-103863000D01*
X66000000Y-103863000D01*
X65975224Y-103865440D01*
X65951399Y-103872667D01*
X65929443Y-103884403D01*
X65910197Y-103900197D01*
X65894403Y-103919443D01*
X65882667Y-103941399D01*
X65875440Y-103965224D01*
X65873000Y-103990000D01*
X65873000Y-113000000D01*
X65875440Y-113024776D01*
X65882667Y-113048601D01*
X65894403Y-113070557D01*
X65910197Y-113089803D01*
X65929443Y-113105597D01*
X65951399Y-113117333D01*
X65975224Y-113124560D01*
X66000000Y-113127000D01*
X76863000Y-113127000D01*
X76863000Y-139843103D01*
X40117032Y-139872897D01*
X40120212Y-127145413D01*
X67874192Y-127145413D01*
X67969956Y-127409814D01*
X68259571Y-127550704D01*
X68571108Y-127632384D01*
X68892595Y-127651718D01*
X69211675Y-127607961D01*
X69516088Y-127502795D01*
X69690044Y-127409814D01*
X69785808Y-127145413D01*
X68830000Y-126189605D01*
X67874192Y-127145413D01*
X40120212Y-127145413D01*
X40120481Y-126072595D01*
X67188282Y-126072595D01*
X67232039Y-126391675D01*
X67337205Y-126696088D01*
X67430186Y-126870044D01*
X67694587Y-126965808D01*
X68650395Y-126010000D01*
X69009605Y-126010000D01*
X69965413Y-126965808D01*
X70229814Y-126870044D01*
X70370704Y-126580429D01*
X70452384Y-126268892D01*
X70471718Y-125947405D01*
X70427961Y-125628325D01*
X70322795Y-125323912D01*
X70229814Y-125149956D01*
X69965413Y-125054192D01*
X69009605Y-126010000D01*
X68650395Y-126010000D01*
X67694587Y-125054192D01*
X67430186Y-125149956D01*
X67289296Y-125439571D01*
X67207616Y-125751108D01*
X67188282Y-126072595D01*
X40120481Y-126072595D01*
X40120780Y-124874587D01*
X67874192Y-124874587D01*
X68830000Y-125830395D01*
X69785808Y-124874587D01*
X69690044Y-124610186D01*
X69400429Y-124469296D01*
X69088892Y-124387616D01*
X68767405Y-124368282D01*
X68448325Y-124412039D01*
X68143912Y-124517205D01*
X67969956Y-124610186D01*
X67874192Y-124874587D01*
X40120780Y-124874587D01*
X40124887Y-108445098D01*
X49155000Y-108445098D01*
X49155000Y-108914902D01*
X49246654Y-109375679D01*
X49426440Y-109809721D01*
X49687450Y-110200349D01*
X50019651Y-110532550D01*
X50410279Y-110793560D01*
X50844321Y-110973346D01*
X51305098Y-111065000D01*
X51774902Y-111065000D01*
X52235679Y-110973346D01*
X52669721Y-110793560D01*
X53060349Y-110532550D01*
X53392550Y-110200349D01*
X53653560Y-109809721D01*
X53833346Y-109375679D01*
X53925000Y-108914902D01*
X53925000Y-108445098D01*
X53833346Y-107984321D01*
X53653560Y-107550279D01*
X53392550Y-107159651D01*
X53060349Y-106827450D01*
X52669721Y-106566440D01*
X52235679Y-106386654D01*
X51774902Y-106295000D01*
X51305098Y-106295000D01*
X50844321Y-106386654D01*
X50410279Y-106566440D01*
X50019651Y-106827450D01*
X49687450Y-107159651D01*
X49426440Y-107550279D01*
X49246654Y-107984321D01*
X49155000Y-108445098D01*
X40124887Y-108445098D01*
X40133622Y-73501805D01*
X50051805Y-73501805D01*
X50124379Y-73741066D01*
X50284361Y-74063257D01*
X50504125Y-74348046D01*
X50775226Y-74584489D01*
X51087246Y-74763500D01*
X51428194Y-74878199D01*
X51713000Y-74761854D01*
X51713000Y-73217000D01*
X51967000Y-73217000D01*
X51967000Y-74761854D01*
X52251806Y-74878199D01*
X52592754Y-74763500D01*
X52904774Y-74584489D01*
X53175875Y-74348046D01*
X53395639Y-74063257D01*
X53555621Y-73741066D01*
X53628195Y-73501805D01*
X53511432Y-73217000D01*
X51967000Y-73217000D01*
X51713000Y-73217000D01*
X50168568Y-73217000D01*
X50051805Y-73501805D01*
X40133622Y-73501805D01*
X40133827Y-72678195D01*
X50051805Y-72678195D01*
X50168568Y-72963000D01*
X51713000Y-72963000D01*
X51713000Y-71418146D01*
X51967000Y-71418146D01*
X51967000Y-72963000D01*
X53511432Y-72963000D01*
X53628195Y-72678195D01*
X53555621Y-72438934D01*
X53395639Y-72116743D01*
X53175875Y-71831954D01*
X52904774Y-71595511D01*
X52592754Y-71416500D01*
X52251806Y-71301801D01*
X51967000Y-71418146D01*
X51713000Y-71418146D01*
X51428194Y-71301801D01*
X51087246Y-71416500D01*
X50775226Y-71595511D01*
X50504125Y-71831954D01*
X50284361Y-72116743D01*
X50124379Y-72438934D01*
X50051805Y-72678195D01*
X40133827Y-72678195D01*
X40136968Y-60117034D01*
X76873029Y-60126966D01*
G37*
G04 #@! TD.AperFunction*
M02*
