M48
; DRILL file {KiCad 5.1.8-5.1.8} date Sat Mar 27 17:25:59 2021
; FORMAT={-:-/ absolute / inch / decimal}
; #@! TF.CreationDate,2021-03-27T17:25:59-07:00
; #@! TF.GenerationSoftware,Kicad,Pcbnew,5.1.8-5.1.8
; #@! TF.FileFunction,Plated,1,2,PTH
FMAT,2
INCH
T1C0.0157
T2C0.0276
T3C0.0315
T4C0.0394
T5C0.0433
T6C0.0472
T7C0.0591
%
G90
G05
T1
X1.7Y-2.5
X1.7Y-3.3
X1.7Y-4.0
X1.7Y-4.7
X1.7Y-5.4
X1.9Y-2.9
X1.9Y-3.7
X1.9Y-5.0
X2.1Y-2.5
X2.1Y-3.3
X2.1Y-4.0
X2.1Y-4.7
X2.1Y-5.4
X2.2Y-2.7
X2.3Y-3.7
X2.3Y-5.0
X2.3224Y-2.8776
X2.5Y-3.3
X2.5Y-4.0
X2.5Y-4.7
X2.5Y-5.4
X2.7Y-2.9
X2.7Y-3.7
X2.8Y-2.7
X2.9Y-2.5
X2.9Y-3.3
X2.9Y-4.0
X2.9Y-4.7
X2.9Y-5.4
X3.4055Y-5.6492
X3.4512Y-3.8303
X3.9764Y-3.8346
X3.9886Y-4.7272
X4.0008Y-5.3209
X4.0413Y-4.8421
X4.074Y-4.026
X4.1171Y-2.2291
X4.1171Y-3.3197
X4.1941Y-2.3764
X4.2504Y-5.0839
X4.2508Y-4.4256
X4.2547Y-4.2768
X4.3118Y-3.2201
X4.3122Y-2.8972
X4.4776Y-4.8969
X4.5016Y-3.4201
X4.5016Y-3.7008
X4.6055Y-2.7157
X4.6268Y-1.55
X4.6445Y-2.5591
X4.685Y-1.2756
X4.685Y-2.3276
X4.7339Y-2.126
X4.7358Y-2.4213
X4.8831Y-3.8165
X5.0019Y-4.1304
X5.0827Y-5.2594
X5.2772Y-3.8268
X5.285Y-1.55
X5.302Y-2.8437
X5.3862Y-2.1299
X5.4803Y-2.2764
X5.485Y-1.9752
X5.4854Y-1.8256
X5.597Y-3.5014
X5.6354Y-4.9819
X5.6382Y-2.6303
X5.6583Y-3.427
X5.722Y-5.1705
X5.7783Y-2.4213
X5.7874Y-5.5701
X5.8378Y-4.1264
X5.8484Y-2.3024
X5.8634Y-4.7803
X5.887Y-1.0764
X5.9039Y-5.6969
X5.9043Y-4.4764
X5.9067Y-3.4728
X5.9425Y-3.3449
X5.9606Y-2.476
X6.0059Y-3.2988
X6.0154Y-2.7555
X6.0465Y-2.2319
X6.0839Y-1.974
X6.1079Y-1.1028
X6.1094Y-2.3752
X6.1976Y-4.3756
X6.2134Y-3.5024
X6.4878Y-1.4894
X6.6055Y-1.1031
X6.7331Y-4.4291
X6.7941Y-2.3252
X6.8307Y-2.8736
X6.8417Y-4.3228
X6.8551Y-6.0236
X6.8677Y-2.9547
X6.8921Y-4.2933
X6.8921Y-4.8772
X6.9059Y-5.7831
X6.9224Y-5.3201
X6.9295Y-2.5587
X6.9551Y-5.4201
X6.9551Y-6.0232
X6.987Y-4.2992
X6.9933Y-5.7445
X7.0016Y-3.9764
X7.0031Y-4.7752
X7.0551Y-5.2697
X7.0551Y-6.0232
X7.0709Y-3.8567
X7.0709Y-4.0811
X7.0825Y-2.0988
X7.0953Y-5.4496
X7.0984Y-5.7079
X7.111Y-1.9512
X7.1453Y-2.274
X7.1551Y-5.1713
X7.1551Y-6.0236
X7.1642Y-1.8004
X7.1937Y-5.5374
X7.2053Y-3.1008
X7.207Y-5.6936
X7.2287Y-1.3276
X7.2461Y-2.4748
X7.2543Y-5.0209
X7.2551Y-6.0236
X7.2835Y-1.1803
X7.3Y-5.0024
X7.3122Y-2.2736
X7.3547Y-5.2646
X7.3551Y-6.0232
X7.3913Y-5.226
X7.4551Y-5.1602
X7.4551Y-6.0236
X7.4886Y-5.285
X7.5531Y-2.7004
X7.5551Y-6.0228
X7.5555Y-4.9705
X7.5776Y-4.3791
X7.5862Y-5.1283
X7.5984Y-2.6004
X7.6551Y-5.3543
X7.6551Y-6.0236
X7.6957Y-3.4
X7.7043Y-5.4941
X7.7339Y-4.1996
X7.7551Y-6.0236
X7.7949Y-2.8004
X7.8343Y-2.2925
X7.8555Y-6.0232
X7.8732Y-2.9016
X7.885Y-1.6031
X7.8894Y-4.3012
X7.9094Y-2.6504
X7.9094Y-3.0
X7.9242Y-4.0333
X7.9528Y-4.4768
X7.9555Y-6.0626
X7.974Y-4.3295
X8.0228Y-5.2012
X8.0228Y-5.9799
X8.0831Y-5.9224
X8.1098Y-1.2587
X8.1575Y-6.0232
X8.1646Y-1.4157
X8.2539Y-5.4724
X8.2547Y-6.0236
X8.3539Y-5.4335
X8.3541Y-6.0232
X8.4028Y-5.9224
X8.4339Y-4.3303
X8.4547Y-4.7898
X8.4646Y-1.1319
X8.5398Y-6.0232
X8.5409Y-4.9016
X8.5811Y-4.4291
X8.6154Y-6.0232
X8.6201Y-4.9969
X8.6224Y-3.6614
X8.6346Y-1.1815
X8.6803Y-1.415
X8.7551Y-5.4079
X8.7945Y-5.3409
X8.8323Y-4.2815
X8.9063Y-5.7496
X8.9063Y-5.9224
X8.9547Y-6.0224
X8.9563Y-1.1028
X8.9594Y-5.6772
X9.0551Y-6.0236
X9.1299Y-5.0394
X9.1524Y-1.2301
X9.1551Y-6.0232
X9.2004Y-1.4154
X9.3685Y-5.2132
X9.4217Y-5.3697
X9.4921Y-5.3248
X9.5528Y-4.4799
X9.5528Y-5.2112
X9.6165Y-5.2598
X9.6579Y-5.1827
X9.6965Y-1.415
X9.9986Y-2.011
X10.0189Y-3.1772
X10.0276Y-2.9075
X10.1803Y-3.9965
X10.2925Y-2.1102
X10.2929Y-4.215
X10.3339Y-3.1768
T2
X7.0031Y-2.778
X7.3031Y-2.778
X7.0031Y-3.4387
X7.3031Y-3.4387
X4.3969Y-5.0201
X4.6969Y-5.0201
X4.3965Y-5.5165
X4.6965Y-5.5165
X4.0091Y-2.0819
X4.3091Y-2.0819
X7.0031Y-2.9101
X7.3031Y-2.9101
X7.0016Y-3.5709
X7.3016Y-3.5709
X5.4937Y-3.8272
X5.7937Y-3.8272
X7.0031Y-3.0423
X7.3031Y-3.0423
X4.3965Y-5.1454
X4.6965Y-5.1454
X7.0051Y-1.7256
X7.3051Y-1.7256
X7.0055Y-2.026
X7.3055Y-2.026
X7.0031Y-3.1744
X7.3031Y-3.1744
X7.3039Y-3.6803
X7.6039Y-3.6803
X2.6043Y-2.0909
X2.9043Y-2.0909
X4.0744Y-2.7657
X4.3744Y-2.7657
X4.3965Y-5.2691
X4.6965Y-5.2691
X7.0055Y-1.876
X7.3055Y-1.876
X7.0055Y-2.176
X7.3055Y-2.176
X7.0031Y-3.3066
X7.3031Y-3.3066
X4.3965Y-5.3928
X4.6965Y-5.3928
X7.3043Y-3.7772
X7.6043Y-3.7772
X4.0697Y-2.4839
X4.3697Y-2.4839
X4.4598Y-3.5492
X4.7598Y-3.5492
T3
X8.0488Y-3.4941
X8.2457Y-3.4941
X4.8941Y-3.6972
X5.0909Y-3.6972
X3.5969Y-5.0201
X3.5969Y-5.1201
X3.5969Y-5.2201
X3.5969Y-5.3201
X3.5969Y-5.4201
X3.5969Y-5.5201
X3.5969Y-5.6201
X3.8969Y-5.0201
X3.8969Y-5.1201
X3.8969Y-5.2201
X3.8969Y-5.3201
X3.8969Y-5.4201
X3.8969Y-5.5201
X3.8969Y-5.6201
X6.2909Y-3.9768
X6.2909Y-4.0768
X6.2909Y-4.1768
X6.2909Y-4.2768
X6.2909Y-4.3768
X6.2909Y-4.4768
X6.2909Y-4.5768
X6.5909Y-3.9768
X6.5909Y-4.0768
X6.5909Y-4.1768
X6.5909Y-4.2768
X6.5909Y-4.3768
X6.5909Y-4.4768
X6.5909Y-4.5768
X3.598Y-2.652
X3.7949Y-2.652
X9.0757Y-2.6004
X9.0757Y-2.7004
X9.0757Y-2.8004
X9.0757Y-2.9004
X9.0757Y-3.0004
X9.0757Y-3.1004
X9.0757Y-3.2004
X9.0757Y-3.3004
X9.3757Y-2.6004
X9.3757Y-2.7004
X9.3757Y-2.8004
X9.3757Y-2.9004
X9.3757Y-3.0004
X9.3757Y-3.1004
X9.3757Y-3.2004
X9.3757Y-3.3004
X7.1516Y-3.9768
X7.1516Y-4.0768
X7.1516Y-4.1768
X7.1516Y-4.2768
X7.1516Y-4.3768
X7.1516Y-4.4768
X7.1516Y-4.5768
X7.4516Y-3.9768
X7.4516Y-4.0768
X7.4516Y-4.1768
X7.4516Y-4.2768
X7.4516Y-4.3768
X7.4516Y-4.4768
X7.4516Y-4.5768
X3.598Y-5.7748
X3.7949Y-5.7748
X6.2909Y-4.9201
X6.2909Y-5.0201
X6.2909Y-5.1201
X6.2909Y-5.2201
X6.2909Y-5.3201
X6.2909Y-5.4201
X6.2909Y-5.5201
X6.2909Y-5.6201
X6.5909Y-4.9201
X6.5909Y-5.0201
X6.5909Y-5.1201
X6.5909Y-5.2201
X6.5909Y-5.3201
X6.5909Y-5.4201
X6.5909Y-5.5201
X6.5909Y-5.6201
X8.0492Y-1.5043
X8.0492Y-1.6043
X8.0492Y-1.7043
X8.0492Y-1.8043
X8.0492Y-1.9043
X8.0492Y-2.0043
X8.0492Y-2.1043
X8.0492Y-2.2043
X8.3492Y-1.5043
X8.3492Y-1.6043
X8.3492Y-1.7043
X8.3492Y-1.8043
X8.3492Y-1.9043
X8.3492Y-2.0043
X8.3492Y-2.1043
X8.3492Y-2.2043
X5.2047Y-4.7252
X5.4016Y-4.7252
X8.5625Y-2.6004
X8.5625Y-2.7004
X8.5625Y-2.8004
X8.5625Y-2.9004
X8.5625Y-3.0004
X8.5625Y-3.1004
X8.5625Y-3.2004
X8.5625Y-3.3004
X8.8625Y-2.6004
X8.8625Y-2.7004
X8.8625Y-2.8004
X8.8625Y-2.9004
X8.8625Y-3.0004
X8.8625Y-3.1004
X8.8625Y-3.2004
X8.8625Y-3.3004
X8.5638Y-3.4945
X8.7606Y-3.4945
X3.9677Y-2.6508
X4.263Y-2.6508
X7.1504Y-4.7724
X7.3472Y-4.7724
X5.2228Y-5.0201
X5.2228Y-5.1201
X5.2228Y-5.2201
X5.2228Y-5.3201
X5.2228Y-5.4201
X5.2228Y-5.5201
X5.2228Y-5.6201
X5.5228Y-5.0201
X5.5228Y-5.1201
X5.5228Y-5.2201
X5.5228Y-5.3201
X5.5228Y-5.4201
X5.5228Y-5.5201
X5.5228Y-5.6201
X8.0476Y-3.8787
X8.0476Y-3.9787
X8.0476Y-4.0787
X8.0476Y-4.1787
X8.0476Y-4.2787
X8.0476Y-4.3787
X8.0476Y-4.4787
X8.0476Y-4.5787
X8.3476Y-3.8787
X8.3476Y-3.9787
X8.3476Y-4.0787
X8.3476Y-4.1787
X8.3476Y-4.2787
X8.3476Y-4.3787
X8.3476Y-4.4787
X8.3476Y-4.5787
X3.5961Y-3.6618
X3.7929Y-3.6618
X3.5969Y-3.9768
X3.5969Y-4.0768
X3.5969Y-4.1768
X3.5969Y-4.2768
X3.5969Y-4.3768
X3.5969Y-4.4768
X3.5969Y-4.5768
X3.8969Y-3.9768
X3.8969Y-4.0768
X3.8969Y-4.1768
X3.8969Y-4.2768
X3.8969Y-4.3768
X3.8969Y-4.4768
X3.8969Y-4.5768
X6.2909Y-2.6256
X6.4878Y-2.6256
X9.5957Y-3.4941
X9.7925Y-3.4941
X6.2909Y-2.8744
X6.2909Y-2.9744
X6.2909Y-3.0744
X6.2909Y-3.1744
X6.2909Y-3.2744
X6.2909Y-3.3744
X6.2909Y-3.4744
X6.2909Y-3.5744
X6.5909Y-2.8744
X6.5909Y-2.9744
X6.5909Y-3.0744
X6.5909Y-3.1744
X6.5909Y-3.2744
X6.5909Y-3.3744
X6.5909Y-3.4744
X6.5909Y-3.5744
X8.9002Y-4.8736
X9.097Y-4.8736
X5.2213Y-5.772
X5.4181Y-5.772
X8.0492Y-2.6004
X8.0492Y-2.7004
X8.0492Y-2.8004
X8.0492Y-2.9004
X8.0492Y-3.0004
X8.0492Y-3.1004
X8.0492Y-3.2004
X8.0492Y-3.3004
X8.3492Y-2.6004
X8.3492Y-2.7004
X8.3492Y-2.8004
X8.3492Y-2.9004
X8.3492Y-3.0004
X8.3492Y-3.1004
X8.3492Y-3.2004
X8.3492Y-3.3004
X9.7524Y-4.8736
X9.9492Y-4.8736
X4.3866Y-4.7256
X4.5835Y-4.7256
X8.5638Y-2.4047
X8.7606Y-2.4047
X3.5965Y-4.7252
X3.7933Y-4.7252
X4.3921Y-3.9768
X4.3921Y-4.0768
X4.3921Y-4.1768
X4.3921Y-4.2768
X4.3921Y-4.3768
X4.3921Y-4.4768
X4.3921Y-4.5768
X4.6921Y-3.9768
X4.6921Y-4.0768
X4.6921Y-4.1768
X4.6921Y-4.2768
X4.6921Y-4.3768
X4.6921Y-4.4768
X4.6921Y-4.5768
X9.0732Y-2.4047
X9.2701Y-2.4047
X6.2909Y-1.7752
X6.2909Y-1.8752
X6.2909Y-1.9752
X6.2909Y-2.0752
X6.2909Y-2.1752
X6.2909Y-2.2752
X6.2909Y-2.3752
X6.2909Y-2.4752
X6.5909Y-1.7752
X6.5909Y-1.8752
X6.5909Y-1.9752
X6.5909Y-2.0752
X6.5909Y-2.1752
X6.5909Y-2.2752
X6.5909Y-2.3752
X6.5909Y-2.4752
X9.589Y-2.6067
X9.589Y-2.7067
X9.589Y-2.8067
X9.589Y-2.9067
X9.589Y-3.0067
X9.589Y-3.1067
X9.589Y-3.2067
X9.589Y-3.3067
X9.889Y-2.6067
X9.889Y-2.7067
X9.889Y-2.8067
X9.889Y-2.9067
X9.889Y-3.0067
X9.889Y-3.1067
X9.889Y-3.2067
X9.889Y-3.3067
X8.9014Y-3.7799
X8.9014Y-3.8799
X8.9014Y-3.9799
X8.9014Y-4.0799
X8.9014Y-4.1799
X8.9014Y-4.2799
X8.9014Y-4.3799
X8.9014Y-4.4799
X8.9014Y-4.5799
X8.9014Y-4.6799
X9.2014Y-3.7799
X9.2014Y-3.8799
X9.2014Y-3.9799
X9.2014Y-4.0799
X9.2014Y-4.1799
X9.2014Y-4.2799
X9.2014Y-4.3799
X9.2014Y-4.4799
X9.2014Y-4.5799
X9.2014Y-4.6799
X8.0465Y-4.7724
X8.2433Y-4.7724
X4.8945Y-2.8484
X4.8945Y-2.9484
X4.8945Y-3.0484
X4.8945Y-3.1484
X4.8945Y-3.2484
X4.8945Y-3.3484
X4.8945Y-3.4484
X4.8945Y-3.5484
X5.1945Y-2.8484
X5.1945Y-2.9484
X5.1945Y-3.0484
X5.1945Y-3.1484
X5.1945Y-3.2484
X5.1945Y-3.3484
X5.1945Y-3.4484
X5.1945Y-3.5484
X3.5969Y-1.7791
X3.5969Y-1.8791
X3.5969Y-1.9791
X3.5969Y-2.0791
X3.5969Y-2.1791
X3.5969Y-2.2791
X3.5969Y-2.3791
X3.5969Y-2.4791
X3.8969Y-1.7791
X3.8969Y-1.8791
X3.8969Y-1.9791
X3.8969Y-2.0791
X3.8969Y-2.1791
X3.8969Y-2.2791
X3.8969Y-2.3791
X3.8969Y-2.4791
X6.2913Y-5.7748
X6.4882Y-5.7748
X8.048Y-2.4012
X8.2449Y-2.4012
X5.2051Y-3.9748
X5.2051Y-4.0748
X5.2051Y-4.1748
X5.2051Y-4.2748
X5.2051Y-4.3748
X5.2051Y-4.4748
X5.2051Y-4.5748
X5.5051Y-3.9748
X5.5051Y-4.0748
X5.5051Y-4.1748
X5.5051Y-4.2748
X5.5051Y-4.3748
X5.5051Y-4.4748
X5.5051Y-4.5748
X4.8949Y-2.6323
X5.0917Y-2.6323
X8.5625Y-1.5126
X8.5625Y-1.6126
X8.5625Y-1.7126
X8.5625Y-1.8126
X8.5625Y-1.9126
X8.5625Y-2.0126
X8.5625Y-2.1126
X8.5625Y-2.2126
X8.8625Y-1.5126
X8.8625Y-1.6126
X8.8625Y-1.7126
X8.8625Y-1.8126
X8.8625Y-1.9126
X8.8625Y-2.0126
X8.8625Y-2.1126
X8.8625Y-2.2126
X9.589Y-1.5114
X9.589Y-1.6114
X9.589Y-1.7114
X9.589Y-1.8114
X9.589Y-1.9114
X9.589Y-2.0114
X9.589Y-2.1114
X9.589Y-2.2114
X9.889Y-1.5114
X9.889Y-1.6114
X9.889Y-1.7114
X9.889Y-1.8114
X9.889Y-1.9114
X9.889Y-2.0114
X9.889Y-2.1114
X9.889Y-2.2114
X9.7535Y-3.7799
X9.7535Y-3.8799
X9.7535Y-3.9799
X9.7535Y-4.0799
X9.7535Y-4.1799
X9.7535Y-4.2799
X9.7535Y-4.3799
X9.7535Y-4.4799
X9.7535Y-4.5799
X9.7535Y-4.6799
X10.0535Y-3.7799
X10.0535Y-3.8799
X10.0535Y-3.9799
X10.0535Y-4.0799
X10.0535Y-4.1799
X10.0535Y-4.2799
X10.0535Y-4.3799
X10.0535Y-4.4799
X10.0535Y-4.5799
X10.0535Y-4.6799
X9.0756Y-3.4945
X9.2724Y-3.4945
X4.8953Y-1.776
X4.8953Y-1.876
X4.8953Y-1.976
X4.8953Y-2.076
X4.8953Y-2.176
X4.8953Y-2.276
X4.8953Y-2.376
X4.8953Y-2.476
X5.1953Y-1.776
X5.1953Y-1.876
X5.1953Y-1.976
X5.1953Y-2.076
X5.1953Y-2.176
X5.1953Y-2.276
X5.1953Y-2.376
X5.1953Y-2.476
X9.5913Y-2.4079
X9.7882Y-2.4079
X9.0757Y-1.5126
X9.0757Y-1.6126
X9.0757Y-1.7126
X9.0757Y-1.8126
X9.0757Y-1.9126
X9.0757Y-2.0126
X9.0757Y-2.1126
X9.0757Y-2.2126
X9.3757Y-1.5126
X9.3757Y-1.6126
X9.3757Y-1.7126
X9.3757Y-1.8126
X9.3757Y-1.9126
X9.3757Y-2.0126
X9.3757Y-2.1126
X9.3757Y-2.2126
X6.2854Y-4.7256
X6.4823Y-4.7256
X3.5969Y-2.8201
X3.5969Y-2.9201
X3.5969Y-3.0201
X3.5969Y-3.1201
X3.5969Y-3.2201
X3.5969Y-3.3201
X3.5969Y-3.4201
X3.5969Y-3.5201
X3.8969Y-2.8201
X3.8969Y-2.9201
X3.8969Y-3.0201
X3.8969Y-3.1201
X3.8969Y-3.2201
X3.8969Y-3.3201
X3.8969Y-3.4201
X3.8969Y-3.5201
X6.2909Y-3.7181
X6.4878Y-3.7181
T4
X2.7098Y-4.961
X3.1035Y-4.961
X5.0854Y-1.276
X5.0854Y-1.376
X5.1854Y-1.276
X5.1854Y-1.376
X5.2854Y-1.276
X5.2854Y-1.376
X5.3854Y-1.276
X5.3854Y-1.376
X5.4854Y-1.276
X5.4854Y-1.376
X5.5854Y-1.276
X5.5854Y-1.376
X5.6854Y-1.276
X5.6854Y-1.376
X5.7854Y-1.276
X5.7854Y-1.376
X5.8854Y-1.276
X5.8854Y-1.376
X5.9854Y-1.276
X5.9854Y-1.376
X6.0854Y-1.276
X6.0854Y-1.376
X6.1854Y-1.276
X6.1854Y-1.376
X6.2854Y-1.276
X6.2854Y-1.376
X6.3854Y-1.276
X6.3854Y-1.376
X6.4854Y-1.276
X6.4854Y-1.376
X6.5854Y-1.276
X6.5854Y-1.376
X6.6854Y-1.276
X6.6854Y-1.376
X6.7854Y-1.276
X6.7854Y-1.376
X6.8854Y-1.276
X6.8854Y-1.376
X6.9854Y-1.276
X6.9854Y-1.376
X4.9413Y-4.4374
X4.9413Y-4.5374
X4.9413Y-4.6374
T5
X2.685Y-4.1787
X2.685Y-4.2787
X2.685Y-4.3787
T6
X3.1417Y-3.1791
X3.1417Y-4.3791
X2.0409Y-2.8776
X3.1433Y-2.8776
T7
X2.6024Y-1.8953
X2.8024Y-1.8957
X3.0024Y-1.8957
T0
M30
