G04 #@! TF.GenerationSoftware,KiCad,Pcbnew,5.1.8-5.1.8*
G04 #@! TF.CreationDate,2021-03-27T17:25:53-07:00*
G04 #@! TF.ProjectId,1066,31303636-2e6b-4696-9361-645f70636258,rev?*
G04 #@! TF.SameCoordinates,Original*
G04 #@! TF.FileFunction,Copper,L2,Bot*
G04 #@! TF.FilePolarity,Positive*
%FSLAX46Y46*%
G04 Gerber Fmt 4.6, Leading zero omitted, Abs format (unit mm)*
G04 Created by KiCad (PCBNEW 5.1.8-5.1.8) date 2021-03-27 17:25:53*
%MOMM*%
%LPD*%
G01*
G04 APERTURE LIST*
G04 #@! TA.AperFunction,ComponentPad*
%ADD10R,1.700000X1.700000*%
G04 #@! TD*
G04 #@! TA.AperFunction,ComponentPad*
%ADD11O,1.700000X1.700000*%
G04 #@! TD*
G04 #@! TA.AperFunction,ComponentPad*
%ADD12R,2.000000X1.905000*%
G04 #@! TD*
G04 #@! TA.AperFunction,ComponentPad*
%ADD13O,2.000000X1.905000*%
G04 #@! TD*
G04 #@! TA.AperFunction,ComponentPad*
%ADD14C,1.600000*%
G04 #@! TD*
G04 #@! TA.AperFunction,ComponentPad*
%ADD15O,1.600000X1.600000*%
G04 #@! TD*
G04 #@! TA.AperFunction,ComponentPad*
%ADD16R,1.600000X1.600000*%
G04 #@! TD*
G04 #@! TA.AperFunction,ComponentPad*
%ADD17C,2.000000*%
G04 #@! TD*
G04 #@! TA.AperFunction,ComponentPad*
%ADD18C,3.000000*%
G04 #@! TD*
G04 #@! TA.AperFunction,ComponentPad*
%ADD19O,1.400000X1.400000*%
G04 #@! TD*
G04 #@! TA.AperFunction,ComponentPad*
%ADD20C,1.400000*%
G04 #@! TD*
G04 #@! TA.AperFunction,SMDPad,CuDef*
%ADD21R,1.270000X10.160000*%
G04 #@! TD*
G04 #@! TA.AperFunction,ComponentPad*
%ADD22R,2.400000X2.400000*%
G04 #@! TD*
G04 #@! TA.AperFunction,ComponentPad*
%ADD23O,2.400000X2.400000*%
G04 #@! TD*
G04 #@! TA.AperFunction,ComponentPad*
%ADD24C,2.400000*%
G04 #@! TD*
G04 #@! TA.AperFunction,ViaPad*
%ADD25C,0.800000*%
G04 #@! TD*
G04 #@! TA.AperFunction,Conductor*
%ADD26C,1.270000*%
G04 #@! TD*
G04 #@! TA.AperFunction,Conductor*
%ADD27C,0.254000*%
G04 #@! TD*
G04 #@! TA.AperFunction,Conductor*
%ADD28C,0.250000*%
G04 #@! TD*
G04 #@! TA.AperFunction,Conductor*
%ADD29C,0.100000*%
G04 #@! TD*
G04 APERTURE END LIST*
D10*
X129170000Y-32410000D03*
D11*
X129170000Y-34950000D03*
X131710000Y-32410000D03*
X131710000Y-34950000D03*
X134250000Y-32410000D03*
X134250000Y-34950000D03*
X136790000Y-32410000D03*
X136790000Y-34950000D03*
X139330000Y-32410000D03*
X139330000Y-34950000D03*
X141870000Y-32410000D03*
X141870000Y-34950000D03*
X144410000Y-32410000D03*
X144410000Y-34950000D03*
X146950000Y-32410000D03*
X146950000Y-34950000D03*
X149490000Y-32410000D03*
X149490000Y-34950000D03*
X152030000Y-32410000D03*
X152030000Y-34950000D03*
X154570000Y-32410000D03*
X154570000Y-34950000D03*
X157110000Y-32410000D03*
X157110000Y-34950000D03*
X159650000Y-32410000D03*
X159650000Y-34950000D03*
X162190000Y-32410000D03*
X162190000Y-34950000D03*
X164730000Y-32410000D03*
X164730000Y-34950000D03*
X167270000Y-32410000D03*
X167270000Y-34950000D03*
X169810000Y-32410000D03*
X169810000Y-34950000D03*
X172350000Y-32410000D03*
X172350000Y-34950000D03*
X174890000Y-32410000D03*
X174890000Y-34950000D03*
X177430000Y-32410000D03*
X177430000Y-34950000D03*
D12*
X68200000Y-111220000D03*
D13*
X68200000Y-108680000D03*
X68200000Y-106140000D03*
D14*
X100780000Y-67330000D03*
X108280000Y-67330000D03*
D15*
X91360000Y-62970000D03*
X98980000Y-45190000D03*
X91360000Y-60430000D03*
X98980000Y-47730000D03*
X91360000Y-57890000D03*
X98980000Y-50270000D03*
X91360000Y-55350000D03*
X98980000Y-52810000D03*
X91360000Y-52810000D03*
X98980000Y-55350000D03*
X91360000Y-50270000D03*
X98980000Y-57890000D03*
X91360000Y-47730000D03*
X98980000Y-60430000D03*
X91360000Y-45190000D03*
D16*
X98980000Y-62970000D03*
D14*
X96390000Y-67360000D03*
X91390000Y-67360000D03*
X129330000Y-66860000D03*
X124330000Y-66860000D03*
X164790000Y-66690000D03*
X159790000Y-66690000D03*
X204420000Y-60990000D03*
X209420000Y-60990000D03*
X217520000Y-61080000D03*
X222520000Y-61080000D03*
X230460000Y-61080000D03*
X235460000Y-61080000D03*
X243620000Y-61160000D03*
X248620000Y-61160000D03*
X204440000Y-88750000D03*
X209440000Y-88750000D03*
X217520000Y-88760000D03*
X222520000Y-88760000D03*
X230520000Y-88760000D03*
X235520000Y-88760000D03*
X243730000Y-88750000D03*
X248730000Y-88750000D03*
X96340000Y-93010000D03*
X91340000Y-93010000D03*
X129310000Y-93910000D03*
X124310000Y-93910000D03*
X164790000Y-94440000D03*
X159790000Y-94440000D03*
X96350000Y-120020000D03*
X91350000Y-120020000D03*
X116420000Y-120030000D03*
X111420000Y-120030000D03*
X137200000Y-120020000D03*
X132200000Y-120020000D03*
X164650000Y-120030000D03*
X159650000Y-120030000D03*
X186620000Y-121220000D03*
X181620000Y-121220000D03*
X209380000Y-121220000D03*
X204380000Y-121220000D03*
X231065000Y-123790000D03*
X226065000Y-123790000D03*
X252710000Y-123790000D03*
X247710000Y-123790000D03*
X96390000Y-146680000D03*
X91390000Y-146680000D03*
X137620000Y-146610000D03*
X132620000Y-146610000D03*
X164800000Y-146680000D03*
X159800000Y-146680000D03*
D15*
X230523332Y-56200000D03*
X238143332Y-38420000D03*
X230523332Y-53660000D03*
X238143332Y-40960000D03*
X230523332Y-51120000D03*
X238143332Y-43500000D03*
X230523332Y-48580000D03*
X238143332Y-46040000D03*
X230523332Y-46040000D03*
X238143332Y-48580000D03*
X230523332Y-43500000D03*
X238143332Y-51120000D03*
X230523332Y-40960000D03*
X238143332Y-53660000D03*
X230523332Y-38420000D03*
D16*
X238143332Y-56200000D03*
X251180000Y-83990000D03*
D15*
X243560000Y-66210000D03*
X251180000Y-81450000D03*
X243560000Y-68750000D03*
X251180000Y-78910000D03*
X243560000Y-71290000D03*
X251180000Y-76370000D03*
X243560000Y-73830000D03*
X251180000Y-73830000D03*
X243560000Y-76370000D03*
X251180000Y-71290000D03*
X243560000Y-78910000D03*
X251180000Y-68750000D03*
X243560000Y-81450000D03*
X251180000Y-66210000D03*
X243560000Y-83990000D03*
D17*
X68830000Y-126010000D03*
X78830000Y-126010000D03*
D18*
X76260000Y-48150000D03*
X71180000Y-48150000D03*
X66100000Y-48140000D03*
D19*
X66150000Y-53110000D03*
D20*
X73770000Y-53110000D03*
D19*
X101830000Y-52880000D03*
D20*
X109450000Y-52880000D03*
D19*
X103370000Y-63090000D03*
D20*
X110990000Y-63090000D03*
D19*
X103490000Y-70250000D03*
D20*
X111110000Y-70250000D03*
D19*
X120900000Y-90150000D03*
D20*
X113280000Y-90150000D03*
D19*
X111680000Y-127510000D03*
D20*
X119300000Y-127510000D03*
D19*
X119290000Y-130692500D03*
D20*
X111670000Y-130692500D03*
D19*
X111670000Y-133835000D03*
D20*
X119290000Y-133835000D03*
D19*
X111670000Y-136977500D03*
D20*
X119290000Y-136977500D03*
D19*
X111670000Y-140120000D03*
D20*
X119290000Y-140120000D03*
D19*
X139540000Y-97210000D03*
D20*
X147160000Y-97210000D03*
D19*
X177930000Y-43830000D03*
D20*
X185550000Y-43830000D03*
D19*
X177940000Y-47650000D03*
D20*
X185560000Y-47650000D03*
D19*
X177940000Y-51460000D03*
D20*
X185560000Y-51460000D03*
D19*
X177940000Y-55270000D03*
D20*
X185560000Y-55270000D03*
D19*
X177880000Y-70560000D03*
D20*
X185500000Y-70560000D03*
D19*
X177880000Y-73916666D03*
D20*
X185500000Y-73916666D03*
D19*
X177880000Y-77273332D03*
D20*
X185500000Y-77273332D03*
D19*
X177880000Y-80629998D03*
D20*
X185500000Y-80629998D03*
D19*
X185500000Y-83986664D03*
D20*
X177880000Y-83986664D03*
D19*
X185500000Y-87343330D03*
D20*
X177880000Y-87343330D03*
D19*
X185460000Y-90700000D03*
D20*
X177840000Y-90700000D03*
D19*
X185520000Y-93480000D03*
D20*
X193140000Y-93480000D03*
D19*
X185530000Y-95940000D03*
D20*
X193150000Y-95940000D03*
D21*
X232540000Y-160050000D03*
X230000000Y-160050000D03*
X227460000Y-160050000D03*
X224920000Y-160050000D03*
X222380000Y-160050000D03*
X219840000Y-160050000D03*
X217300000Y-160050000D03*
X214760000Y-160050000D03*
X212220000Y-160050000D03*
X209680000Y-160050000D03*
X207140000Y-160050000D03*
X204600000Y-160050000D03*
X202060000Y-160050000D03*
X199520000Y-160050000D03*
X196980000Y-160050000D03*
X194440000Y-160050000D03*
X191900000Y-160050000D03*
X189360000Y-160050000D03*
X186820000Y-160050000D03*
X184280000Y-160050000D03*
X181740000Y-160050000D03*
X179200000Y-160050000D03*
X176660000Y-160050000D03*
X174120000Y-160050000D03*
X171580000Y-160050000D03*
D22*
X79840000Y-73090000D03*
D23*
X51840000Y-73090000D03*
D10*
X125510000Y-117790000D03*
D11*
X125510000Y-115250000D03*
X125510000Y-112710000D03*
D24*
X79800000Y-80750000D03*
D23*
X79800000Y-111230000D03*
D16*
X131960000Y-62890000D03*
D15*
X124340000Y-45110000D03*
X131960000Y-60350000D03*
X124340000Y-47650000D03*
X131960000Y-57810000D03*
X124340000Y-50190000D03*
X131960000Y-55270000D03*
X124340000Y-52730000D03*
X131960000Y-52730000D03*
X124340000Y-55270000D03*
X131960000Y-50190000D03*
X124340000Y-57810000D03*
X131960000Y-47650000D03*
X124340000Y-60350000D03*
X131960000Y-45110000D03*
X124340000Y-62890000D03*
D16*
X167410000Y-62870000D03*
D15*
X159790000Y-45090000D03*
X167410000Y-60330000D03*
X159790000Y-47630000D03*
X167410000Y-57790000D03*
X159790000Y-50170000D03*
X167410000Y-55250000D03*
X159790000Y-52710000D03*
X167410000Y-52710000D03*
X159790000Y-55250000D03*
X167410000Y-50170000D03*
X159790000Y-57790000D03*
X167410000Y-47630000D03*
X159790000Y-60330000D03*
X167410000Y-45090000D03*
X159790000Y-62870000D03*
D16*
X212070000Y-55990000D03*
D15*
X204450000Y-38210000D03*
X212070000Y-53450000D03*
X204450000Y-40750000D03*
X212070000Y-50910000D03*
X204450000Y-43290000D03*
X212070000Y-48370000D03*
X204450000Y-45830000D03*
X212070000Y-45830000D03*
X204450000Y-48370000D03*
X212070000Y-43290000D03*
X204450000Y-50910000D03*
X212070000Y-40750000D03*
X204450000Y-53450000D03*
X212070000Y-38210000D03*
X204450000Y-55990000D03*
D16*
X225106666Y-56200000D03*
D15*
X217486666Y-38420000D03*
X225106666Y-53660000D03*
X217486666Y-40960000D03*
X225106666Y-51120000D03*
X217486666Y-43500000D03*
X225106666Y-48580000D03*
X217486666Y-46040000D03*
X225106666Y-46040000D03*
X217486666Y-48580000D03*
X225106666Y-43500000D03*
X217486666Y-51120000D03*
X225106666Y-40960000D03*
X217486666Y-53660000D03*
X225106666Y-38420000D03*
X217486666Y-56200000D03*
D16*
X251180000Y-56170000D03*
D15*
X243560000Y-38390000D03*
X251180000Y-53630000D03*
X243560000Y-40930000D03*
X251180000Y-51090000D03*
X243560000Y-43470000D03*
X251180000Y-48550000D03*
X243560000Y-46010000D03*
X251180000Y-46010000D03*
X243560000Y-48550000D03*
X251180000Y-43470000D03*
X243560000Y-51090000D03*
X251180000Y-40930000D03*
X243560000Y-53630000D03*
X251180000Y-38390000D03*
X243560000Y-56170000D03*
X204450000Y-83830000D03*
X212070000Y-66050000D03*
X204450000Y-81290000D03*
X212070000Y-68590000D03*
X204450000Y-78750000D03*
X212070000Y-71130000D03*
X204450000Y-76210000D03*
X212070000Y-73670000D03*
X204450000Y-73670000D03*
X212070000Y-76210000D03*
X204450000Y-71130000D03*
X212070000Y-78750000D03*
X204450000Y-68590000D03*
X212070000Y-81290000D03*
X204450000Y-66050000D03*
D16*
X212070000Y-83830000D03*
X225106666Y-83830000D03*
D15*
X217486666Y-66050000D03*
X225106666Y-81290000D03*
X217486666Y-68590000D03*
X225106666Y-78750000D03*
X217486666Y-71130000D03*
X225106666Y-76210000D03*
X217486666Y-73670000D03*
X225106666Y-73670000D03*
X217486666Y-76210000D03*
X225106666Y-71130000D03*
X217486666Y-78750000D03*
X225106666Y-68590000D03*
X217486666Y-81290000D03*
X225106666Y-66050000D03*
X217486666Y-83830000D03*
X230523332Y-83830000D03*
X238143332Y-66050000D03*
X230523332Y-81290000D03*
X238143332Y-68590000D03*
X230523332Y-78750000D03*
X238143332Y-71130000D03*
X230523332Y-76210000D03*
X238143332Y-73670000D03*
X230523332Y-73670000D03*
X238143332Y-76210000D03*
X230523332Y-71130000D03*
X238143332Y-78750000D03*
X230523332Y-68590000D03*
X238143332Y-81290000D03*
X230523332Y-66050000D03*
D16*
X238143332Y-83830000D03*
D15*
X91360000Y-89410000D03*
X98980000Y-71630000D03*
X91360000Y-86870000D03*
X98980000Y-74170000D03*
X91360000Y-84330000D03*
X98980000Y-76710000D03*
X91360000Y-81790000D03*
X98980000Y-79250000D03*
X91360000Y-79250000D03*
X98980000Y-81790000D03*
X91360000Y-76710000D03*
X98980000Y-84330000D03*
X91360000Y-74170000D03*
X98980000Y-86870000D03*
X91360000Y-71630000D03*
D16*
X98980000Y-89410000D03*
X131940000Y-90130000D03*
D15*
X124320000Y-72350000D03*
X131940000Y-87590000D03*
X124320000Y-74890000D03*
X131940000Y-85050000D03*
X124320000Y-77430000D03*
X131940000Y-82510000D03*
X124320000Y-79970000D03*
X131940000Y-79970000D03*
X124320000Y-82510000D03*
X131940000Y-77430000D03*
X124320000Y-85050000D03*
X131940000Y-74890000D03*
X124320000Y-87590000D03*
X131940000Y-72350000D03*
X124320000Y-90130000D03*
X159790000Y-90790000D03*
X167410000Y-73010000D03*
X159790000Y-88250000D03*
X167410000Y-75550000D03*
X159790000Y-85710000D03*
X167410000Y-78090000D03*
X159790000Y-83170000D03*
X167410000Y-80630000D03*
X159790000Y-80630000D03*
X167410000Y-83170000D03*
X159790000Y-78090000D03*
X167410000Y-85710000D03*
X159790000Y-75550000D03*
X167410000Y-88250000D03*
X159790000Y-73010000D03*
D16*
X167410000Y-90790000D03*
X98980000Y-116250000D03*
D15*
X91360000Y-101010000D03*
X98980000Y-113710000D03*
X91360000Y-103550000D03*
X98980000Y-111170000D03*
X91360000Y-106090000D03*
X98980000Y-108630000D03*
X91360000Y-108630000D03*
X98980000Y-106090000D03*
X91360000Y-111170000D03*
X98980000Y-103550000D03*
X91360000Y-113710000D03*
X98980000Y-101010000D03*
X91360000Y-116250000D03*
X111560000Y-116250000D03*
X119180000Y-101010000D03*
X111560000Y-113710000D03*
X119180000Y-103550000D03*
X111560000Y-111170000D03*
X119180000Y-106090000D03*
X111560000Y-108630000D03*
X119180000Y-108630000D03*
X111560000Y-106090000D03*
X119180000Y-111170000D03*
X111560000Y-103550000D03*
X119180000Y-113710000D03*
X111560000Y-101010000D03*
D16*
X119180000Y-116250000D03*
D15*
X132210000Y-116200000D03*
X139830000Y-100960000D03*
X132210000Y-113660000D03*
X139830000Y-103500000D03*
X132210000Y-111120000D03*
X139830000Y-106040000D03*
X132210000Y-108580000D03*
X139830000Y-108580000D03*
X132210000Y-106040000D03*
X139830000Y-111120000D03*
X132210000Y-103500000D03*
X139830000Y-113660000D03*
X132210000Y-100960000D03*
D16*
X139830000Y-116200000D03*
D15*
X159790000Y-116250000D03*
X167410000Y-101010000D03*
X159790000Y-113710000D03*
X167410000Y-103550000D03*
X159790000Y-111170000D03*
X167410000Y-106090000D03*
X159790000Y-108630000D03*
X167410000Y-108630000D03*
X159790000Y-106090000D03*
X167410000Y-111170000D03*
X159790000Y-103550000D03*
X167410000Y-113710000D03*
X159790000Y-101010000D03*
D16*
X167410000Y-116250000D03*
X189270000Y-116250000D03*
D15*
X181650000Y-101010000D03*
X189270000Y-113710000D03*
X181650000Y-103550000D03*
X189270000Y-111170000D03*
X181650000Y-106090000D03*
X189270000Y-108630000D03*
X181650000Y-108630000D03*
X189270000Y-106090000D03*
X181650000Y-111170000D03*
X189270000Y-103550000D03*
X181650000Y-113710000D03*
X189270000Y-101010000D03*
X181650000Y-116250000D03*
X204410000Y-116300000D03*
X212030000Y-98520000D03*
X204410000Y-113760000D03*
X212030000Y-101060000D03*
X204410000Y-111220000D03*
X212030000Y-103600000D03*
X204410000Y-108680000D03*
X212030000Y-106140000D03*
X204410000Y-106140000D03*
X212030000Y-108680000D03*
X204410000Y-103600000D03*
X212030000Y-111220000D03*
X204410000Y-101060000D03*
X212030000Y-113760000D03*
X204410000Y-98520000D03*
D16*
X212030000Y-116300000D03*
D15*
X226095000Y-118870000D03*
X233715000Y-96010000D03*
X226095000Y-116330000D03*
X233715000Y-98550000D03*
X226095000Y-113790000D03*
X233715000Y-101090000D03*
X226095000Y-111250000D03*
X233715000Y-103630000D03*
X226095000Y-108710000D03*
X233715000Y-106170000D03*
X226095000Y-106170000D03*
X233715000Y-108710000D03*
X226095000Y-103630000D03*
X233715000Y-111250000D03*
X226095000Y-101090000D03*
X233715000Y-113790000D03*
X226095000Y-98550000D03*
X233715000Y-116330000D03*
X226095000Y-96010000D03*
D16*
X233715000Y-118870000D03*
X255360000Y-118870000D03*
D15*
X247740000Y-96010000D03*
X255360000Y-116330000D03*
X247740000Y-98550000D03*
X255360000Y-113790000D03*
X247740000Y-101090000D03*
X255360000Y-111250000D03*
X247740000Y-103630000D03*
X255360000Y-108710000D03*
X247740000Y-106170000D03*
X255360000Y-106170000D03*
X247740000Y-108710000D03*
X255360000Y-103630000D03*
X247740000Y-111250000D03*
X255360000Y-101090000D03*
X247740000Y-113790000D03*
X255360000Y-98550000D03*
X247740000Y-116330000D03*
X255360000Y-96010000D03*
X247740000Y-118870000D03*
X91360000Y-142750000D03*
X98980000Y-127510000D03*
X91360000Y-140210000D03*
X98980000Y-130050000D03*
X91360000Y-137670000D03*
X98980000Y-132590000D03*
X91360000Y-135130000D03*
X98980000Y-135130000D03*
X91360000Y-132590000D03*
X98980000Y-137670000D03*
X91360000Y-130050000D03*
X98980000Y-140210000D03*
X91360000Y-127510000D03*
D16*
X98980000Y-142750000D03*
X140280000Y-142750000D03*
D15*
X132660000Y-127510000D03*
X140280000Y-140210000D03*
X132660000Y-130050000D03*
X140280000Y-137670000D03*
X132660000Y-132590000D03*
X140280000Y-135130000D03*
X132660000Y-135130000D03*
X140280000Y-132590000D03*
X132660000Y-137670000D03*
X140280000Y-130050000D03*
X132660000Y-140210000D03*
X140280000Y-127510000D03*
X132660000Y-142750000D03*
X159790000Y-142750000D03*
X167410000Y-124970000D03*
X159790000Y-140210000D03*
X167410000Y-127510000D03*
X159790000Y-137670000D03*
X167410000Y-130050000D03*
X159790000Y-135130000D03*
X167410000Y-132590000D03*
X159790000Y-132590000D03*
X167410000Y-135130000D03*
X159790000Y-130050000D03*
X167410000Y-137670000D03*
X159790000Y-127510000D03*
X167410000Y-140210000D03*
X159790000Y-124970000D03*
D16*
X167410000Y-142750000D03*
D25*
X226220000Y-150430000D03*
X226220000Y-146040000D03*
X246290000Y-35940000D03*
X233690000Y-35950000D03*
X220480000Y-35940000D03*
X207380000Y-35960000D03*
X177880000Y-121290000D03*
X164790000Y-37830000D03*
X213430000Y-150430000D03*
X205310000Y-150430000D03*
X43180000Y-63500000D03*
X53340000Y-63500000D03*
X73660000Y-63500000D03*
X43180000Y-137160000D03*
X53340000Y-137160000D03*
X63500000Y-137160000D03*
X73660000Y-137160000D03*
X43180000Y-101600000D03*
X53340000Y-101600000D03*
X63500000Y-101600000D03*
X73660000Y-101600000D03*
X43180000Y-83820000D03*
X53340000Y-83820000D03*
X63500000Y-83820000D03*
X73660000Y-83820000D03*
X43180000Y-119380000D03*
X53340000Y-119380000D03*
X63500000Y-119380000D03*
X73660000Y-119380000D03*
X48260000Y-73660000D03*
X58990000Y-73090000D03*
X68580000Y-73660000D03*
X48260000Y-93980000D03*
X58420000Y-93980000D03*
X68580000Y-93980000D03*
X48260000Y-127000000D03*
X58420000Y-127000000D03*
X71120000Y-68580000D03*
X55880000Y-68580000D03*
X134040000Y-97200000D03*
X129100000Y-133590000D03*
X124030000Y-96940000D03*
X214220000Y-109990000D03*
X218950000Y-126920000D03*
X175060000Y-123880000D03*
X175060000Y-109050000D03*
X230000000Y-153000000D03*
X231900000Y-128000000D03*
X227450000Y-152970000D03*
X227570000Y-144200000D03*
X149960000Y-144700000D03*
X149970000Y-113700000D03*
X218830000Y-152990000D03*
X217960000Y-112500000D03*
X216910000Y-152990000D03*
X216940000Y-124500000D03*
X113730000Y-124380000D03*
X212195000Y-152990000D03*
X212190000Y-138010000D03*
X152550000Y-83790000D03*
X209670000Y-153000000D03*
X209650000Y-139000000D03*
X150940000Y-84960000D03*
X104574990Y-84320000D03*
X104574990Y-56620000D03*
X171020000Y-112500000D03*
X202000000Y-113710000D03*
X207200000Y-152990000D03*
X203780000Y-151890000D03*
X203780000Y-132110000D03*
X202070000Y-153990000D03*
X201274999Y-102444999D03*
X181490000Y-57760000D03*
X199530000Y-152990000D03*
X196440000Y-106670000D03*
X181970000Y-45730000D03*
X196980000Y-153000000D03*
X180620000Y-49560000D03*
X177470000Y-109200000D03*
X194440000Y-153000000D03*
X194440000Y-136000000D03*
X175830000Y-135130000D03*
X191900000Y-152980000D03*
X191910000Y-126250000D03*
X189360000Y-153000000D03*
X189360000Y-131070000D03*
X186820000Y-152990000D03*
X186810000Y-133720000D03*
X184280000Y-153000000D03*
X184260000Y-127530000D03*
X181740000Y-153000000D03*
X181740000Y-131350000D03*
X179200000Y-152990000D03*
X179200000Y-133850000D03*
X176660000Y-152990000D03*
X176660000Y-137670000D03*
X179894990Y-53310000D03*
X174120000Y-153000000D03*
X173780000Y-109800000D03*
X214750000Y-121660000D03*
X102650000Y-122990000D03*
X195690000Y-139550000D03*
X245310000Y-131640000D03*
X192690000Y-130260000D03*
X244260000Y-133600000D03*
X190210000Y-134240000D03*
X242640000Y-113790000D03*
X242640000Y-132365000D03*
X187740000Y-132740000D03*
X185420000Y-127060000D03*
X237960000Y-132414999D03*
X183057347Y-144617347D03*
X223380000Y-135660000D03*
X241100000Y-135250000D03*
X180300000Y-144980000D03*
X239310000Y-136390000D03*
X177630000Y-145910000D03*
X175410000Y-146890000D03*
X222380000Y-137360000D03*
X119000000Y-32400000D03*
X119000000Y-59120000D03*
X120240000Y-54000000D03*
X107960000Y-129130000D03*
X107970000Y-112410000D03*
X117520000Y-39370000D03*
X134240000Y-39370000D03*
X202540000Y-109970000D03*
X136810000Y-54100000D03*
X200390000Y-109250000D03*
X139330000Y-46370000D03*
X143720000Y-87045000D03*
X183015010Y-78760000D03*
X139320000Y-50170000D03*
X139200000Y-57820000D03*
X143210000Y-66810000D03*
X116980000Y-68980000D03*
X149530000Y-27340000D03*
X134670000Y-72230000D03*
X173500000Y-72990000D03*
X261440000Y-107060000D03*
X261430000Y-53600000D03*
X262480000Y-80690000D03*
X254480000Y-80700000D03*
X155140000Y-28010000D03*
X154530000Y-50140000D03*
X147000000Y-141480000D03*
X219320000Y-30010000D03*
X258580000Y-101510000D03*
X103480000Y-102260000D03*
X153580000Y-56690000D03*
X227490000Y-28010000D03*
X167780000Y-28020000D03*
X172570000Y-59060000D03*
X148550000Y-58480000D03*
X232470000Y-31245000D03*
X146770000Y-61500000D03*
X120290000Y-61500000D03*
X215000000Y-28750000D03*
X185000000Y-29980000D03*
X174440000Y-75050000D03*
X205990000Y-31970000D03*
X117970000Y-65000000D03*
X176010000Y-64990000D03*
X108070000Y-108630000D03*
X106530000Y-60360000D03*
X157820000Y-88960000D03*
X142164999Y-88935001D03*
X152790000Y-69990000D03*
X185730000Y-57750000D03*
X183610000Y-33720000D03*
X177840000Y-101000000D03*
X86500000Y-143490000D03*
X101620000Y-135150000D03*
X101310000Y-120070000D03*
X148930000Y-121420000D03*
X150030000Y-88210000D03*
X155180000Y-60330000D03*
X199980000Y-73700000D03*
X254700000Y-73850000D03*
X200900000Y-76200000D03*
X200900000Y-67320000D03*
X191850000Y-68590000D03*
X200280000Y-40720000D03*
X193000000Y-66050000D03*
X197990000Y-71130000D03*
X253965000Y-51080000D03*
X198990000Y-58230000D03*
X195470000Y-86360000D03*
X87660000Y-97290000D03*
X192470000Y-111230000D03*
X184050000Y-62860000D03*
X151400000Y-62890000D03*
X101000000Y-97400000D03*
X109520000Y-81790000D03*
X109530000Y-73590000D03*
X114340000Y-86870000D03*
X114340000Y-94000000D03*
X157420000Y-111140000D03*
X127047001Y-104912999D03*
X145340000Y-131330000D03*
X143140000Y-126540000D03*
X148280000Y-104810000D03*
X179600000Y-103660000D03*
X179600000Y-97960000D03*
X182720000Y-140650000D03*
X180220000Y-138420000D03*
X224340000Y-108750000D03*
X232540000Y-152990000D03*
X219010000Y-93000000D03*
D26*
X220540000Y-80743332D02*
X217463332Y-83820000D01*
X217400000Y-61110000D02*
X220540000Y-64250000D01*
X217440000Y-88810000D02*
X217440000Y-83843332D01*
X220540000Y-64250000D02*
X220540000Y-80743332D01*
X226220000Y-150430000D02*
X226220000Y-146040000D01*
X246290000Y-35940000D02*
X246290000Y-54970000D01*
X243560000Y-61140000D02*
X243620000Y-61200000D01*
X243560000Y-56170000D02*
X243560000Y-61140000D01*
X230460000Y-56263332D02*
X230523332Y-56200000D01*
X230460000Y-61120000D02*
X230460000Y-56263332D01*
X233690000Y-54370000D02*
X233690000Y-35950000D01*
X217520000Y-56233334D02*
X217486666Y-56200000D01*
X217520000Y-61120000D02*
X217520000Y-56233334D01*
X220480000Y-54340000D02*
X220480000Y-35940000D01*
X204420000Y-56020000D02*
X204450000Y-55990000D01*
X246260000Y-83990000D02*
X243560000Y-83990000D01*
X246270000Y-83980000D02*
X246260000Y-83990000D01*
X246270000Y-62250000D02*
X246270000Y-83980000D01*
X243620000Y-61200000D02*
X245220000Y-61200000D01*
X245220000Y-61200000D02*
X246270000Y-62250000D01*
X230460000Y-61120000D02*
X233600000Y-64260000D01*
X233600000Y-80753332D02*
X230523332Y-83830000D01*
X233600000Y-64260000D02*
X233600000Y-80753332D01*
X207380000Y-56020000D02*
X207380000Y-35960000D01*
X217470000Y-93090000D02*
X217470000Y-88820000D01*
X212839999Y-97720001D02*
X217470000Y-93090000D01*
X212030000Y-98520000D02*
X212829999Y-97720001D01*
X212829999Y-97720001D02*
X212839999Y-97720001D01*
X211230000Y-98520000D02*
X212030000Y-98520000D01*
X209990000Y-99760000D02*
X211230000Y-98520000D01*
X180420000Y-123830000D02*
X180430000Y-123830000D01*
X177880000Y-121290000D02*
X177880000Y-121290000D01*
X177880000Y-121290000D02*
X180420000Y-123830000D01*
X139148630Y-127510000D02*
X137350000Y-127510000D01*
X140280000Y-127510000D02*
X139148630Y-127510000D01*
X164780000Y-120030000D02*
X164780000Y-124970000D01*
X164780000Y-101010000D02*
X164780000Y-120030000D01*
X165320000Y-94440000D02*
X165260000Y-94380000D01*
X164780000Y-94320000D02*
X164780000Y-100950000D01*
X166278630Y-73010000D02*
X165260000Y-73010000D01*
X167410000Y-73010000D02*
X166278630Y-73010000D01*
X164780000Y-72990000D02*
X164780000Y-94360000D01*
X166278630Y-45090000D02*
X165260000Y-45090000D01*
X167410000Y-45090000D02*
X166278630Y-45090000D01*
X164790000Y-37830000D02*
X164790000Y-45020000D01*
X164790000Y-45020000D02*
X164790000Y-72940000D01*
X205235000Y-150505000D02*
X205310000Y-150430000D01*
X205235000Y-153335000D02*
X205235000Y-150505000D01*
X207140000Y-160050000D02*
X207140000Y-155240000D01*
X207140000Y-155240000D02*
X205235000Y-153335000D01*
X213430000Y-153860000D02*
X213430000Y-150430000D01*
X212220000Y-160050000D02*
X212220000Y-155070000D01*
X212220000Y-155070000D02*
X213430000Y-153860000D01*
X209420000Y-100330000D02*
X209970000Y-99780000D01*
X209380000Y-121220000D02*
X209420000Y-121180000D01*
X209420000Y-121180000D02*
X209420000Y-100330000D01*
X254560001Y-96809999D02*
X255360000Y-96010000D01*
X252630000Y-98740000D02*
X254560001Y-96809999D01*
X252710000Y-123790000D02*
X252630000Y-123710000D01*
X252630000Y-123710000D02*
X252630000Y-98740000D01*
X230500000Y-83853332D02*
X230523332Y-83830000D01*
X230520000Y-88760000D02*
X230500000Y-88740000D01*
X230500000Y-88740000D02*
X230500000Y-83853332D01*
X230470000Y-88810000D02*
X230520000Y-88760000D01*
X233715000Y-96010000D02*
X231060000Y-96010000D01*
X231060000Y-89300000D02*
X230520000Y-88760000D01*
X231065000Y-123790000D02*
X231060000Y-123785000D01*
X231060000Y-123785000D02*
X231060000Y-89300000D01*
X232870000Y-91210000D02*
X231400000Y-91210000D01*
X241275000Y-91210000D02*
X232870000Y-91210000D01*
X243705000Y-88780000D02*
X241275000Y-91210000D01*
X245090000Y-88780000D02*
X243705000Y-88780000D01*
X246270000Y-83980000D02*
X246270000Y-87600000D01*
X246270000Y-87600000D02*
X245090000Y-88780000D01*
X245100000Y-56170000D02*
X243560000Y-56170000D01*
X246270000Y-54970000D02*
X246270000Y-55000000D01*
X246270000Y-55000000D02*
X245100000Y-56170000D01*
X231850000Y-56200000D02*
X233700000Y-54350000D01*
X230523332Y-56200000D02*
X231850000Y-56200000D01*
X220480000Y-54338036D02*
X220480000Y-54310000D01*
X217486666Y-56200000D02*
X218618036Y-56200000D01*
X218618036Y-56200000D02*
X220480000Y-54338036D01*
X204450000Y-55990000D02*
X207370000Y-55990000D01*
X207380000Y-61300000D02*
X207380000Y-55830000D01*
X207380000Y-61220000D02*
X207380000Y-84170000D01*
X207360000Y-61030000D02*
X207370000Y-61040000D01*
X204420000Y-61030000D02*
X207360000Y-61030000D01*
X206510000Y-88820000D02*
X204450000Y-88820000D01*
X207380000Y-87950000D02*
X206510000Y-88820000D01*
X207380000Y-83920000D02*
X207380000Y-87950000D01*
X204450000Y-83830000D02*
X207290000Y-83830000D01*
X207290000Y-83830000D02*
X207380000Y-83920000D01*
X164800000Y-101010000D02*
X164790000Y-101000000D01*
X167410000Y-101010000D02*
X164800000Y-101010000D01*
X167410000Y-124970000D02*
X164780000Y-124970000D01*
X164780000Y-146660000D02*
X164800000Y-146680000D01*
X164780000Y-124970000D02*
X164780000Y-146660000D01*
X137240000Y-127400000D02*
X137350000Y-127510000D01*
X137640000Y-141290000D02*
X137640000Y-146680000D01*
X137240000Y-130280000D02*
X136650000Y-130870000D01*
X137240000Y-127400000D02*
X137240000Y-130280000D01*
X136650000Y-130870000D02*
X136650000Y-139350000D01*
X136650000Y-139350000D02*
X136660000Y-139360000D01*
X136660000Y-139360000D02*
X136660000Y-140310000D01*
X136660000Y-140310000D02*
X137640000Y-141290000D01*
X137240000Y-94030000D02*
X137240000Y-100850000D01*
X130911370Y-94030000D02*
X137240000Y-94030000D01*
X130901370Y-94020000D02*
X130911370Y-94030000D01*
X129170000Y-66790000D02*
X129250000Y-66870000D01*
X129170000Y-34950000D02*
X129170000Y-66790000D01*
X129250000Y-66870000D02*
X129230000Y-66890000D01*
X129230000Y-66890000D02*
X129230000Y-93480000D01*
X129230000Y-93480000D02*
X129770000Y-94020000D01*
X129770000Y-94020000D02*
X130901370Y-94020000D01*
X139830000Y-100960000D02*
X137260000Y-100960000D01*
X137240000Y-100630000D02*
X137240000Y-127400000D01*
X137250000Y-100620000D02*
X137240000Y-100630000D01*
X96350000Y-120020000D02*
X96350000Y-121151370D01*
X96390000Y-121191370D02*
X96390000Y-146680000D01*
X96350000Y-121151370D02*
X96390000Y-121191370D01*
X96390000Y-67360000D02*
X96390000Y-45180000D01*
X96390000Y-45180000D02*
X98980000Y-45180000D01*
X98980000Y-71630000D02*
X96340000Y-71630000D01*
X98980000Y-101010000D02*
X96350000Y-101010000D01*
X98980000Y-127510000D02*
X96390000Y-127510000D01*
X131940000Y-72350000D02*
X129230000Y-72350000D01*
X131960000Y-45110000D02*
X129170000Y-45110000D01*
X187020000Y-101010000D02*
X189270000Y-101010000D01*
X186480000Y-101550000D02*
X187020000Y-101010000D01*
X186620000Y-121220000D02*
X186480000Y-121080000D01*
X186480000Y-121080000D02*
X186480000Y-101550000D01*
X180430000Y-123840000D02*
X184080000Y-123840000D01*
X184080000Y-123840000D02*
X186700000Y-121220000D01*
X117190000Y-101010000D02*
X119180000Y-101010000D01*
X116420000Y-120030000D02*
X116420000Y-101780000D01*
X116420000Y-101780000D02*
X117190000Y-101010000D01*
X119180000Y-106090000D02*
X116420000Y-106090000D01*
X157110000Y-34950000D02*
X157110000Y-32410000D01*
X162190000Y-34950000D02*
X162190000Y-32410000D01*
X96390000Y-92960000D02*
X96340000Y-93010000D01*
X96390000Y-67360000D02*
X96390000Y-92960000D01*
X96350000Y-94151370D02*
X96350000Y-120020000D01*
X96340000Y-93010000D02*
X96340000Y-94141370D01*
X96340000Y-94141370D02*
X96350000Y-94151370D01*
X226214999Y-150435001D02*
X226220000Y-150430000D01*
X226214999Y-153774999D02*
X226214999Y-150435001D01*
X227450000Y-155010000D02*
X226214999Y-153774999D01*
X227450000Y-155595000D02*
X227450000Y-155010000D01*
X227460000Y-160050000D02*
X227460000Y-155605000D01*
X227460000Y-155605000D02*
X227450000Y-155595000D01*
X79800000Y-106130000D02*
X79800000Y-80750000D01*
X68200000Y-106140000D02*
X79810000Y-106140000D01*
X79810000Y-106140000D02*
X79800000Y-106130000D01*
X204380000Y-116330000D02*
X204410000Y-116300000D01*
X204380000Y-121220000D02*
X204380000Y-116330000D01*
X212070000Y-66050000D02*
X209970000Y-66050000D01*
X226065000Y-118900000D02*
X226095000Y-118870000D01*
X226065000Y-123790000D02*
X226065000Y-118900000D01*
X247710000Y-118900000D02*
X247740000Y-118870000D01*
X247710000Y-123790000D02*
X247710000Y-118900000D01*
X225106666Y-66050000D02*
X223975296Y-66050000D01*
X251180000Y-66210000D02*
X248700020Y-66210000D01*
X181620000Y-116280000D02*
X181650000Y-116250000D01*
X181620000Y-121220000D02*
X181620000Y-116280000D01*
X235580000Y-88820000D02*
X235520000Y-88760000D01*
X210500000Y-38210000D02*
X212070000Y-38210000D01*
X209420000Y-60990000D02*
X209420000Y-39290000D01*
X209420000Y-39290000D02*
X210500000Y-38210000D01*
X209420000Y-63070000D02*
X209420000Y-60990000D01*
X209420000Y-66140000D02*
X209420000Y-63070000D01*
X209420000Y-88710000D02*
X209420000Y-65240000D01*
X209470000Y-88760000D02*
X209420000Y-88710000D01*
X206450000Y-116300000D02*
X207220000Y-115530000D01*
X204410000Y-116300000D02*
X206450000Y-116300000D01*
X207220000Y-115530000D02*
X207220000Y-97370000D01*
X207220000Y-97370000D02*
X209420000Y-95170000D01*
X209420000Y-95170000D02*
X209420000Y-88810000D01*
X209420000Y-88810000D02*
X209470000Y-88760000D01*
X222750000Y-53590000D02*
X222750000Y-61290000D01*
X223975296Y-38420000D02*
X223875296Y-38520000D01*
X225106666Y-38420000D02*
X223975296Y-38420000D01*
X223875296Y-38520000D02*
X223875296Y-38594704D01*
X223875296Y-38594704D02*
X222740000Y-39730000D01*
X222740000Y-39730000D02*
X222740000Y-53580000D01*
X222740000Y-53580000D02*
X222750000Y-53590000D01*
X222510000Y-61100000D02*
X222510000Y-65390000D01*
X223965296Y-66050000D02*
X222510000Y-66050000D01*
X222520000Y-88760000D02*
X222520000Y-86830000D01*
X222510000Y-65300000D02*
X222510000Y-88750000D01*
X222510000Y-88750000D02*
X222520000Y-88760000D01*
X226690000Y-118870000D02*
X226095000Y-118870000D01*
X228800000Y-116760000D02*
X226690000Y-118870000D01*
X228800000Y-95060000D02*
X228800000Y-116760000D01*
X222520000Y-88760000D02*
X222520000Y-88780000D01*
X222520000Y-88780000D02*
X228800000Y-95060000D01*
X236350000Y-38420000D02*
X238143332Y-38420000D01*
X235460000Y-39310000D02*
X236350000Y-38420000D01*
X235520000Y-88760000D02*
X235460000Y-88700000D01*
X235460000Y-88700000D02*
X235460000Y-39310000D01*
X248640000Y-40770000D02*
X248640000Y-66270020D01*
X248880000Y-40530000D02*
X248640000Y-40770000D01*
X251180000Y-38390000D02*
X249040000Y-40530000D01*
X249040000Y-40530000D02*
X248880000Y-40530000D01*
X248650000Y-66200000D02*
X248650000Y-85940000D01*
X248630000Y-85590000D02*
X248630000Y-87680000D01*
X248640000Y-85580000D02*
X248630000Y-85590000D01*
X250590000Y-116020000D02*
X247740000Y-118870000D01*
X250590000Y-90850000D02*
X250590000Y-116020000D01*
X248630000Y-87670000D02*
X248630000Y-88890000D01*
X248630000Y-88890000D02*
X250590000Y-90850000D01*
X238140000Y-66070000D02*
X235470000Y-66070000D01*
X159800000Y-142760000D02*
X159790000Y-142750000D01*
X159800000Y-146680000D02*
X159800000Y-142760000D01*
X159790000Y-66690000D02*
X159790000Y-62870000D01*
X162370000Y-140170000D02*
X159790000Y-142750000D01*
X159790000Y-66690000D02*
X162370000Y-69270000D01*
X162370000Y-69270000D02*
X162370000Y-140170000D01*
X91390000Y-142780000D02*
X91360000Y-142750000D01*
X91390000Y-146680000D02*
X91390000Y-142780000D01*
X91390000Y-146680000D02*
X94230000Y-149520000D01*
X158960000Y-149520000D02*
X159800000Y-148680000D01*
X159800000Y-148680000D02*
X159800000Y-146680000D01*
X132620000Y-147741370D02*
X132620000Y-149520000D01*
X132620000Y-146610000D02*
X132620000Y-147741370D01*
X94230000Y-149520000D02*
X132620000Y-149520000D01*
X132620000Y-149520000D02*
X158960000Y-149520000D01*
X132660000Y-146570000D02*
X132620000Y-146610000D01*
X132660000Y-142750000D02*
X132660000Y-146570000D01*
X119989999Y-140819999D02*
X119989999Y-140829999D01*
X119290000Y-140120000D02*
X119989999Y-140819999D01*
X121910000Y-142750000D02*
X132660000Y-142750000D01*
X119989999Y-140829999D02*
X121910000Y-142750000D01*
X124320000Y-93900000D02*
X124310000Y-93910000D01*
X124320000Y-90130000D02*
X124320000Y-93900000D01*
X124340000Y-66850000D02*
X124330000Y-66860000D01*
X124340000Y-62890000D02*
X124340000Y-66850000D01*
X126940000Y-90130000D02*
X124320000Y-90130000D01*
X124330000Y-66860000D02*
X126940000Y-69470000D01*
X126940000Y-69470000D02*
X126940000Y-90130000D01*
X91360000Y-67330000D02*
X91390000Y-67360000D01*
X91360000Y-62970000D02*
X91360000Y-67330000D01*
X91360000Y-142730000D02*
X91360000Y-142750000D01*
X93740000Y-140350000D02*
X91360000Y-142730000D01*
X93740000Y-69700000D02*
X93740000Y-140350000D01*
X92199999Y-68159999D02*
X93740000Y-69700000D01*
X91390000Y-67360000D02*
X92189999Y-68159999D01*
X92189999Y-68159999D02*
X92199999Y-68159999D01*
X91350000Y-120020000D02*
X93740000Y-120020000D01*
X91360000Y-116250000D02*
X93740000Y-116250000D01*
X91340000Y-93010000D02*
X93740000Y-93010000D01*
X91360000Y-89410000D02*
X93740000Y-89410000D01*
X159790000Y-116250000D02*
X162370000Y-116250000D01*
X108740000Y-53590000D02*
X109450000Y-52880000D01*
X108740000Y-58710000D02*
X108740000Y-53590000D01*
X110990000Y-63090000D02*
X110990000Y-60960000D01*
X110990000Y-60960000D02*
X108740000Y-58710000D01*
X111670000Y-133835000D02*
X111670000Y-130692500D01*
X111670000Y-127520000D02*
X111680000Y-127510000D01*
X111670000Y-130692500D02*
X111670000Y-127520000D01*
X111680000Y-120290000D02*
X111420000Y-120030000D01*
X111680000Y-127510000D02*
X111680000Y-120290000D01*
X111420000Y-116390000D02*
X111560000Y-116250000D01*
X111420000Y-120030000D02*
X111420000Y-116390000D01*
X159650000Y-120030000D02*
X162370000Y-120030000D01*
X132200000Y-120020000D02*
X134830000Y-120020000D01*
X132210000Y-116200000D02*
X134830000Y-116200000D01*
X127600000Y-97200000D02*
X124310000Y-93910000D01*
X134040000Y-97200000D02*
X127600000Y-97200000D01*
X134830000Y-97990000D02*
X134040000Y-97200000D01*
X134830000Y-140459802D02*
X134830000Y-97990000D01*
X132660000Y-142750000D02*
X132660000Y-142629802D01*
X132660000Y-142629802D02*
X134830000Y-140459802D01*
X184090000Y-97380000D02*
X185530000Y-95940000D01*
X184090000Y-116240000D02*
X184090000Y-97380000D01*
X184050000Y-116250000D02*
X184060000Y-116240000D01*
X181650000Y-116250000D02*
X184050000Y-116250000D01*
X159790000Y-90790000D02*
X162370000Y-90790000D01*
X159790000Y-94440000D02*
X162370000Y-94440000D01*
D27*
X129100000Y-133590000D02*
X129100000Y-133024315D01*
X129100000Y-133024315D02*
X129100000Y-103500000D01*
X129100000Y-103500000D02*
X124030000Y-98430000D01*
X124030000Y-98430000D02*
X124030000Y-96970000D01*
D28*
X124030000Y-96970000D02*
X124030000Y-96940000D01*
X111110000Y-82230000D02*
X111110000Y-70250000D01*
X122150000Y-93270000D02*
X111110000Y-82230000D01*
X124030000Y-96940000D02*
X122150000Y-95060000D01*
X122150000Y-95060000D02*
X122150000Y-93270000D01*
X234514999Y-109509999D02*
X234514999Y-109514999D01*
X233715000Y-108710000D02*
X234514999Y-109509999D01*
X214220000Y-110555685D02*
X215194315Y-111530000D01*
X214220000Y-109990000D02*
X214220000Y-110555685D01*
X215194315Y-111530000D02*
X218250000Y-111530000D01*
X218250000Y-111530000D02*
X218960000Y-112240000D01*
X218960000Y-112240000D02*
X218960000Y-126910000D01*
X218960000Y-126910000D02*
X218950000Y-126920000D01*
X175060000Y-123880000D02*
X175060000Y-109050000D01*
X230000000Y-153000000D02*
X230000000Y-134230000D01*
X230000000Y-134230000D02*
X231900000Y-132330000D01*
X231900000Y-132330000D02*
X231900000Y-128000000D01*
X149960000Y-144700000D02*
X149960000Y-144134315D01*
X149960000Y-144134315D02*
X149960000Y-113710000D01*
X149960000Y-113710000D02*
X149970000Y-113700000D01*
X227450000Y-144320000D02*
X227570000Y-144200000D01*
X227450000Y-152970000D02*
X227450000Y-144320000D01*
X218830000Y-152990000D02*
X218430001Y-152590001D01*
X218430001Y-152590001D02*
X217960000Y-152120000D01*
X217960000Y-152120000D02*
X217960000Y-112500000D01*
X113730000Y-110800000D02*
X111560000Y-108630000D01*
X113730000Y-124380000D02*
X113730000Y-110800000D01*
X216920000Y-152980000D02*
X216920000Y-124510000D01*
X216910000Y-152990000D02*
X216920000Y-152980000D01*
X212195000Y-152990000D02*
X212195000Y-138015000D01*
X212195000Y-138015000D02*
X212190000Y-138010000D01*
X98980000Y-57890000D02*
X101560000Y-60470000D01*
X101770000Y-73920000D02*
X98980000Y-76710000D01*
X101560000Y-60470000D02*
X101560000Y-65800000D01*
X101770000Y-69170000D02*
X101770000Y-73920000D01*
X101560000Y-65800000D02*
X102360000Y-66600000D01*
X102360000Y-66600000D02*
X102360000Y-68580000D01*
X102360000Y-68580000D02*
X101770000Y-69170000D01*
X152550000Y-130460000D02*
X152550000Y-83790000D01*
X158960001Y-136870001D02*
X152550000Y-130460000D01*
X159790000Y-137670000D02*
X158990001Y-136870001D01*
X158990001Y-136870001D02*
X158960001Y-136870001D01*
X209670000Y-153000000D02*
X209670000Y-152434315D01*
X209670000Y-152434315D02*
X209670000Y-139020000D01*
X209670000Y-139020000D02*
X209650000Y-139000000D01*
X151600000Y-132020000D02*
X159790000Y-140210000D01*
X150940000Y-84960000D02*
X151600000Y-85620000D01*
X151600000Y-85620000D02*
X151600000Y-132020000D01*
X104574990Y-56620000D02*
X104574990Y-57185685D01*
X104574990Y-57185685D02*
X104574990Y-84320000D01*
X167410000Y-78090000D02*
X171020000Y-81700000D01*
X171020000Y-81700000D02*
X171020000Y-112500000D01*
X202000000Y-114275685D02*
X202010000Y-114285685D01*
X202000000Y-113710000D02*
X202000000Y-114275685D01*
X202010000Y-114285685D02*
X202010000Y-123920000D01*
X202010000Y-123920000D02*
X207200000Y-129110000D01*
X207200000Y-129110000D02*
X207200000Y-152990000D01*
X167410000Y-85710000D02*
X169670000Y-87970000D01*
X169670000Y-127790000D02*
X167410000Y-130050000D01*
X169670000Y-87970000D02*
X169670000Y-127790000D01*
X203780000Y-151324315D02*
X203780000Y-132110000D01*
X203780000Y-151890000D02*
X203780000Y-151324315D01*
X202070000Y-153990000D02*
X202070000Y-153424315D01*
X201274999Y-152629314D02*
X201274999Y-102444999D01*
X202070000Y-153424315D02*
X201274999Y-152629314D01*
X181650000Y-101010000D02*
X181650000Y-99878630D01*
X181650000Y-99878630D02*
X181650000Y-88070000D01*
X181650000Y-88070000D02*
X181650000Y-57920000D01*
X181650000Y-57920000D02*
X181490000Y-57760000D01*
X199530000Y-152990000D02*
X199530000Y-152424315D01*
X199530000Y-152424315D02*
X199530000Y-109760000D01*
X199530000Y-109760000D02*
X196440000Y-106670000D01*
X183129990Y-99689990D02*
X183129990Y-102070010D01*
X182290000Y-98850000D02*
X183129990Y-99689990D01*
X181970000Y-50620000D02*
X182290000Y-50940000D01*
X181970000Y-45730000D02*
X181970000Y-50620000D01*
X183129990Y-102070010D02*
X181650000Y-103550000D01*
X182290000Y-50940000D02*
X182290000Y-98850000D01*
X196980000Y-118880000D02*
X189270000Y-111170000D01*
X196980000Y-153000000D02*
X196980000Y-118880000D01*
X177480000Y-109200000D02*
X177470000Y-109200000D01*
X180620000Y-98560000D02*
X180400000Y-98780000D01*
X180620000Y-49560000D02*
X180620000Y-98560000D01*
X179710000Y-104930000D02*
X179710000Y-106970000D01*
X180400000Y-98780000D02*
X180400000Y-104240000D01*
X180400000Y-104240000D02*
X179710000Y-104930000D01*
X179710000Y-106970000D02*
X177480000Y-109200000D01*
X194440000Y-153000000D02*
X194440000Y-136000000D01*
X175830000Y-134564315D02*
X175840000Y-134554315D01*
X175830000Y-135130000D02*
X175830000Y-134564315D01*
X175840000Y-134554315D02*
X175840000Y-82490000D01*
X175840000Y-82490000D02*
X170250000Y-76900000D01*
X170250000Y-60630000D02*
X167410000Y-57790000D01*
X170250000Y-76900000D02*
X170250000Y-60630000D01*
X156910000Y-85710000D02*
X159790000Y-85710000D01*
X156680000Y-85940000D02*
X156910000Y-85710000D01*
X159790000Y-127510000D02*
X156680000Y-124400000D01*
X156680000Y-124400000D02*
X156680000Y-85940000D01*
X191900000Y-152414315D02*
X191900000Y-152980000D01*
X191900000Y-141560000D02*
X191900000Y-152414315D01*
X191910000Y-126250000D02*
X191910000Y-141550000D01*
X191910000Y-141550000D02*
X191900000Y-141560000D01*
X156080000Y-81800000D02*
X159790000Y-78090000D01*
X159790000Y-130050000D02*
X156080000Y-126340000D01*
X156080000Y-126340000D02*
X156080000Y-81800000D01*
X189360000Y-153000000D02*
X189360000Y-131070000D01*
X167410000Y-132590000D02*
X170280000Y-129720000D01*
X170280000Y-83500000D02*
X167410000Y-80630000D01*
X170280000Y-129720000D02*
X170280000Y-83500000D01*
X186820000Y-152990000D02*
X186820000Y-152424315D01*
X186820000Y-152424315D02*
X186820000Y-151930000D01*
X186820000Y-151930000D02*
X186820000Y-133730000D01*
X186820000Y-133730000D02*
X186810000Y-133720000D01*
X169000000Y-125920000D02*
X169000000Y-121740000D01*
X167410000Y-127510000D02*
X169000000Y-125920000D01*
X169000000Y-121740000D02*
X168990000Y-121730000D01*
X168990000Y-89830000D02*
X167410000Y-88250000D01*
X168990000Y-121730000D02*
X168990000Y-89830000D01*
X184280000Y-127580000D02*
X184230000Y-127530000D01*
X184280000Y-153000000D02*
X184280000Y-127580000D01*
X158990001Y-131790001D02*
X158990001Y-131780001D01*
X159790000Y-132590000D02*
X158990001Y-131790001D01*
X158990001Y-131780001D02*
X155140000Y-127930000D01*
X155140000Y-127930000D02*
X155140000Y-78100000D01*
X155140000Y-78100000D02*
X157020000Y-76220000D01*
X157020000Y-60560000D02*
X159790000Y-57790000D01*
X157020000Y-76220000D02*
X157020000Y-60560000D01*
X181740000Y-152434315D02*
X181740000Y-131350000D01*
X181740000Y-153000000D02*
X181740000Y-152434315D01*
X156170000Y-53790000D02*
X159790000Y-50170000D01*
X156170000Y-75580000D02*
X156170000Y-53790000D01*
X153930000Y-77820000D02*
X156170000Y-75580000D01*
X158990001Y-134330001D02*
X158990001Y-134320001D01*
X159790000Y-135130000D02*
X158990001Y-134330001D01*
X158990001Y-134320001D02*
X153920000Y-129250000D01*
X153920000Y-129250000D02*
X153920000Y-113540000D01*
X153920000Y-113540000D02*
X153930000Y-113530000D01*
X153930000Y-113530000D02*
X153930000Y-77820000D01*
X179200000Y-152990000D02*
X179200000Y-133850000D01*
X176660000Y-152990000D02*
X176660000Y-152424315D01*
X176660000Y-152424315D02*
X176660000Y-137670000D01*
X176380000Y-109130000D02*
X178730000Y-106780000D01*
X179894990Y-53875685D02*
X179894990Y-53310000D01*
X179894990Y-90120011D02*
X179894990Y-53875685D01*
X179420000Y-90595001D02*
X179894990Y-90120011D01*
X179420000Y-96700000D02*
X179420000Y-90595001D01*
X178730000Y-97390000D02*
X179420000Y-96700000D01*
X178730000Y-106780000D02*
X178730000Y-97390000D01*
X176380000Y-133350000D02*
X176380000Y-109130000D01*
X176660000Y-133630000D02*
X176380000Y-133350000D01*
X176660000Y-137670000D02*
X176660000Y-133630000D01*
X174120000Y-153000000D02*
X174120000Y-152434315D01*
X174120000Y-152434315D02*
X174120000Y-113680000D01*
X174120000Y-113680000D02*
X173780000Y-113340000D01*
X173780000Y-113340000D02*
X173780000Y-109800000D01*
X173780000Y-109800000D02*
X173780000Y-81630000D01*
X173780000Y-81630000D02*
X169510000Y-77360000D01*
X169510000Y-62430000D02*
X167410000Y-60330000D01*
X169510000Y-77360000D02*
X169510000Y-62430000D01*
X219840000Y-153830000D02*
X219840000Y-160050000D01*
X221040000Y-152630000D02*
X219840000Y-153830000D01*
X221040000Y-141880000D02*
X221040000Y-152630000D01*
X233715000Y-119920000D02*
X233720000Y-119925000D01*
X233715000Y-118870000D02*
X233715000Y-119920000D01*
X233720000Y-119925000D02*
X233720000Y-124730000D01*
X233720000Y-124730000D02*
X230040000Y-128410000D01*
X230040000Y-128410000D02*
X230040000Y-132880000D01*
X230040000Y-132880000D02*
X221040000Y-141880000D01*
X209680000Y-154720000D02*
X208440000Y-153480000D01*
X209680000Y-160050000D02*
X209680000Y-154720000D01*
X208440000Y-153480000D02*
X208440000Y-130010000D01*
X208440000Y-130010000D02*
X214750000Y-123700000D01*
X214750000Y-123700000D02*
X214750000Y-121660000D01*
X98980000Y-106090000D02*
X99779999Y-106889999D01*
X99779999Y-106889999D02*
X102650000Y-109760000D01*
X102650000Y-109760000D02*
X102650000Y-122990000D01*
X194440000Y-154720000D02*
X195690000Y-153470000D01*
X194440000Y-160050000D02*
X194440000Y-154720000D01*
X195690000Y-153470000D02*
X195690000Y-139550000D01*
X245310000Y-117094998D02*
X245310000Y-131640000D01*
X247740000Y-113790000D02*
X245310000Y-116220000D01*
X245310000Y-116220000D02*
X245310000Y-117094998D01*
X191900000Y-154640000D02*
X191900000Y-160050000D01*
X192690000Y-134420000D02*
X192460000Y-134650000D01*
X192690000Y-130260000D02*
X192690000Y-134420000D01*
X192460000Y-134650000D02*
X192460000Y-136940000D01*
X192460000Y-136940000D02*
X192790000Y-137270000D01*
X192790000Y-137270000D02*
X192790000Y-153750000D01*
X192790000Y-153750000D02*
X191900000Y-154640000D01*
X244260000Y-114730000D02*
X244260000Y-133600000D01*
X247740000Y-111250000D02*
X244260000Y-114730000D01*
X189360000Y-154640000D02*
X189360000Y-160050000D01*
X190210000Y-134240000D02*
X190210000Y-153790000D01*
X190210000Y-153790000D02*
X189360000Y-154640000D01*
X243430000Y-113020000D02*
X247740000Y-108710000D01*
X242650000Y-113800000D02*
X243430000Y-113020000D01*
X242640000Y-113790000D02*
X242640000Y-114355685D01*
X242640000Y-114355685D02*
X242640000Y-132365000D01*
X186820000Y-154520000D02*
X186820000Y-160050000D01*
X187850000Y-153490000D02*
X186820000Y-154520000D01*
X187740000Y-132740000D02*
X187850000Y-132850000D01*
X187850000Y-132850000D02*
X187850000Y-153490000D01*
X184280000Y-154600000D02*
X184280000Y-160050000D01*
X185420000Y-127060000D02*
X185420000Y-153460000D01*
X185420000Y-153460000D02*
X184280000Y-154600000D01*
X234519999Y-112049999D02*
X237960000Y-115490000D01*
X237960000Y-115490000D02*
X237960000Y-132414999D01*
X233715000Y-111250000D02*
X234514999Y-112049999D01*
X234514999Y-112049999D02*
X234519999Y-112049999D01*
X181740000Y-154720000D02*
X183050000Y-153410000D01*
X181740000Y-160050000D02*
X181740000Y-154720000D01*
X183050000Y-153410000D02*
X183050000Y-144624694D01*
X183050000Y-144624694D02*
X183057347Y-144617347D01*
X223380000Y-106345000D02*
X226095000Y-103630000D01*
X223380000Y-135660000D02*
X223380000Y-106345000D01*
X247740000Y-101090000D02*
X241100000Y-107730000D01*
X241100000Y-107730000D02*
X241100000Y-135250000D01*
X179200000Y-154650000D02*
X179200000Y-160050000D01*
X180300000Y-144980000D02*
X180300000Y-153550000D01*
X180300000Y-153550000D02*
X179200000Y-154650000D01*
X234514999Y-101889999D02*
X234514999Y-101934999D01*
X233715000Y-101090000D02*
X234514999Y-101889999D01*
X234514999Y-101934999D02*
X239310000Y-106730000D01*
X239310000Y-106730000D02*
X239310000Y-136390000D01*
X176660000Y-154550000D02*
X176660000Y-160050000D01*
X177630000Y-145910000D02*
X177630000Y-153580000D01*
X177630000Y-153580000D02*
X176660000Y-154550000D01*
X174120000Y-154720000D02*
X175090000Y-153750000D01*
X174120000Y-160050000D02*
X174120000Y-154720000D01*
X175090000Y-153750000D02*
X175280000Y-153560000D01*
X175280000Y-153560000D02*
X175410000Y-153430000D01*
X175410000Y-153430000D02*
X175410000Y-146890000D01*
X222380000Y-104805000D02*
X226095000Y-101090000D01*
X222380000Y-137360000D02*
X222380000Y-104805000D01*
X119000000Y-32400000D02*
X119000000Y-36200000D01*
X119000000Y-36200000D02*
X119000000Y-59120000D01*
X129440000Y-30140000D02*
X131710000Y-32410000D01*
X126460000Y-30140000D02*
X129440000Y-30140000D01*
X121680000Y-34920000D02*
X126460000Y-30140000D01*
X124340000Y-57810000D02*
X121680000Y-55150000D01*
X121680000Y-55150000D02*
X121680000Y-34920000D01*
X131710000Y-34950000D02*
X131710000Y-42100000D01*
X131710000Y-42100000D02*
X134120000Y-44510000D01*
X134120000Y-44510000D02*
X134120000Y-59620000D01*
X134120000Y-59620000D02*
X136060000Y-61560000D01*
X136060000Y-75850000D02*
X131940000Y-79970000D01*
X136060000Y-61560000D02*
X136060000Y-75850000D01*
X133400001Y-31560001D02*
X133390001Y-31560001D01*
X134250000Y-32410000D02*
X133400001Y-31560001D01*
X133390001Y-31560001D02*
X130820000Y-28990000D01*
X130820000Y-28990000D02*
X126140000Y-28990000D01*
X126140000Y-28990000D02*
X120240000Y-34890000D01*
X120240000Y-34890000D02*
X120240000Y-54000000D01*
X134240000Y-39370000D02*
X134240000Y-34950000D01*
D27*
X120852500Y-130692500D02*
X119290000Y-130692500D01*
X123867500Y-133707500D02*
X120852500Y-130692500D01*
X123867500Y-136917500D02*
X123867500Y-133707500D01*
X132660000Y-140210000D02*
X127160000Y-140210000D01*
X127160000Y-140210000D02*
X123867500Y-136917500D01*
D28*
X107970000Y-112530000D02*
X107960000Y-112540000D01*
X107970000Y-111964315D02*
X107970000Y-112530000D01*
X107960000Y-111954315D02*
X107970000Y-111964315D01*
X107960000Y-110490000D02*
X107960000Y-111954315D01*
X105770000Y-108300000D02*
X107960000Y-110490000D01*
X105300000Y-90040000D02*
X105770000Y-90510000D01*
X107960000Y-112540000D02*
X107960000Y-129130000D01*
X117520000Y-39370000D02*
X113140000Y-43750000D01*
X105770000Y-90510000D02*
X105770000Y-108300000D01*
X113140000Y-43750000D02*
X113140000Y-45860000D01*
X113140000Y-45860000D02*
X105300000Y-53700000D01*
X105300000Y-53700000D02*
X105300000Y-90040000D01*
X202540000Y-102010000D02*
X202540000Y-109970000D01*
X201600000Y-101070000D02*
X202540000Y-102010000D01*
X194320000Y-99240000D02*
X196150000Y-101070000D01*
X140100000Y-29100000D02*
X182530000Y-29100000D01*
X136790000Y-32410000D02*
X140100000Y-29100000D01*
X191410000Y-96320000D02*
X194320000Y-99230000D01*
X189440000Y-36010000D02*
X189440000Y-70750000D01*
X196150000Y-101070000D02*
X201600000Y-101070000D01*
X194320000Y-99230000D02*
X194320000Y-99240000D01*
X182530000Y-29100000D02*
X189440000Y-36010000D01*
X189440000Y-70750000D02*
X191410000Y-72720000D01*
X191410000Y-72720000D02*
X191410000Y-96320000D01*
X136790000Y-34950000D02*
X136790000Y-54080000D01*
X136790000Y-54080000D02*
X136810000Y-54100000D01*
X139330000Y-32410000D02*
X140179999Y-31560001D01*
X140179999Y-31560001D02*
X141800000Y-29940000D01*
X180903002Y-29940000D02*
X180943002Y-29900000D01*
X141800000Y-29940000D02*
X180903002Y-29940000D01*
X180943002Y-29900000D02*
X181490000Y-29900000D01*
X181490000Y-29900000D02*
X187820000Y-36230000D01*
X187820000Y-36230000D02*
X187820000Y-71190000D01*
X189760000Y-73130000D02*
X189760000Y-96250000D01*
X187820000Y-71190000D02*
X189760000Y-73130000D01*
X189760000Y-96250000D02*
X194690000Y-101180000D01*
X194690000Y-101180000D02*
X194750000Y-101180000D01*
X194750000Y-101180000D02*
X200390000Y-106820000D01*
X200390000Y-106820000D02*
X200390000Y-109250000D01*
X139330000Y-34950000D02*
X139330000Y-46370000D01*
X139830000Y-103500000D02*
X140629999Y-102700001D01*
X140629999Y-102700001D02*
X143720000Y-99610000D01*
X143720000Y-99610000D02*
X143720000Y-87045000D01*
X143720000Y-87045000D02*
X143720000Y-86479315D01*
X183015010Y-34495010D02*
X183015010Y-78194315D01*
X179390000Y-30870000D02*
X183015010Y-34495010D01*
X183015010Y-78194315D02*
X183015010Y-78760000D01*
X143410000Y-30870000D02*
X179390000Y-30870000D01*
X141870000Y-32410000D02*
X143410000Y-30870000D01*
X141870000Y-47620000D02*
X139320000Y-50170000D01*
X141870000Y-34950000D02*
X141870000Y-47620000D01*
X144410000Y-34950000D02*
X144410000Y-36152081D01*
X144410000Y-36152081D02*
X144410000Y-47690000D01*
X144410000Y-47690000D02*
X139200000Y-52900000D01*
X139200000Y-52900000D02*
X139200000Y-57820000D01*
X146950000Y-34950000D02*
X146950000Y-36152081D01*
X146950000Y-36152081D02*
X146950000Y-47660000D01*
X146950000Y-47660000D02*
X143230000Y-51380000D01*
X143230000Y-51380000D02*
X143230000Y-66790000D01*
X143230000Y-66790000D02*
X143210000Y-66810000D01*
X116980000Y-77710000D02*
X124320000Y-85050000D01*
X116980000Y-68980000D02*
X116980000Y-77710000D01*
X150420000Y-26450000D02*
X149530000Y-27340000D01*
X252020000Y-26450000D02*
X150420000Y-26450000D01*
X263490000Y-37920000D02*
X252020000Y-26450000D01*
X263490000Y-80070000D02*
X263490000Y-37920000D01*
X263490000Y-111250000D02*
X263490000Y-80030000D01*
X255360000Y-116330000D02*
X258410000Y-116330000D01*
X258410000Y-116330000D02*
X263490000Y-111250000D01*
X263490000Y-81450000D02*
X251180000Y-81450000D01*
X131940000Y-77430000D02*
X132739999Y-76630001D01*
X132739999Y-76630001D02*
X134670000Y-74700000D01*
X134670000Y-74700000D02*
X134670000Y-72230000D01*
X169810000Y-37370000D02*
X169810000Y-34950000D01*
X173500000Y-72990000D02*
X173500000Y-41060000D01*
X173500000Y-41060000D02*
X169810000Y-37370000D01*
X261400000Y-53630000D02*
X261430000Y-53600000D01*
X251180000Y-53630000D02*
X261400000Y-53630000D01*
X258060000Y-107060000D02*
X261440000Y-107060000D01*
X255360000Y-106170000D02*
X257170000Y-106170000D01*
X257170000Y-106170000D02*
X258060000Y-107060000D01*
X152030000Y-51210000D02*
X152030000Y-34950000D01*
X149860000Y-53380000D02*
X152030000Y-51210000D01*
X131940000Y-87590000D02*
X149860000Y-69670000D01*
X149860000Y-69670000D02*
X149860000Y-53380000D01*
X254530000Y-80650000D02*
X254480000Y-80700000D01*
X155990000Y-27160000D02*
X155140000Y-28010000D01*
X262470000Y-80700000D02*
X262470000Y-37950000D01*
X262470000Y-37950000D02*
X251690000Y-27170000D01*
X251690000Y-27170000D02*
X211490000Y-27170000D01*
X211490000Y-27170000D02*
X211480000Y-27160000D01*
X211480000Y-27160000D02*
X155990000Y-27160000D01*
X262470000Y-80700000D02*
X254480000Y-80700000D01*
X262480000Y-80690000D02*
X262470000Y-80700000D01*
X154530000Y-34990000D02*
X154570000Y-34950000D01*
X154530000Y-50140000D02*
X154530000Y-34990000D01*
X100030000Y-142750000D02*
X103910000Y-138870000D01*
X98980000Y-142750000D02*
X100030000Y-142750000D01*
X103910000Y-108480000D02*
X98980000Y-103550000D01*
X103910000Y-138870000D02*
X103910000Y-108480000D01*
X156020000Y-38580000D02*
X159650000Y-34950000D01*
X156020000Y-50500000D02*
X156020000Y-38580000D01*
X151610000Y-54910000D02*
X156020000Y-50500000D01*
X151610000Y-60030000D02*
X151610000Y-54910000D01*
X154000000Y-62420000D02*
X151610000Y-60030000D01*
X154000000Y-74640000D02*
X154000000Y-62420000D01*
X148060000Y-80580000D02*
X154000000Y-74640000D01*
X148060000Y-88630000D02*
X148060000Y-80580000D01*
X149430000Y-90000000D02*
X148060000Y-88630000D01*
X149430000Y-109400000D02*
X149430000Y-90000000D01*
X147000000Y-122550000D02*
X146540000Y-122090000D01*
X147000000Y-141480000D02*
X147000000Y-122550000D01*
X146540000Y-122090000D02*
X146540000Y-121430000D01*
X146540000Y-121430000D02*
X147134999Y-120835001D01*
X147134999Y-120835001D02*
X147134999Y-111695001D01*
X147134999Y-111695001D02*
X149430000Y-109400000D01*
X219320000Y-49286666D02*
X217486666Y-51120000D01*
X219320000Y-30010000D02*
X219320000Y-49286666D01*
X256950000Y-101090000D02*
X255360000Y-101090000D01*
X258580000Y-101510000D02*
X257370000Y-101510000D01*
X257370000Y-101510000D02*
X256950000Y-101090000D01*
X103370000Y-70130000D02*
X103490000Y-70250000D01*
X103370000Y-63090000D02*
X103370000Y-70130000D01*
X103490000Y-70250000D02*
X103490000Y-102250000D01*
X103490000Y-102250000D02*
X103480000Y-102260000D01*
X153580000Y-56690000D02*
X153580000Y-54210000D01*
X153580000Y-54210000D02*
X156760000Y-51030000D01*
X156760000Y-51030000D02*
X156760000Y-40120000D01*
X156760000Y-40120000D02*
X160040000Y-36840000D01*
X162840000Y-36840000D02*
X164730000Y-34950000D01*
X160040000Y-36840000D02*
X162840000Y-36840000D01*
X225906665Y-80490001D02*
X225906665Y-80483335D01*
X225106666Y-81290000D02*
X225906665Y-80490001D01*
X225906665Y-80483335D02*
X227490000Y-78900000D01*
X227490000Y-78900000D02*
X227490000Y-28010000D01*
X218170000Y-28020000D02*
X167780000Y-28020000D01*
X227490000Y-28010000D02*
X218180000Y-28010000D01*
X218180000Y-28010000D02*
X218170000Y-28020000D01*
X255370000Y-111260000D02*
X255360000Y-111250000D01*
X148550000Y-68440000D02*
X131940000Y-85050000D01*
X148550000Y-58480000D02*
X148550000Y-68440000D01*
X172570000Y-43710000D02*
X172570000Y-59060000D01*
X167270000Y-34950000D02*
X167270000Y-38410000D01*
X167270000Y-38410000D02*
X172570000Y-43710000D01*
X232470000Y-49173332D02*
X230523332Y-51120000D01*
X232470000Y-31245000D02*
X232470000Y-49173332D01*
X149490000Y-34950000D02*
X149490000Y-36152081D01*
X149490000Y-36152081D02*
X149490000Y-49030000D01*
X149490000Y-49030000D02*
X146770000Y-51750000D01*
X146770000Y-51750000D02*
X146770000Y-61500000D01*
X120290000Y-73400000D02*
X124320000Y-77430000D01*
X120290000Y-61500000D02*
X120290000Y-73400000D01*
X215000000Y-78360000D02*
X212070000Y-81290000D01*
X215000000Y-28750000D02*
X215000000Y-78360000D01*
X185010000Y-29990000D02*
X185000000Y-29980000D01*
X211980000Y-29990000D02*
X185010000Y-29990000D01*
X215000000Y-28750000D02*
X213220000Y-28750000D01*
X213220000Y-28750000D02*
X211980000Y-29990000D01*
X172350000Y-36630000D02*
X172350000Y-34950000D01*
X174460000Y-38740000D02*
X172350000Y-36630000D01*
X174460000Y-66810000D02*
X174460000Y-38740000D01*
X174440000Y-75050000D02*
X174440000Y-66830000D01*
X174440000Y-66830000D02*
X174460000Y-66810000D01*
X205990000Y-49370000D02*
X204450000Y-50910000D01*
X205990000Y-31970000D02*
X205990000Y-49370000D01*
X124320000Y-82510000D02*
X123520001Y-81710001D01*
X123520001Y-81710001D02*
X117970000Y-76160000D01*
X117970000Y-76160000D02*
X117970000Y-65000000D01*
X176010000Y-36070000D02*
X174890000Y-34950000D01*
X176010000Y-64990000D02*
X176010000Y-36070000D01*
X109870000Y-93560000D02*
X113280000Y-90150000D01*
X106980000Y-93560000D02*
X109870000Y-93560000D01*
X108070000Y-108630000D02*
X106980000Y-107540000D01*
X106980000Y-107540000D02*
X106980000Y-93560000D01*
X106530000Y-81160000D02*
X106530000Y-60360000D01*
X112580001Y-87210001D02*
X106530000Y-81160000D01*
X113280000Y-90150000D02*
X112580001Y-89450001D01*
X112580001Y-89450001D02*
X112580001Y-87210001D01*
X157820000Y-89525685D02*
X157810000Y-89535685D01*
X157820000Y-88960000D02*
X157820000Y-89525685D01*
X157810000Y-104110000D02*
X159790000Y-106090000D01*
X157810000Y-89535685D02*
X157810000Y-104110000D01*
X142164999Y-88369316D02*
X142160000Y-88364317D01*
X142164999Y-88935001D02*
X142164999Y-88369316D01*
X142160000Y-88364317D02*
X142160000Y-80620000D01*
X142160000Y-80620000D02*
X152790000Y-69990000D01*
X185330001Y-57350001D02*
X185330001Y-57300001D01*
X185730000Y-57750000D02*
X185330001Y-57350001D01*
X185330001Y-57300001D02*
X183610000Y-55580000D01*
X183610000Y-55580000D02*
X183610000Y-33720000D01*
X177839990Y-101010000D02*
X177565000Y-101010000D01*
X177839990Y-91689959D02*
X177839990Y-101010000D01*
X177840000Y-90700000D02*
X177840000Y-91689949D01*
X177840000Y-91689949D02*
X177839990Y-91689959D01*
X179169988Y-52961998D02*
X179290000Y-52841986D01*
X177840000Y-90700000D02*
X179169988Y-89370012D01*
X179169988Y-89370012D02*
X179169988Y-52961998D01*
X179290000Y-52841986D02*
X179290000Y-36810000D01*
X178279999Y-35799999D02*
X177430000Y-34950000D01*
X179290000Y-36810000D02*
X178279999Y-35799999D01*
X142050000Y-136900000D02*
X140280000Y-135130000D01*
X142050000Y-140960000D02*
X142050000Y-136900000D01*
X140280000Y-142750000D02*
X140280000Y-142730000D01*
X140280000Y-142730000D02*
X142050000Y-140960000D01*
X86500000Y-142924315D02*
X86450000Y-142874315D01*
X86500000Y-143490000D02*
X86500000Y-142924315D01*
X86450000Y-142874315D02*
X86450000Y-111150000D01*
X86470000Y-111170000D02*
X91360000Y-111170000D01*
X86450000Y-111150000D02*
X86470000Y-111170000D01*
X91330000Y-47730000D02*
X91360000Y-47730000D01*
X86480000Y-52580000D02*
X91330000Y-47730000D01*
X86480000Y-61760000D02*
X86480000Y-52580000D01*
X86450000Y-111150000D02*
X86450000Y-61790000D01*
X86450000Y-61790000D02*
X86480000Y-61760000D01*
X130680000Y-115190000D02*
X132210000Y-113660000D01*
X132660000Y-127510000D02*
X130680000Y-125530000D01*
X130680000Y-125530000D02*
X130680000Y-115190000D01*
X129900000Y-108350000D02*
X132210000Y-106040000D01*
X132660000Y-135130000D02*
X129900000Y-132370000D01*
X129900000Y-132370000D02*
X129900000Y-108350000D01*
X101620000Y-135150000D02*
X101310000Y-134840000D01*
X101310000Y-113500000D02*
X98980000Y-111170000D01*
X101310000Y-120070000D02*
X101310000Y-113500000D01*
X101310000Y-134840000D02*
X101310000Y-120070000D01*
X150720000Y-88900000D02*
X150030000Y-88210000D01*
X150720000Y-111290000D02*
X150720000Y-88900000D01*
X148930000Y-121420000D02*
X148930000Y-113080000D01*
X148930000Y-113080000D02*
X150720000Y-111290000D01*
X150030000Y-88210000D02*
X150030000Y-80230000D01*
X155180000Y-75080000D02*
X155180000Y-60330000D01*
X150030000Y-80230000D02*
X155180000Y-75080000D01*
X145620000Y-102790000D02*
X139830000Y-108580000D01*
X145620000Y-100880000D02*
X145620000Y-102790000D01*
X147160000Y-97210000D02*
X147160000Y-99340000D01*
X147160000Y-99340000D02*
X145620000Y-100880000D01*
X139830000Y-109988630D02*
X139830000Y-108580000D01*
X139830000Y-111120000D02*
X139830000Y-109988630D01*
X238943331Y-44299999D02*
X238943331Y-44303331D01*
X238143332Y-43500000D02*
X238943331Y-44299999D01*
X238943331Y-44303331D02*
X240590000Y-45950000D01*
X240590000Y-68683332D02*
X238143332Y-71130000D01*
X240590000Y-45950000D02*
X240590000Y-68683332D01*
X253040000Y-66890000D02*
X251180000Y-68750000D01*
X250380001Y-41729999D02*
X250380001Y-41739999D01*
X251180000Y-40930000D02*
X250380001Y-41729999D01*
X250380001Y-41739999D02*
X249610000Y-42510000D01*
X249610000Y-42510000D02*
X249610000Y-57220000D01*
X249610000Y-57220000D02*
X253040000Y-60650000D01*
X253040000Y-60650000D02*
X253040000Y-66890000D01*
X199980000Y-50300000D02*
X204450000Y-45830000D01*
X199980000Y-73700000D02*
X199980000Y-50300000D01*
X251200000Y-73850000D02*
X251180000Y-73830000D01*
X254700000Y-73850000D02*
X251200000Y-73850000D01*
X204450000Y-48370000D02*
X200900000Y-51920000D01*
X200900000Y-67320000D02*
X200900000Y-76200000D01*
X200900000Y-51920000D02*
X200900000Y-67320000D01*
X191850000Y-68590000D02*
X191850000Y-49150000D01*
X191850000Y-49150000D02*
X200280000Y-40720000D01*
X203650001Y-39009999D02*
X204450000Y-38210000D01*
X193000000Y-66050000D02*
X193000000Y-49660000D01*
X193000000Y-49660000D02*
X203650001Y-39009999D01*
X197980000Y-49760000D02*
X204450000Y-43290000D01*
X197990000Y-71130000D02*
X197980000Y-71120000D01*
X197980000Y-71120000D02*
X197980000Y-49760000D01*
X251180000Y-51090000D02*
X253955000Y-51090000D01*
X253955000Y-51090000D02*
X253965000Y-51080000D01*
X195470000Y-83990000D02*
X195470000Y-86360000D01*
X198990000Y-58230000D02*
X198990000Y-80470000D01*
X198990000Y-80470000D02*
X195470000Y-83990000D01*
X87670000Y-97280000D02*
X87660000Y-97290000D01*
X87670000Y-61570000D02*
X87670000Y-97280000D01*
X91360000Y-57890000D02*
X91350000Y-57890000D01*
X91350000Y-57890000D02*
X87670000Y-61570000D01*
X192470000Y-111230000D02*
X192470000Y-100710000D01*
X192470000Y-100710000D02*
X187360000Y-95600000D01*
X187360000Y-95600000D02*
X187360000Y-73350000D01*
X187360000Y-73350000D02*
X186330000Y-72320000D01*
X186330000Y-72320000D02*
X184630000Y-72320000D01*
X184630000Y-72320000D02*
X184050000Y-71740000D01*
X184050000Y-71740000D02*
X184050000Y-62860000D01*
X151400000Y-70670000D02*
X151400000Y-62890000D01*
X131940000Y-90130000D02*
X151400000Y-70670000D01*
X98980000Y-79250000D02*
X99779999Y-80049999D01*
D27*
X99779999Y-80049999D02*
X99809999Y-80049999D01*
X99809999Y-80049999D02*
X101000000Y-81240000D01*
X101000000Y-81240000D02*
X101000000Y-97400000D01*
D28*
X109520000Y-81790000D02*
X109520000Y-73600000D01*
X109520000Y-73600000D02*
X109530000Y-73590000D01*
X114340000Y-86870000D02*
X114340000Y-94000000D01*
X159790000Y-124970000D02*
X158990001Y-124170001D01*
X158990001Y-124170001D02*
X157420000Y-122600000D01*
X157420000Y-122600000D02*
X157420000Y-111140000D01*
D27*
X127040000Y-104920000D02*
X127047001Y-104912999D01*
X132660000Y-137670000D02*
X128960000Y-137670000D01*
X128960000Y-137670000D02*
X127040000Y-135750000D01*
X127040000Y-135750000D02*
X127040000Y-104920000D01*
D28*
X145340000Y-119170000D02*
X139830000Y-113660000D01*
X145340000Y-131330000D02*
X145340000Y-119170000D01*
X143130000Y-119500000D02*
X139830000Y-116200000D01*
X143130000Y-119870000D02*
X143130000Y-119500000D01*
X143140000Y-126540000D02*
X143140000Y-119880000D01*
X143140000Y-119880000D02*
X143130000Y-119870000D01*
X138650000Y-132590000D02*
X140280000Y-132590000D01*
X138100000Y-133140000D02*
X138650000Y-132590000D01*
X138100000Y-139550000D02*
X138100000Y-133140000D01*
X140280000Y-140210000D02*
X138760000Y-140210000D01*
X138760000Y-140210000D02*
X138100000Y-139550000D01*
X140280000Y-132590000D02*
X141411370Y-132590000D01*
X141411370Y-132590000D02*
X145570000Y-132590000D01*
X145570000Y-132590000D02*
X146310000Y-131850000D01*
X146310000Y-131850000D02*
X146310000Y-130650000D01*
X146310000Y-130650000D02*
X145960000Y-130300000D01*
X145960000Y-130300000D02*
X145960000Y-111550000D01*
X145960000Y-111550000D02*
X148280000Y-109230000D01*
X148280000Y-109230000D02*
X148280000Y-104810000D01*
X179600000Y-103660000D02*
X179600000Y-97960000D01*
X189270000Y-122350000D02*
X189270000Y-116250000D01*
X186420000Y-125200000D02*
X189270000Y-122350000D01*
X183530000Y-125200000D02*
X186420000Y-125200000D01*
X182720000Y-140650000D02*
X182720000Y-126010000D01*
X182720000Y-126010000D02*
X183530000Y-125200000D01*
X176930000Y-110810000D02*
X181650000Y-106090000D01*
X176930000Y-120280000D02*
X176930000Y-110810000D01*
X180220000Y-125670000D02*
X178220000Y-123670000D01*
X180220000Y-138420000D02*
X180220000Y-125670000D01*
X178220000Y-123670000D02*
X178200000Y-123670000D01*
X178200000Y-123670000D02*
X176919991Y-122389991D01*
X176919991Y-122389991D02*
X176919991Y-120290009D01*
X176919991Y-120290009D02*
X176930000Y-120280000D01*
X225295001Y-115530001D02*
X225295001Y-115525001D01*
X226095000Y-116330000D02*
X225295001Y-115530001D01*
X225295001Y-115525001D02*
X224340000Y-114570000D01*
X224340000Y-114570000D02*
X224340000Y-108750000D01*
D26*
X79790000Y-111220000D02*
X79800000Y-111230000D01*
X68200000Y-111220000D02*
X79790000Y-111220000D01*
X232540000Y-160050000D02*
X232540000Y-152990000D01*
D28*
X203650001Y-80490001D02*
X204450000Y-81290000D01*
X202660000Y-79500000D02*
X203650001Y-80490001D01*
X204450000Y-53450000D02*
X202660000Y-55240000D01*
X202660000Y-55240000D02*
X202660000Y-79500000D01*
X212030000Y-101060000D02*
X219010000Y-94080000D01*
X219010000Y-94080000D02*
X219010000Y-93000000D01*
X193150000Y-93490000D02*
X193140000Y-93480000D01*
X193150000Y-95940000D02*
X193150000Y-93490000D01*
D27*
X76873029Y-60126966D02*
X76882971Y-103863000D01*
X66000000Y-103863000D01*
X65975224Y-103865440D01*
X65951399Y-103872667D01*
X65929443Y-103884403D01*
X65910197Y-103900197D01*
X65894403Y-103919443D01*
X65882667Y-103941399D01*
X65875440Y-103965224D01*
X65873000Y-103990000D01*
X65873000Y-113000000D01*
X65875440Y-113024776D01*
X65882667Y-113048601D01*
X65894403Y-113070557D01*
X65910197Y-113089803D01*
X65929443Y-113105597D01*
X65951399Y-113117333D01*
X65975224Y-113124560D01*
X66000000Y-113127000D01*
X76863000Y-113127000D01*
X76863000Y-139843103D01*
X40117032Y-139872897D01*
X40120212Y-127145413D01*
X67874192Y-127145413D01*
X67969956Y-127409814D01*
X68259571Y-127550704D01*
X68571108Y-127632384D01*
X68892595Y-127651718D01*
X69211675Y-127607961D01*
X69516088Y-127502795D01*
X69690044Y-127409814D01*
X69785808Y-127145413D01*
X68830000Y-126189605D01*
X67874192Y-127145413D01*
X40120212Y-127145413D01*
X40120481Y-126072595D01*
X67188282Y-126072595D01*
X67232039Y-126391675D01*
X67337205Y-126696088D01*
X67430186Y-126870044D01*
X67694587Y-126965808D01*
X68650395Y-126010000D01*
X69009605Y-126010000D01*
X69965413Y-126965808D01*
X70229814Y-126870044D01*
X70370704Y-126580429D01*
X70452384Y-126268892D01*
X70471718Y-125947405D01*
X70427961Y-125628325D01*
X70322795Y-125323912D01*
X70229814Y-125149956D01*
X69965413Y-125054192D01*
X69009605Y-126010000D01*
X68650395Y-126010000D01*
X67694587Y-125054192D01*
X67430186Y-125149956D01*
X67289296Y-125439571D01*
X67207616Y-125751108D01*
X67188282Y-126072595D01*
X40120481Y-126072595D01*
X40120780Y-124874587D01*
X67874192Y-124874587D01*
X68830000Y-125830395D01*
X69785808Y-124874587D01*
X69690044Y-124610186D01*
X69400429Y-124469296D01*
X69088892Y-124387616D01*
X68767405Y-124368282D01*
X68448325Y-124412039D01*
X68143912Y-124517205D01*
X67969956Y-124610186D01*
X67874192Y-124874587D01*
X40120780Y-124874587D01*
X40124887Y-108445098D01*
X49155000Y-108445098D01*
X49155000Y-108914902D01*
X49246654Y-109375679D01*
X49426440Y-109809721D01*
X49687450Y-110200349D01*
X50019651Y-110532550D01*
X50410279Y-110793560D01*
X50844321Y-110973346D01*
X51305098Y-111065000D01*
X51774902Y-111065000D01*
X52235679Y-110973346D01*
X52669721Y-110793560D01*
X53060349Y-110532550D01*
X53392550Y-110200349D01*
X53653560Y-109809721D01*
X53833346Y-109375679D01*
X53925000Y-108914902D01*
X53925000Y-108445098D01*
X53833346Y-107984321D01*
X53653560Y-107550279D01*
X53392550Y-107159651D01*
X53060349Y-106827450D01*
X52669721Y-106566440D01*
X52235679Y-106386654D01*
X51774902Y-106295000D01*
X51305098Y-106295000D01*
X50844321Y-106386654D01*
X50410279Y-106566440D01*
X50019651Y-106827450D01*
X49687450Y-107159651D01*
X49426440Y-107550279D01*
X49246654Y-107984321D01*
X49155000Y-108445098D01*
X40124887Y-108445098D01*
X40133622Y-73501805D01*
X50051805Y-73501805D01*
X50124379Y-73741066D01*
X50284361Y-74063257D01*
X50504125Y-74348046D01*
X50775226Y-74584489D01*
X51087246Y-74763500D01*
X51428194Y-74878199D01*
X51713000Y-74761854D01*
X51713000Y-73217000D01*
X51967000Y-73217000D01*
X51967000Y-74761854D01*
X52251806Y-74878199D01*
X52592754Y-74763500D01*
X52904774Y-74584489D01*
X53175875Y-74348046D01*
X53395639Y-74063257D01*
X53555621Y-73741066D01*
X53628195Y-73501805D01*
X53511432Y-73217000D01*
X51967000Y-73217000D01*
X51713000Y-73217000D01*
X50168568Y-73217000D01*
X50051805Y-73501805D01*
X40133622Y-73501805D01*
X40133827Y-72678195D01*
X50051805Y-72678195D01*
X50168568Y-72963000D01*
X51713000Y-72963000D01*
X51713000Y-71418146D01*
X51967000Y-71418146D01*
X51967000Y-72963000D01*
X53511432Y-72963000D01*
X53628195Y-72678195D01*
X53555621Y-72438934D01*
X53395639Y-72116743D01*
X53175875Y-71831954D01*
X52904774Y-71595511D01*
X52592754Y-71416500D01*
X52251806Y-71301801D01*
X51967000Y-71418146D01*
X51713000Y-71418146D01*
X51428194Y-71301801D01*
X51087246Y-71416500D01*
X50775226Y-71595511D01*
X50504125Y-71831954D01*
X50284361Y-72116743D01*
X50124379Y-72438934D01*
X50051805Y-72678195D01*
X40133827Y-72678195D01*
X40136968Y-60117034D01*
X76873029Y-60126966D01*
G04 #@! TA.AperFunction,Conductor*
D29*
G36*
X76873029Y-60126966D02*
G01*
X76882971Y-103863000D01*
X66000000Y-103863000D01*
X65975224Y-103865440D01*
X65951399Y-103872667D01*
X65929443Y-103884403D01*
X65910197Y-103900197D01*
X65894403Y-103919443D01*
X65882667Y-103941399D01*
X65875440Y-103965224D01*
X65873000Y-103990000D01*
X65873000Y-113000000D01*
X65875440Y-113024776D01*
X65882667Y-113048601D01*
X65894403Y-113070557D01*
X65910197Y-113089803D01*
X65929443Y-113105597D01*
X65951399Y-113117333D01*
X65975224Y-113124560D01*
X66000000Y-113127000D01*
X76863000Y-113127000D01*
X76863000Y-139843103D01*
X40117032Y-139872897D01*
X40120212Y-127145413D01*
X67874192Y-127145413D01*
X67969956Y-127409814D01*
X68259571Y-127550704D01*
X68571108Y-127632384D01*
X68892595Y-127651718D01*
X69211675Y-127607961D01*
X69516088Y-127502795D01*
X69690044Y-127409814D01*
X69785808Y-127145413D01*
X68830000Y-126189605D01*
X67874192Y-127145413D01*
X40120212Y-127145413D01*
X40120481Y-126072595D01*
X67188282Y-126072595D01*
X67232039Y-126391675D01*
X67337205Y-126696088D01*
X67430186Y-126870044D01*
X67694587Y-126965808D01*
X68650395Y-126010000D01*
X69009605Y-126010000D01*
X69965413Y-126965808D01*
X70229814Y-126870044D01*
X70370704Y-126580429D01*
X70452384Y-126268892D01*
X70471718Y-125947405D01*
X70427961Y-125628325D01*
X70322795Y-125323912D01*
X70229814Y-125149956D01*
X69965413Y-125054192D01*
X69009605Y-126010000D01*
X68650395Y-126010000D01*
X67694587Y-125054192D01*
X67430186Y-125149956D01*
X67289296Y-125439571D01*
X67207616Y-125751108D01*
X67188282Y-126072595D01*
X40120481Y-126072595D01*
X40120780Y-124874587D01*
X67874192Y-124874587D01*
X68830000Y-125830395D01*
X69785808Y-124874587D01*
X69690044Y-124610186D01*
X69400429Y-124469296D01*
X69088892Y-124387616D01*
X68767405Y-124368282D01*
X68448325Y-124412039D01*
X68143912Y-124517205D01*
X67969956Y-124610186D01*
X67874192Y-124874587D01*
X40120780Y-124874587D01*
X40124887Y-108445098D01*
X49155000Y-108445098D01*
X49155000Y-108914902D01*
X49246654Y-109375679D01*
X49426440Y-109809721D01*
X49687450Y-110200349D01*
X50019651Y-110532550D01*
X50410279Y-110793560D01*
X50844321Y-110973346D01*
X51305098Y-111065000D01*
X51774902Y-111065000D01*
X52235679Y-110973346D01*
X52669721Y-110793560D01*
X53060349Y-110532550D01*
X53392550Y-110200349D01*
X53653560Y-109809721D01*
X53833346Y-109375679D01*
X53925000Y-108914902D01*
X53925000Y-108445098D01*
X53833346Y-107984321D01*
X53653560Y-107550279D01*
X53392550Y-107159651D01*
X53060349Y-106827450D01*
X52669721Y-106566440D01*
X52235679Y-106386654D01*
X51774902Y-106295000D01*
X51305098Y-106295000D01*
X50844321Y-106386654D01*
X50410279Y-106566440D01*
X50019651Y-106827450D01*
X49687450Y-107159651D01*
X49426440Y-107550279D01*
X49246654Y-107984321D01*
X49155000Y-108445098D01*
X40124887Y-108445098D01*
X40133622Y-73501805D01*
X50051805Y-73501805D01*
X50124379Y-73741066D01*
X50284361Y-74063257D01*
X50504125Y-74348046D01*
X50775226Y-74584489D01*
X51087246Y-74763500D01*
X51428194Y-74878199D01*
X51713000Y-74761854D01*
X51713000Y-73217000D01*
X51967000Y-73217000D01*
X51967000Y-74761854D01*
X52251806Y-74878199D01*
X52592754Y-74763500D01*
X52904774Y-74584489D01*
X53175875Y-74348046D01*
X53395639Y-74063257D01*
X53555621Y-73741066D01*
X53628195Y-73501805D01*
X53511432Y-73217000D01*
X51967000Y-73217000D01*
X51713000Y-73217000D01*
X50168568Y-73217000D01*
X50051805Y-73501805D01*
X40133622Y-73501805D01*
X40133827Y-72678195D01*
X50051805Y-72678195D01*
X50168568Y-72963000D01*
X51713000Y-72963000D01*
X51713000Y-71418146D01*
X51967000Y-71418146D01*
X51967000Y-72963000D01*
X53511432Y-72963000D01*
X53628195Y-72678195D01*
X53555621Y-72438934D01*
X53395639Y-72116743D01*
X53175875Y-71831954D01*
X52904774Y-71595511D01*
X52592754Y-71416500D01*
X52251806Y-71301801D01*
X51967000Y-71418146D01*
X51713000Y-71418146D01*
X51428194Y-71301801D01*
X51087246Y-71416500D01*
X50775226Y-71595511D01*
X50504125Y-71831954D01*
X50284361Y-72116743D01*
X50124379Y-72438934D01*
X50051805Y-72678195D01*
X40133827Y-72678195D01*
X40136968Y-60117034D01*
X76873029Y-60126966D01*
G37*
G04 #@! TD.AperFunction*
M02*
